<?xml version="1.0" standalone="no"?>
<!DOCTYPE svg PUBLIC "-//W3C//DTD SVG 20010904//EN"
 "http://www.w3.org/TR/2001/REC-SVG-20010904/DTD/svg10.dtd">
<svg version="1.0" xmlns="http://www.w3.org/2000/svg"
 width="1500.000000pt" height="1500.000000pt" viewBox="0 0 1500.000000 1500.000000"
 preserveAspectRatio="xMidYMid meet">
<metadata>
Created by potrace 1.14, written by Peter Selinger 2001-2017
</metadata>
<g transform="translate(0.000000,1500.000000) scale(0.100000,-0.100000)"
fill="#000000" stroke="none">
<path d="M7115 14989 c-2301 -119 -4415 -1288 -5749 -3177 -1673 -2369 -1817
-5528 -368 -8047 542 -942 1295 -1769 2176 -2389 1516 -1067 3355 -1536 5201
-1325 1222 139 2440 605 3444 1317 1281 909 2232 2163 2754 3633 217 610 349
1240 409 1944 20 234 17 906 -5 1140 -37 401 -95 771 -171 1102 -417 1797
-1472 3370 -2976 4435 -1369 969 -3040 1453 -4715 1367z m173 -1510 c191 -21
264 -43 719 -223 545 -216 1299 -518 2113 -846 1180 -476 1118 -448 1296 -581
168 -126 350 -339 463 -542 83 -150 162 -392 197 -602 24 -140 24 -424 0 -570
-42 -262 -17 -191 -576 -1590 -1040 -2600 -1680 -4186 -1783 -4420 -84 -192
-252 -477 -395 -674 -334 -458 -737 -794 -1200 -1001 -529 -237 -1136 -306
-1787 -205 -365 57 -592 123 -1090 318 -335 131 -670 328 -992 583 -136 108
-440 416 -547 554 -386 500 -600 1023 -668 1635 -15 142 -15 509 0 650 25 219
80 490 139 685 49 162 157 440 668 1715 1002 2501 1534 3816 1637 4050 79 180
228 384 400 551 391 378 910 568 1406 513z"/>
<path d="M7425 12438 c-329 -33 -670 -172 -940 -382 -107 -84 -264 -250 -348
-366 -108 -152 -245 -445 -340 -731 -65 -194 -96 -464 -77 -673 48 -537 305
-1002 730 -1318 119 -89 221 -145 404 -220 339 -139 1713 -686 1788 -712 42
-14 129 -35 193 -46 396 -68 779 -10 1135 171 185 95 301 180 455 334 204 204
307 366 433 680 127 317 163 453 183 692 59 728 -385 1469 -1053 1759 -135 59
-1775 715 -1854 742 -194 66 -474 94 -709 70z"/>
<path d="M6097 7979 c-522 -76 -1096 -548 -1395 -1145 -50 -100 -289 -687
-344 -844 -26 -74 -31 -103 -35 -226 -5 -121 -2 -152 16 -225 50 -200 152
-331 321 -412 361 -171 618 -168 798 12 68 69 103 132 202 366 93 219 130 294
185 370 97 136 245 236 401 271 100 22 288 15 386 -14 297 -89 510 -285 571
-527 50 -195 30 -325 -103 -665 -93 -237 -114 -320 -108 -429 12 -205 124
-348 363 -461 55 -27 141 -63 190 -81 78 -28 103 -33 190 -33 109 -1 154 10
280 70 139 65 277 209 354 369 56 114 284 684 330 820 117 354 144 809 70
1180 -40 201 -133 433 -230 577 -53 78 -157 187 -230 242 -71 54 -192 105
-1139 484 -612 245 -737 292 -803 301 -90 13 -186 12 -270 0z"/>
<path d="M6340 5804 c-144 -39 -247 -145 -294 -303 -56 -188 44 -396 232 -484
86 -40 209 -49 293 -22 113 36 218 128 267 233 24 51 27 69 27 167 0 103 -2
114 -32 178 -36 76 -116 163 -181 196 -97 49 -210 62 -312 35z"/>
</g>
</svg>
