<?xml version="1.0" encoding="UTF-8" standalone="no"?>
<!-- Generator: Adobe Illustrator 19.0.0, SVG Export Plug-In . SVG Version: 6.00 Build 0)  -->

<svg
   version="1.1"
   id="Layer_1"
   x="0px"
   y="0px"
   viewBox="0 0 297 297"
   style="enable-background:new 0 0 297 297;"
   xml:space="preserve"
   sodipodi:docname="logo.svg"
   inkscape:version="1.2 (dc2aedaf03, 2022-05-15)"
   inkscape:export-filename="..\..\..\..\..\Users\ABU6\Desktop\logo.png"
   inkscape:export-xdpi="484.84848"
   inkscape:export-ydpi="484.84848"
   xmlns:inkscape="http://www.inkscape.org/namespaces/inkscape"
   xmlns:sodipodi="http://sodipodi.sourceforge.net/DTD/sodipodi-0.dtd"
   xmlns="http://www.w3.org/2000/svg"
   xmlns:svg="http://www.w3.org/2000/svg"><defs
   id="defs69">
	
	
	
	
	
	
	
	
</defs><sodipodi:namedview
   id="namedview67"
   pagecolor="#ffffff"
   bordercolor="#666666"
   borderopacity="1.0"
   inkscape:showpageshadow="2"
   inkscape:pageopacity="0.0"
   inkscape:pagecheckerboard="0"
   inkscape:deskcolor="#d1d1d1"
   showgrid="false"
   inkscape:zoom="1.9927555"
   inkscape:cx="163.09076"
   inkscape:cy="103.37445"
   inkscape:window-width="1920"
   inkscape:window-height="1017"
   inkscape:window-x="-8"
   inkscape:window-y="-8"
   inkscape:window-maximized="1"
   inkscape:current-layer="Layer_1" />
<g
   id="g6">
		<g
   id="g4">
			<circle
   style="fill:#c63c22"
   cx="148.5"
   cy="148.5"
   r="148.5"
   id="circle2" />
		</g>
	</g><path
   style="fill:#9e231d"
   d="M 296.703,139.216 229.84945,65.957355 206.83557,170.8351 156.6512,227.88687 78.079742,231.71284 149.738,296.984 C 231.181,296.318 297,230.1 297,148.5 c 0,-3.119 -0.108,-6.212 -0.297,-9.284 z"
   id="path8"
   sodipodi:nodetypes="ccccccsc" />
<g
   id="g36">
</g>
<g
   id="g38">
</g>
<g
   id="g40">
</g>
<g
   id="g42">
</g>
<g
   id="g44">
</g>
<g
   id="g46">
</g>
<g
   id="g48">
</g>
<g
   id="g50">
</g>
<g
   id="g52">
</g>
<g
   id="g54">
</g>
<g
   id="g56">
</g>
<g
   id="g58">
</g>
<g
   id="g60">
</g>
<g
   id="g62">
</g>
<g
   id="g64">
</g>
<path
   style="fill:#ffa800;stroke-width:0.92800007;fill-opacity:1;stroke:#000000;stroke-opacity:1;stroke-dasharray:none"
   d="m 100.11174,245.70291 c -0.285362,-0.14269 -1.193352,-0.5966 -2.017842,-1.00846 -6.586971,-3.29114 -12.571941,-7.43544 -18.145257,-12.56468 -0.305834,-0.28143 -0.775586,-0.74082 -1.043937,-1.0208 -0.268345,-0.28 -0.994204,-1.03264 -1.613026,-1.67248 -4.216267,-4.35948 -7.8084,-9.2835 -10.722225,-14.69775 -1.024045,-1.90282 -2.886879,-6.11011 -3.655528,-8.2562 -2.944922,-8.22228 -4.099343,-17.1162 -3.409043,-26.26411 0.328313,-4.3509 1.426306,-10.23734 2.683744,-14.38777 1.558023,-5.14257 2.039206,-6.36484 24.038314,-61.0601 23.75637,-59.064202 21.88552,-54.569736 24.1694,-58.061779 6.49766,-9.934694 16.81504,-16.296173 27.92189,-17.216093 3.87631,-0.321045 7.77832,0.04981 11.61042,1.103462 1.53831,0.422977 70.59571,28.125455 72.01745,28.889859 6.30577,3.390591 11.16867,8.509092 14.4646,15.22486 0.83898,1.709488 1.78699,4.304768 2.35186,6.438426 1.79528,6.781342 1.74405,13.531535 -0.1573,20.728385 -0.45503,1.72232 -1.61256,4.63939 -22.72099,57.25861 -23.20443,57.84415 -22.65916,56.51736 -24.95278,60.79281 -6.39576,11.92583 -14.60579,20.86815 -24.50352,26.68915 -6.18206,3.63574 -13.32101,6.13045 -20.43208,7.13999 -6.60646,0.93788 -13.51405,0.85918 -20.50697,-0.23366 -4.2391,-0.66244 -7.93753,-1.52834 -13.03337,-3.05141 -1.37235,-0.41025 -11.28724,-4.24182 -12.3438,-4.77031 z m -3.161941,-48.94838 c 5.240241,1.5866 9.099811,0.55797 11.909411,-3.17399 0.58855,-0.78174 0.8118,-1.25745 2.76101,-5.8827 2.04661,-4.85628 2.39079,-5.5604 3.48603,-7.12942 3.18381,-4.56129 8.2334,-6.77474 13.75548,-6.02965 6.10008,0.82309 11.53909,4.55785 13.61487,9.34882 1.13207,2.61286 1.4321,5.34307 0.92836,8.44775 -0.23242,1.43241 -1.30137,4.72007 -2.13445,6.56473 -0.95151,2.10712 -2.10662,5.55175 -2.25,6.71059 -0.22005,1.7777 -0.16863,2.66894 0.23376,4.05566 0.6779,2.33614 2.26554,4.25274 4.8176,5.816 1.41297,0.86552 6.02606,2.75313 7.30563,2.9894 2.10419,0.38852 3.98886,0.13512 6.22685,-0.83719 0.87593,-0.38052 1.84838,-0.86624 2.16104,-1.07931 1.66748,-1.13655 3.79887,-3.3794 4.94722,-5.20593 0.73526,-1.16948 6.68409,-15.98655 7.32376,-18.24058 0.63088,-2.22463 1.18003,-4.83585 1.47752,-7.02594 1.73205,-12.75162 -1.67983,-24.89217 -8.58174,-30.53639 -1.99711,-1.63321 -1.01146,-1.19849 -19.87662,-8.76634 l -17.34896,-6.95962 -1.35964,-0.22581 c -2.99283,-0.49706 -6.12094,-0.20421 -9.5676,0.89574 -7.90002,2.52117 -16.09718,9.48309 -21.414545,18.18756 -1.871587,3.06377 -2.277698,3.95137 -5.620763,12.28496 -3.514625,8.7613 -3.547486,8.86471 -3.716942,11.68274 -0.320459,5.33007 1.862619,9.93804 5.696181,12.02326 1.064526,0.57908 3.624756,1.60073 5.226628,2.08526 z m 29.884951,1.10892 c 2.61288,0.35559 5.23924,-0.7384 7.08393,-2.95075 0.89445,-1.07272 1.53466,-2.73317 1.61641,-4.19243 0.12765,-2.2786 -0.53129,-4.20342 -1.97993,-5.78329 -1.00328,-1.09416 -1.67394,-1.56932 -2.92147,-2.06977 -3.35032,-1.34399 -7.09614,-0.25184 -9.25836,2.69937 -0.67631,0.92315 -1.4006,3.01802 -1.45103,4.197 -0.0775,1.81109 0.69889,4.09174 1.83098,5.37836 1.37108,1.55821 3.01877,2.44102 5.07944,2.72146 z m 45.8312,-60.04422 c 4.75785,1.04936 8.66298,1.27808 12.8232,0.75103 11.42771,-1.44773 21.25472,-8.16509 26.73523,-18.27512 1.10888,-2.04562 4.07497,-9.43547 4.67693,-11.65061 2.13617,-7.86972 1.58809,-15.796603 -1.60735,-23.246994 -3.11224,-7.256426 -8.19946,-12.914609 -15.22172,-16.930136 -1.35979,-0.777562 -2.78873,-1.36853 -20.12385,-8.322589 -14.63755,-5.87192 -18.94344,-7.560353 -19.97455,-7.832076 -7.93114,-2.090677 -15.80792,-1.533788 -23.22309,1.641858 -7.0636,3.025111 -12.72677,8.036711 -16.63197,14.718424 -1.58456,2.71118 -4.78641,10.6651 -5.46909,13.586123 -0.65795,2.815256 -0.97628,5.421379 -0.99101,8.11316 -0.0727,13.28214 7.29908,25.49508 19.0673,31.58923 0.5358,0.27753 9.45552,3.8959 19.82158,8.04093 16.93513,6.77185 18.97639,7.56484 20.11902,7.81699 z"
   id="path1583" /></svg>
