<?xml version="1.0" encoding="iso-8859-1"?>
<!-- Generator: Adobe Illustrator 19.0.0, SVG Export Plug-In . SVG Version: 6.00 Build 0)  -->
<svg version="1.1" id="Layer_1" xmlns="http://www.w3.org/2000/svg" xmlns:xlink="http://www.w3.org/1999/xlink" x="0px" y="0px"
	 viewBox="0 0 512 512" style="enable-background:new 0 0 512 512;" xml:space="preserve">
<g transform="translate(1 1)">
	<g>
		<path style="fill:#E2E3E5;" d="M365.933,272.067h-51.2c-5.12,0-8.533-3.413-8.533-8.533c0-5.12,3.413-8.533,8.533-8.533h51.2
			c5.12,0,8.533,3.413,8.533,8.533C374.467,268.653,371.053,272.067,365.933,272.067z"/>
		<path style="fill:#E2E3E5;" d="M212.333,272.067h-51.2c-5.12,0-8.533-3.413-8.533-8.533c0-5.12,3.413-8.533,8.533-8.533h51.2
			c5.12,0,8.533,3.413,8.533,8.533C220.867,268.653,217.453,272.067,212.333,272.067z"/>
		<path style="fill:#E2E3E5;" d="M263.533,220.867c-5.12,0-8.533-3.413-8.533-8.533v-51.2c0-5.12,3.413-8.533,8.533-8.533
			c5.12,0,8.533,3.413,8.533,8.533v51.2C272.067,217.453,268.653,220.867,263.533,220.867z"/>
		<path style="fill:#E2E3E5;" d="M263.533,374.467c-5.12,0-8.533-3.413-8.533-8.533v-51.2c0-5.12,3.413-8.533,8.533-8.533
			c5.12,0,8.533,3.413,8.533,8.533v51.2C272.067,371.053,268.653,374.467,263.533,374.467z"/>
	</g>
	<path style="fill:#CCCCCC;" d="M306.2,255c0,28.16-23.04,51.2-51.2,51.2s-51.2-23.04-51.2-51.2s23.04-51.2,51.2-51.2
		S306.2,226.84,306.2,255"/>
	<path style="fill:#E2E3E5;" d="M280.6,255c0,28.16-17.067,51.2-38.4,51.2s-38.4-23.04-38.4-51.2s17.067-51.2,38.4-51.2
		S280.6,226.84,280.6,255"/>
	<path style="fill:#FFFFFF;" d="M255,306.2c2.56,0,5.12,0,7.68-0.853C243.907,301.933,229.4,280.6,229.4,255
		s14.507-46.933,33.28-50.347c-2.56-0.853-5.12-0.853-7.68-0.853c-28.16,0-51.2,23.04-51.2,51.2S226.84,306.2,255,306.2"/>
	<g>
		<path style="fill:#E2E3E5;" d="M255,493.933c-127.147,0-230.4-103.253-230.4-230.4s103.253-230.4,230.4-230.4
			s230.4,103.253,230.4,230.4S382.147,493.933,255,493.933z M255,50.2c-117.76,0-213.333,95.573-213.333,213.333
			S137.24,476.867,255,476.867s213.333-95.573,213.333-213.333S372.76,50.2,255,50.2z"/>
		<path style="fill:#E2E3E5;" d="M58.733,272.067h-51.2c-5.12,0-8.533-3.413-8.533-8.533c0-5.12,3.413-8.533,8.533-8.533h51.2
			c5.12,0,8.533,3.413,8.533,8.533C67.267,268.653,63.853,272.067,58.733,272.067z"/>
		<path style="fill:#E2E3E5;" d="M502.467,272.067h-51.2c-5.12,0-8.533-3.413-8.533-8.533c0-5.12,3.413-8.533,8.533-8.533h51.2
			c5.12,0,8.533,3.413,8.533,8.533C511,268.653,507.587,272.067,502.467,272.067z"/>
		<path style="fill:#E2E3E5;" d="M255,75.8c-5.12,0-8.533-3.413-8.533-8.533v-51.2c0-5.12,3.413-8.533,8.533-8.533
			s8.533,3.413,8.533,8.533v51.2C263.533,72.387,260.12,75.8,255,75.8z"/>
	</g>
	<g>
		<path style="fill:#B6B6B6;" d="M255,485.4C127.853,485.4,24.6,382.147,24.6,255S127.853,24.6,255,24.6S485.4,127.853,485.4,255
			S382.147,485.4,255,485.4z M255,41.667C137.24,41.667,41.667,137.24,41.667,255S137.24,468.333,255,468.333
			S468.333,372.76,468.333,255S372.76,41.667,255,41.667z"/>
		<path style="fill:#B6B6B6;" d="M58.733,263.533h-51.2C2.413,263.533-1,260.12-1,255s3.413-8.533,8.533-8.533h51.2
			c5.12,0,8.533,3.413,8.533,8.533S63.853,263.533,58.733,263.533z"/>
		<path style="fill:#B6B6B6;" d="M502.467,263.533h-51.2c-5.12,0-8.533-3.413-8.533-8.533s3.413-8.533,8.533-8.533h51.2
			c5.12,0,8.533,3.413,8.533,8.533S507.587,263.533,502.467,263.533z"/>
		<path style="fill:#B6B6B6;" d="M357.4,263.533h-51.2c-5.12,0-8.533-3.413-8.533-8.533s3.413-8.533,8.533-8.533h51.2
			c5.12,0,8.533,3.413,8.533,8.533S362.52,263.533,357.4,263.533z"/>
		<path style="fill:#B6B6B6;" d="M203.8,263.533h-51.2c-5.12,0-8.533-3.413-8.533-8.533s3.413-8.533,8.533-8.533h51.2
			c5.12,0,8.533,3.413,8.533,8.533S208.92,263.533,203.8,263.533z"/>
		<path style="fill:#B6B6B6;" d="M255,511c-5.12,0-8.533-3.413-8.533-8.533v-51.2c0-5.12,3.413-8.533,8.533-8.533
			s8.533,3.413,8.533,8.533v51.2C263.533,507.587,260.12,511,255,511z"/>
		<path style="fill:#B6B6B6;" d="M255,67.267c-5.12,0-8.533-3.413-8.533-8.533v-51.2C246.467,2.413,249.88-1,255-1
			s8.533,3.413,8.533,8.533v51.2C263.533,63.853,260.12,67.267,255,67.267z"/>
		<path style="fill:#B6B6B6;" d="M255,212.333c-5.12,0-8.533-3.413-8.533-8.533v-51.2c0-5.12,3.413-8.533,8.533-8.533
			s8.533,3.413,8.533,8.533v51.2C263.533,208.92,260.12,212.333,255,212.333z"/>
		<path style="fill:#B6B6B6;" d="M255,365.933c-5.12,0-8.533-3.413-8.533-8.533v-51.2c0-5.12,3.413-8.533,8.533-8.533
			s8.533,3.413,8.533,8.533v51.2C263.533,362.52,260.12,365.933,255,365.933z"/>
		<path style="fill:#B6B6B6;" d="M255,314.733c-33.28,0-59.733-26.453-59.733-59.733S221.72,195.267,255,195.267
			S314.733,221.72,314.733,255S288.28,314.733,255,314.733z M255,212.333c-23.893,0-42.667,18.773-42.667,42.667
			s18.773,42.667,42.667,42.667s42.667-18.773,42.667-42.667S278.893,212.333,255,212.333z"/>
	</g>
</g>
<g>
</g>
<g>
</g>
<g>
</g>
<g>
</g>
<g>
</g>
<g>
</g>
<g>
</g>
<g>
</g>
<g>
</g>
<g>
</g>
<g>
</g>
<g>
</g>
<g>
</g>
<g>
</g>
<g>
</g>
</svg>
