<?xml version="1.0" ?><svg width="35px" height="35px" viewBox="0 0 35 35" data-name="Layer 2" id="e1c043b0-44b4-451c-80e1-98e21b9b3b3c" xmlns="http://www.w3.org/2000/svg"><path d="M26.887,34.75H8.113a3.345,3.345,0,0,1-3.532-2.86c0-.034,0-.068,0-.1V7.179a1.25,1.25,0,0,1,2.5,0V31.716a1.048,1.048,0,0,0,1.036.534H26.887a1.048,1.048,0,0,0,1.036-.534V6.962a1.25,1.25,0,0,1,2.5,0V31.789c0,.033,0,.067,0,.1A3.345,3.345,0,0,1,26.887,34.75Z"/><path d="M33.111,8.212H1.889a1.25,1.25,0,0,1,0-2.5H33.111a1.25,1.25,0,0,1,0,2.5Z"/><path d="M23.369,8.212a1.25,1.25,0,0,1-1.25-1.25V3.411a.654.654,0,0,0-.661-.661H13.542a.654.654,0,0,0-.661.661V6.962a1.25,1.25,0,0,1-2.5,0V3.411A3.165,3.165,0,0,1,13.542.25h7.916a3.165,3.165,0,0,1,3.161,3.161V6.962A1.25,1.25,0,0,1,23.369,8.212Z"/></svg>