<?xml version="1.0" encoding="UTF-8" standalone="no"?>
<svg
   xmlns:dc="http://purl.org/dc/elements/1.1/"
   xmlns:cc="http://creativecommons.org/ns#"
   xmlns:rdf="http://www.w3.org/1999/02/22-rdf-syntax-ns#"
   xmlns:svg="http://www.w3.org/2000/svg"
   xmlns="http://www.w3.org/2000/svg"
   xmlns:sodipodi="http://sodipodi.sourceforge.net/DTD/sodipodi-0.dtd"
   xmlns:inkscape="http://www.inkscape.org/namespaces/inkscape"
   inkscape:version="1.0 (4035a4fb49, 2020-05-01)"
   sodipodi:docname="info.svg"
   id="svg8"
   version="1.1"
   viewBox="0 0 135.46719 135.46666"
   height="135.46666mm"
   width="135.46719mm">
  <defs
     id="defs2" />
  <sodipodi:namedview
     inkscape:document-rotation="0"
     inkscape:window-maximized="1"
     inkscape:window-y="-8"
     inkscape:window-x="-8"
     inkscape:window-height="1017"
     inkscape:window-width="1920"
     fit-margin-bottom="0"
     fit-margin-right="0"
     fit-margin-left="0"
     fit-margin-top="0"
     showgrid="false"
     inkscape:current-layer="layer1"
     inkscape:document-units="mm"
     inkscape:cy="216.83728"
     inkscape:cx="365.24714"
     inkscape:zoom="1.5814456"
     inkscape:pageshadow="2"
     inkscape:pageopacity="0.0"
     borderopacity="1.0"
     bordercolor="#666666"
     pagecolor="#ffffff"
     id="base" />
  <metadata
     id="metadata5">
    <rdf:RDF>
      <cc:Work
         rdf:about="">
        <dc:format>image/svg+xml</dc:format>
        <dc:type
           rdf:resource="http://purl.org/dc/dcmitype/StillImage" />
        <dc:title />
      </cc:Work>
    </rdf:RDF>
  </metadata>
  <g
     transform="translate(-36.587831,-69.760715)"
     id="layer1"
     inkscape:groupmode="layer"
     inkscape:label="Layer 1">
    <g
       transform="matrix(1.0989088,0,0,1.0989088,-10.318303,-14.814716)"
       id="g8044">
      <g
         style="fill:#b3b3b3"
         id="g14"
         transform="matrix(0.23221866,0,0,0.23221866,44.873451,79.633571)">
        <g
           style="fill:#b3b3b3"
           id="g12">
          <path
             style="fill:#b3b3b3"
             inkscape:connector-curvature="0"
             d="M 437.019,74.981 C 388.667,26.629 324.38,0 256,0 196.696,0 138.885,20.747 93.213,58.417 c -3.672,3.027 -4.193,8.458 -1.165,12.129 3.029,3.672 8.461,4.191 12.13,1.164 C 146.77,36.58 200.688,17.232 256,17.232 c 131.657,0 238.767,107.11 238.766,238.768 0,59.105 -21.769,115.828 -61.299,159.722 -3.183,3.536 -2.899,8.984 0.638,12.168 1.647,1.483 3.708,2.214 5.764,2.214 2.356,0 4.704,-0.962 6.405,-2.851 42.385,-47.062 65.727,-107.882 65.727,-171.254 -0.002,-68.379 -26.63,-132.666 -74.982,-181.018 z"
             id="path10" />
        </g>
      </g>
      <g
         style="fill:#b3b3b3"
         id="g20"
         transform="matrix(0.23221866,0,0,0.23221866,44.873451,79.633571)">
        <g
           style="fill:#b3b3b3"
           id="g18">
          <path
             style="fill:#b3b3b3"
             inkscape:connector-curvature="0"
             d="m 421.677,439.89 c -3.063,-3.642 -8.497,-4.114 -12.14,-1.051 -42.901,36.065 -97.429,55.927 -153.538,55.927 -131.657,0 -238.767,-107.11 -238.767,-238.767 0,-59.932 22.307,-117.247 62.813,-161.384 3.218,-3.506 2.985,-8.956 -0.522,-12.174 -3.507,-3.218 -8.959,-2.982 -12.174,0.523 -43.432,47.325 -67.35,108.777 -67.35,173.036 0,68.381 26.629,132.668 74.981,181.02 C 123.333,485.371 187.621,512 256,512 c 60.16,0 118.625,-21.297 164.626,-59.97 3.643,-3.062 4.113,-8.497 1.051,-12.14 z"
             id="path16" />
        </g>
      </g>
      <g
         style="fill:#999999"
         id="g26"
         transform="matrix(0.23221866,0,0,0.23221866,44.873451,79.633571)">
        <g
           style="fill:#999999"
           id="g24">
          <path
             style="fill:#999999"
             inkscape:connector-curvature="0"
             d="m 289.368,189.061 h -66.735 c -4.76,0 -8.616,3.858 -8.616,8.616 v 225.799 c 0,4.758 3.857,8.616 8.616,8.616 h 66.735 c 4.76,0 8.616,-3.858 8.616,-8.617 V 197.677 c 0,-4.759 -3.857,-8.616 -8.616,-8.616 z M 280.753,414.86 H 231.25 V 206.293 h 49.503 z"
             id="path22" />
        </g>
      </g>
      <g
         style="fill:#999999"
         id="g32"
         transform="matrix(0.23221866,0,0,0.23221866,44.873451,79.633571)">
        <g
           style="fill:#999999"
           id="g30">
          <path
             style="fill:#999999"
             inkscape:connector-curvature="0"
             d="m 256,78.701 c -26.429,0 -47.93,21.502 -47.93,47.93 0,26.429 21.501,47.93 47.93,47.93 26.429,0 47.93,-21.502 47.93,-47.93 0,-26.429 -21.501,-47.93 -47.93,-47.93 z m 0,78.628 c -16.927,0 -30.698,-13.771 -30.698,-30.698 0,-16.927 13.772,-30.698 30.698,-30.698 16.927,0 30.698,13.771 30.698,30.698 0,16.927 -13.771,30.698 -30.698,30.698 z"
             id="path28" />
        </g>
      </g>
    </g>
    <g
       transform="matrix(0.25067907,0,0,0.25067907,40.147586,74.991839)"
       id="g34"
       style="fill:#b3b3b3" />
    <g
       transform="matrix(0.25067907,0,0,0.25067907,40.147586,74.991839)"
       id="g36"
       style="fill:#b3b3b3" />
    <g
       transform="matrix(0.25067907,0,0,0.25067907,40.147586,74.991839)"
       id="g38"
       style="fill:#b3b3b3" />
    <g
       transform="matrix(0.25067907,0,0,0.25067907,40.147586,74.991839)"
       id="g40"
       style="fill:#b3b3b3" />
    <g
       transform="matrix(0.25067907,0,0,0.25067907,40.147586,74.991839)"
       id="g42"
       style="fill:#b3b3b3" />
    <g
       transform="matrix(0.25067907,0,0,0.25067907,40.147586,74.991839)"
       id="g44"
       style="fill:#b3b3b3" />
    <g
       transform="matrix(0.25067907,0,0,0.25067907,40.147586,74.991839)"
       id="g46"
       style="fill:#b3b3b3" />
    <g
       transform="matrix(0.25067907,0,0,0.25067907,40.147586,74.991839)"
       id="g48"
       style="fill:#b3b3b3" />
    <g
       transform="matrix(0.25067907,0,0,0.25067907,40.147586,74.991839)"
       id="g50"
       style="fill:#b3b3b3" />
    <g
       transform="matrix(0.25067907,0,0,0.25067907,40.147586,74.991839)"
       id="g52"
       style="fill:#b3b3b3" />
    <g
       transform="matrix(0.25067907,0,0,0.25067907,40.147586,74.991839)"
       id="g54"
       style="fill:#b3b3b3" />
    <g
       transform="matrix(0.25067907,0,0,0.25067907,40.147586,74.991839)"
       id="g56"
       style="fill:#b3b3b3" />
    <g
       transform="matrix(0.25067907,0,0,0.25067907,40.147586,74.991839)"
       id="g58"
       style="fill:#b3b3b3" />
    <g
       transform="matrix(0.25067907,0,0,0.25067907,40.147586,74.991839)"
       id="g60"
       style="fill:#b3b3b3" />
    <g
       transform="matrix(0.25067907,0,0,0.25067907,40.147586,74.991839)"
       id="g62"
       style="fill:#b3b3b3" />
  </g>
</svg>
