<?xml version="1.0" encoding="UTF-8" standalone="no"?>
<!-- Created with Inkscape (http://www.inkscape.org/) -->

<svg
   xmlns:dc="http://purl.org/dc/elements/1.1/"
   xmlns:cc="http://creativecommons.org/ns#"
   xmlns:rdf="http://www.w3.org/1999/02/22-rdf-syntax-ns#"
   xmlns:svg="http://www.w3.org/2000/svg"
   xmlns="http://www.w3.org/2000/svg"
   xmlns:sodipodi="http://sodipodi.sourceforge.net/DTD/sodipodi-0.dtd"
   xmlns:inkscape="http://www.inkscape.org/namespaces/inkscape"
   width="135.46719mm"
   height="135.46666mm"
   viewBox="0 0 135.46719 135.46666"
   version="1.1"
   id="svg8"
   sodipodi:docname="info.svg"
   inkscape:version="0.92.1 r15371">
  <defs
     id="defs2">
	
	
	
	
	
	

		
		
		
		
		
		
		
		
		
		
	















	
	
	
	
	
	

		
		
		
		
		
		
		
		
		
		
	
		
		
		
		
	
		
		
		
		
	</defs>
  <sodipodi:namedview
     id="base"
     pagecolor="#ffffff"
     bordercolor="#666666"
     borderopacity="1.0"
     inkscape:pageopacity="0.0"
     inkscape:pageshadow="2"
     inkscape:zoom="0.98994949"
     inkscape:cx="441.07326"
     inkscape:cy="192.93308"
     inkscape:document-units="mm"
     inkscape:current-layer="layer1"
     showgrid="false"
     fit-margin-top="0"
     fit-margin-left="0"
     fit-margin-right="0"
     fit-margin-bottom="0"
     inkscape:window-width="1920"
     inkscape:window-height="1017"
     inkscape:window-x="1912"
     inkscape:window-y="-8"
     inkscape:window-maximized="1" />
  <metadata
     id="metadata5">
    <rdf:RDF>
      <cc:Work
         rdf:about="">
        <dc:format>image/svg+xml</dc:format>
        <dc:type
           rdf:resource="http://purl.org/dc/dcmitype/StillImage" />
        <dc:title></dc:title>
      </cc:Work>
    </rdf:RDF>
  </metadata>
  <g
     inkscape:label="Layer 1"
     inkscape:groupmode="layer"
     id="layer1"
     transform="translate(-36.587831,-69.760715)">
    <g
       id="g8044"
       transform="matrix(1.0989088,0,0,1.0989088,-10.318303,-14.814716)">
      <g
         transform="matrix(0.23221866,0,0,0.23221866,44.873451,79.633571)"
         id="g14"
         style="fill:#b3b3b3">
	<g
   id="g12"
   style="fill:#b3b3b3">
		<path
   id="path10"
   d="M 437.019,74.981 C 388.667,26.629 324.38,0 256,0 196.696,0 138.885,20.747 93.213,58.417 c -3.672,3.027 -4.193,8.458 -1.165,12.129 3.029,3.672 8.461,4.191 12.13,1.164 C 146.77,36.58 200.688,17.232 256,17.232 c 131.657,0 238.767,107.11 238.766,238.768 0,59.105 -21.769,115.828 -61.299,159.722 -3.183,3.536 -2.899,8.984 0.638,12.168 1.647,1.483 3.708,2.214 5.764,2.214 2.356,0 4.704,-0.962 6.405,-2.851 42.385,-47.062 65.727,-107.882 65.727,-171.254 -0.002,-68.379 -26.63,-132.666 -74.982,-181.018 z"
   inkscape:connector-curvature="0"
   style="fill:#b3b3b3" />

	</g>

</g>
      <g
         transform="matrix(0.23221866,0,0,0.23221866,44.873451,79.633571)"
         id="g20"
         style="fill:#b3b3b3">
	<g
   id="g18"
   style="fill:#b3b3b3">
		<path
   id="path16"
   d="m 421.677,439.89 c -3.063,-3.642 -8.497,-4.114 -12.14,-1.051 -42.901,36.065 -97.429,55.927 -153.538,55.927 -131.657,0 -238.767,-107.11 -238.767,-238.767 0,-59.932 22.307,-117.247 62.813,-161.384 3.218,-3.506 2.985,-8.956 -0.522,-12.174 -3.507,-3.218 -8.959,-2.982 -12.174,0.523 -43.432,47.325 -67.35,108.777 -67.35,173.036 0,68.381 26.629,132.668 74.981,181.02 C 123.333,485.371 187.621,512 256,512 c 60.16,0 118.625,-21.297 164.626,-59.97 3.643,-3.062 4.113,-8.497 1.051,-12.14 z"
   inkscape:connector-curvature="0"
   style="fill:#b3b3b3" />

	</g>

</g>
      <g
         transform="matrix(0.23221866,0,0,0.23221866,44.873451,79.633571)"
         id="g26"
         style="fill:#999999">
	<g
   id="g24"
   style="fill:#999999">
		<path
   id="path22"
   d="m 289.368,189.061 h -66.735 c -4.76,0 -8.616,3.858 -8.616,8.616 v 225.799 c 0,4.758 3.857,8.616 8.616,8.616 h 66.735 c 4.76,0 8.616,-3.858 8.616,-8.617 V 197.677 c 0,-4.759 -3.857,-8.616 -8.616,-8.616 z M 280.753,414.86 H 231.25 V 206.293 h 49.503 z"
   inkscape:connector-curvature="0"
   style="fill:#999999" />

	</g>

</g>
      <g
         transform="matrix(0.23221866,0,0,0.23221866,44.873451,79.633571)"
         id="g32"
         style="fill:#999999">
	<g
   id="g30"
   style="fill:#999999">
		<path
   id="path28"
   d="m 256,78.701 c -26.429,0 -47.93,21.502 -47.93,47.93 0,26.429 21.501,47.93 47.93,47.93 26.429,0 47.93,-21.502 47.93,-47.93 0,-26.429 -21.501,-47.93 -47.93,-47.93 z m 0,78.628 c -16.927,0 -30.698,-13.771 -30.698,-30.698 0,-16.927 13.772,-30.698 30.698,-30.698 16.927,0 30.698,13.771 30.698,30.698 0,16.927 -13.771,30.698 -30.698,30.698 z"
   inkscape:connector-curvature="0"
   style="fill:#999999" />

	</g>

</g>
    </g>
    <g
       style="fill:#b3b3b3"
       id="g34"
       transform="matrix(0.25067907,0,0,0.25067907,40.147586,74.991839)">
</g>
    <g
       style="fill:#b3b3b3"
       id="g36"
       transform="matrix(0.25067907,0,0,0.25067907,40.147586,74.991839)">
</g>
    <g
       style="fill:#b3b3b3"
       id="g38"
       transform="matrix(0.25067907,0,0,0.25067907,40.147586,74.991839)">
</g>
    <g
       style="fill:#b3b3b3"
       id="g40"
       transform="matrix(0.25067907,0,0,0.25067907,40.147586,74.991839)">
</g>
    <g
       style="fill:#b3b3b3"
       id="g42"
       transform="matrix(0.25067907,0,0,0.25067907,40.147586,74.991839)">
</g>
    <g
       style="fill:#b3b3b3"
       id="g44"
       transform="matrix(0.25067907,0,0,0.25067907,40.147586,74.991839)">
</g>
    <g
       style="fill:#b3b3b3"
       id="g46"
       transform="matrix(0.25067907,0,0,0.25067907,40.147586,74.991839)">
</g>
    <g
       style="fill:#b3b3b3"
       id="g48"
       transform="matrix(0.25067907,0,0,0.25067907,40.147586,74.991839)">
</g>
    <g
       style="fill:#b3b3b3"
       id="g50"
       transform="matrix(0.25067907,0,0,0.25067907,40.147586,74.991839)">
</g>
    <g
       style="fill:#b3b3b3"
       id="g52"
       transform="matrix(0.25067907,0,0,0.25067907,40.147586,74.991839)">
</g>
    <g
       style="fill:#b3b3b3"
       id="g54"
       transform="matrix(0.25067907,0,0,0.25067907,40.147586,74.991839)">
</g>
    <g
       style="fill:#b3b3b3"
       id="g56"
       transform="matrix(0.25067907,0,0,0.25067907,40.147586,74.991839)">
</g>
    <g
       style="fill:#b3b3b3"
       id="g58"
       transform="matrix(0.25067907,0,0,0.25067907,40.147586,74.991839)">
</g>
    <g
       style="fill:#b3b3b3"
       id="g60"
       transform="matrix(0.25067907,0,0,0.25067907,40.147586,74.991839)">
</g>
    <g
       style="fill:#b3b3b3"
       id="g62"
       transform="matrix(0.25067907,0,0,0.25067907,40.147586,74.991839)">
</g>
    <path
       id="path8056"
       d="m 114.74089,104.83538 c 0,5.7307 -4.68875,10.41946 -10.41946,10.41946 -5.730696,0 -10.419449,-4.68876 -10.419449,-10.41946 0,-5.730693 4.688753,-10.419452 10.419449,-10.419452 5.73071,0 10.41946,4.688759 10.41946,10.419452"
       style="fill:#cccccc;stroke-width:0.20350489"
       inkscape:connector-curvature="0" />
    <path
       id="path8058"
       d="m 109.53115,104.83538 c 0,5.7307 -3.47321,10.41946 -7.81459,10.41946 -4.341355,0 -7.814579,-4.68876 -7.814579,-10.41946 0,-5.730693 3.473224,-10.419452 7.814579,-10.419452 4.34138,0 7.81459,4.688759 7.81459,10.419452"
       style="fill:#e2e3e5;stroke-width:0.20350489"
       inkscape:connector-curvature="0" />
    <path
       id="path8060"
       d="m 104.32143,115.25484 c 0.52096,0 1.04195,0 1.56293,-0.17358 -3.82042,-0.69478 -6.772655,-5.03615 -6.772655,-10.24588 0,-5.209728 2.952235,-9.551093 6.772655,-10.245861 -0.52098,-0.173591 -1.04197,-0.173591 -1.56293,-0.173591 -5.730696,0 -10.419449,4.688759 -10.419449,10.419452 0,5.7307 4.688753,10.41946 10.419449,10.41946"
       style="fill:#ffffff;stroke-width:0.20350489"
       inkscape:connector-curvature="0" />
    <path
       inkscape:connector-curvature="0"
       style="fill:#999999;stroke-width:0.20350489"
       d="m 104.32143,116.99135 c -6.772635,0 -12.155956,-5.38332 -12.155956,-12.15597 0,-6.772633 5.383321,-12.155959 12.155956,-12.155959 6.77265,0 12.15596,5.383326 12.15596,12.155959 0,6.77265 -5.38331,12.15597 -12.15596,12.15597 z m 0,-20.838912 c -4.862343,0 -8.682941,3.820401 -8.682941,8.682942 0,4.86255 3.820405,8.68296 8.682941,8.68296 4.86255,0 8.68295,-3.82041 8.68295,-8.68296 0,-4.862541 -3.8206,-8.682942 -8.68295,-8.682942 z"
       id="path8090" />
  </g>
</svg>
