<?xml version="1.0" encoding="iso-8859-1"?>
<!-- Generator: Adobe Illustrator 19.0.0, SVG Export Plug-In . SVG Version: 6.00 Build 0)  -->
<svg version="1.1" id="Layer_1" xmlns="http://www.w3.org/2000/svg" xmlns:xlink="http://www.w3.org/1999/xlink" x="0px" y="0px"
	 viewBox="0 0 512 512" style="enable-background:new 0 0 512 512;" xml:space="preserve">
<path style="fill:#898890;" d="M338.757,263.731c55.614,0,100.859,45.245,100.859,100.859S394.371,465.45,338.757,465.45H173.243
	c-55.614,0-100.859-45.245-100.859-100.859s45.245-100.859,100.859-100.859h59.482v-46.55h-59.482
	c-81.282,0-147.41,66.128-147.41,147.41S91.961,512,173.243,512h165.515c81.282,0,147.41-66.128,147.41-147.41
	s-66.128-147.41-147.41-147.41h-59.482v46.55H338.757z"/>
<path style="fill:#57565C;" d="M232.725,263.731V364.59c0,12.854,10.421,23.275,23.275,23.275c12.854,0,23.275-10.421,23.275-23.275
	V263.731v-46.55v-49.776c-7.403,2.103-15.206,3.254-23.275,3.254s-15.872-1.15-23.275-3.254v49.776V263.731z"/>
<path style="fill:#FF6243;" d="M256,0c-47.05,0-85.328,38.278-85.328,85.328c0,38.981,26.284,71.917,62.053,82.076
	c7.403,2.103,15.206,3.254,23.275,3.254s15.872-1.15,23.275-3.254c35.769-10.159,62.053-43.095,62.053-82.076
	C341.33,38.278,303.052,0,256,0z"/>
<path style="fill:#FF0C38;" d="M170.672,85.328c0,38.981,26.284,71.917,62.053,82.076c7.403,2.103,15.206,3.254,23.275,3.254V0
	C208.95,0,170.672,38.278,170.672,85.328z"/>
<g>
</g>
<g>
</g>
<g>
</g>
<g>
</g>
<g>
</g>
<g>
</g>
<g>
</g>
<g>
</g>
<g>
</g>
<g>
</g>
<g>
</g>
<g>
</g>
<g>
</g>
<g>
</g>
<g>
</g>
</svg>
