<?xml version="1.0" encoding="UTF-8" standalone="no"?>
<!-- Generator: Adobe Illustrator 19.0.0, SVG Export Plug-In . SVG Version: 6.00 Build 0)  -->

<svg
   version="1.1"
   id="Layer_1"
   x="0px"
   y="0px"
   viewBox="0 0 512 512"
   style="enable-background:new 0 0 512 512;"
   xml:space="preserve"
   sodipodi:docname="beach-svgrepo-com.svg"
   inkscape:version="1.2.1 (9c6d41e410, 2022-07-14, custom)"
   xmlns:inkscape="http://www.inkscape.org/namespaces/inkscape"
   xmlns:sodipodi="http://sodipodi.sourceforge.net/DTD/sodipodi-0.dtd"
   xmlns="http://www.w3.org/2000/svg"
   xmlns:svg="http://www.w3.org/2000/svg"><defs
   id="defs65" /><sodipodi:namedview
   id="namedview63"
   pagecolor="#ffffff"
   bordercolor="#000000"
   borderopacity="0.25"
   inkscape:showpageshadow="2"
   inkscape:pageopacity="0.0"
   inkscape:pagecheckerboard="0"
   inkscape:deskcolor="#d1d1d1"
   showgrid="false"
   inkscape:zoom="1.0199519"
   inkscape:cx="26.962057"
   inkscape:cy="270.60101"
   inkscape:window-width="1920"
   inkscape:window-height="1021"
   inkscape:window-x="0"
   inkscape:window-y="30"
   inkscape:window-maximized="1"
   inkscape:current-layer="Layer_1" />
<g
   id="g6"
   style="fill:#e2e2e2;fill-opacity:1"
   transform="matrix(0.84667333,0,0,0.84667333,39.251644,39.251628)">
	<g
   id="g4"
   style="fill:#e2e2e2;fill-opacity:1">
		<path
   d="m 503.551,433.614 c -9.492,0 -13.77,-2.103 -19.186,-4.765 -6.196,-3.047 -13.22,-6.5 -26.642,-6.5 -13.429,0 -20.455,3.453 -26.653,6.5 -5.417,2.662 -9.694,4.765 -19.186,4.765 -9.494,0 -13.771,-2.103 -19.186,-4.766 -6.195,-3.046 -13.216,-6.499 -26.631,-6.499 -13.422,0 -20.445,3.453 -26.642,6.5 -5.417,2.663 -9.694,4.765 -19.186,4.765 -9.503,0 -13.774,-2.102 -19.184,-4.764 -4.186,-2.059 -9.25,-0.336 -11.312,3.851 -2.059,4.186 -0.337,9.25 3.851,11.311 6.193,3.047 13.21,6.501 26.645,6.501 13.422,0 20.445,-3.453 26.642,-6.5 5.417,-2.663 9.694,-4.765 19.186,-4.765 9.484,0 13.761,2.102 19.174,4.764 6.197,3.047 13.22,6.501 26.644,6.501 13.42,0 20.444,-3.452 26.64,-6.498 5.42,-2.663 9.7,-4.768 19.199,-4.768 9.492,0 13.77,2.103 19.186,4.765 6.196,3.047 13.22,6.5 26.642,6.5 4.666,0 8.449,-3.783 8.449,-8.449 0,-4.666 -3.784,-8.449 -8.45,-8.449 z"
   id="path2"
   style="fill:#e2e2e2;fill-opacity:1" />
	</g>
</g>
<g
   id="g12"
   style="fill:#e2e2e2;fill-opacity:1"
   transform="matrix(0.84667333,0,0,0.84667333,39.251644,39.251628)">
	<g
   id="g10"
   style="fill:#e2e2e2;fill-opacity:1">
		<path
   d="m 405.901,35.015 c -35.873,0 -65.057,29.183 -65.057,65.055 0.001,35.872 29.185,65.057 65.057,65.057 35.872,0 65.057,-29.184 65.057,-65.057 -0.001,-35.872 -29.184,-65.055 -65.057,-65.055 z m 0,113.213 c -26.555,0 -48.158,-21.603 -48.158,-48.158 0.001,-26.554 21.604,-48.157 48.158,-48.157 26.554,0 48.158,21.603 48.158,48.157 0,26.554 -21.603,48.158 -48.158,48.158 z"
   id="path8"
   style="fill:#e2e2e2;fill-opacity:1" />
	</g>
</g>
<g
   id="g18"
   style="fill:#e2e2e2;fill-opacity:1"
   transform="matrix(0.84667333,0,0,0.84667333,39.251644,39.251628)">
	<g
   id="g16"
   style="fill:#e2e2e2;fill-opacity:1">
		<path
   d="M 503.55,460.087 H 8.452 c -4.666,0 -8.449,3.783 -8.449,8.449 0,4.666 3.783,8.449 8.449,8.449 H 503.55 c 4.666,0 8.449,-3.783 8.449,-8.449 0,-4.666 -3.783,-8.449 -8.449,-8.449 z"
   id="path14"
   style="fill:#e2e2e2;fill-opacity:1" />
	</g>
</g>
<g
   id="g24"
   style="fill:#e2e2e2;fill-opacity:1"
   transform="matrix(0.84667333,0,0,0.84667333,39.251644,39.251628)">
	<g
   id="g22"
   style="fill:#e2e2e2;fill-opacity:1">
		<path
   d="m 267.649,427.981 h -32.488 l -4.579,-12.392 h 23.91 c 4.666,0 8.449,-3.783 8.449,-8.449 0,-4.666 -3.783,-8.449 -8.449,-8.449 h -30.155 l -6.982,-18.893 c -1.226,-3.317 -4.389,-5.52 -7.925,-5.52 h -50.695 c -3.537,0 -6.7,2.204 -7.925,5.52 l -6.982,18.893 H 131.516 L 105.88,363.14 c -2.729,-3.784 -8.011,-4.641 -11.795,-1.912 -3.785,2.73 -4.64,8.01 -1.912,11.795 l 28.164,39.058 c 1.589,2.202 4.138,3.507 6.853,3.507 h 10.391 l -4.579,12.392 H 61.555 l 47.687,-147.451 87.314,28.366 c 0.851,0.277 1.733,0.413 2.61,0.413 1.321,0 2.637,-0.31 3.836,-0.92 1.996,-1.017 3.507,-2.787 4.2,-4.917 8.972,-27.618 6.652,-57.076 -6.532,-82.949 -11.896,-23.345 -31.37,-41.221 -55.347,-51.087 l 6.201,-19.087 c 1.442,-4.438 -0.987,-9.204 -5.424,-10.646 -4.438,-1.443 -9.205,0.987 -10.646,5.424 l -6.192,19.059 c -25.198,-6.11 -51.466,-3.064 -74.813,8.833 -25.873,13.185 -45.062,35.656 -54.034,63.273 -1.442,4.439 0.987,9.205 5.424,10.647 l 87.33,28.371 -49.374,152.672 H 8.452 c -4.666,0 -8.449,3.783 -8.449,8.449 0,4.666 3.783,8.449 8.449,8.449 H 267.65 c 4.666,0 8.449,-3.783 8.449,-8.449 -10e-4,-4.666 -3.783,-8.449 -8.45,-8.449 z m -103.9,-216.744 c -0.453,-4.519 -1.149,-8.748 -2.078,-12.67 9.847,7.983 18.016,17.996 23.944,29.628 9.846,19.323 12.518,41.012 7.765,61.902 l -37.179,-12.078 c 6.82,-23.822 9.504,-47.268 7.548,-66.782 z m -144.29,22.359 c 8.432,-19.695 23.341,-35.673 42.663,-45.519 11.633,-5.928 24.126,-9.228 36.784,-9.9 -3.056,2.627 -6.106,5.64 -9.127,9.029 -13.051,14.64 -24.659,35.186 -33.141,58.467 z m 53.256,17.3 c 7.73,-21.063 18.116,-39.476 29.679,-52.445 11.066,-12.415 22.204,-18.355 29.783,-15.891 7.582,2.463 13.1,13.813 14.758,30.361 1.733,17.289 -0.686,38.291 -6.81,59.874 z m 91.905,140.281 h 38.925 l 2.777,7.514 h -44.479 z m -13.602,36.804 4.579,-12.392 h 56.969 l 4.58,12.392 z"
   id="path20"
   style="fill:#e2e2e2;fill-opacity:1" />
	</g>
</g>
<g
   id="g30"
   style="fill:#e2e2e2;fill-opacity:1"
   transform="matrix(0.84667333,0,0,0.84667333,39.251644,39.251628)">
	<g
   id="g28"
   style="fill:#e2e2e2;fill-opacity:1">
		<path
   d="m 481.584,194.401 c -12.303,0 -23.289,5.747 -30.416,14.696 -7.127,-8.949 -18.113,-14.696 -30.416,-14.696 -4.666,0 -8.449,3.783 -8.449,8.449 0,4.666 3.783,8.449 8.449,8.449 12.112,0 21.967,9.854 21.967,21.967 0,4.666 3.783,8.449 8.449,8.449 4.666,0 8.449,-3.783 8.449,-8.449 0,-12.112 9.854,-21.967 21.967,-21.967 4.666,0 8.449,-3.783 8.449,-8.449 0,-4.666 -3.783,-8.449 -8.449,-8.449 z"
   id="path26"
   style="fill:#e2e2e2;fill-opacity:1" />
	</g>
</g>
<g
   id="g32"
   style="fill:#e2e2e2;fill-opacity:1"
   transform="matrix(0.84667333,0,0,0.84667333,39.251644,39.251628)">
</g>
<g
   id="g34"
   style="fill:#e2e2e2;fill-opacity:1"
   transform="matrix(0.84667333,0,0,0.84667333,39.251644,39.251628)">
</g>
<g
   id="g36"
   style="fill:#e2e2e2;fill-opacity:1"
   transform="matrix(0.84667333,0,0,0.84667333,39.251644,39.251628)">
</g>
<g
   id="g38"
   style="fill:#e2e2e2;fill-opacity:1"
   transform="matrix(0.84667333,0,0,0.84667333,39.251644,39.251628)">
</g>
<g
   id="g40"
   style="fill:#e2e2e2;fill-opacity:1"
   transform="matrix(0.84667333,0,0,0.84667333,39.251644,39.251628)">
</g>
<g
   id="g42"
   style="fill:#e2e2e2;fill-opacity:1"
   transform="matrix(0.84667333,0,0,0.84667333,39.251644,39.251628)">
</g>
<g
   id="g44"
   style="fill:#e2e2e2;fill-opacity:1"
   transform="matrix(0.84667333,0,0,0.84667333,39.251644,39.251628)">
</g>
<g
   id="g46"
   style="fill:#e2e2e2;fill-opacity:1"
   transform="matrix(0.84667333,0,0,0.84667333,39.251644,39.251628)">
</g>
<g
   id="g48"
   style="fill:#e2e2e2;fill-opacity:1"
   transform="matrix(0.84667333,0,0,0.84667333,39.251644,39.251628)">
</g>
<g
   id="g50"
   style="fill:#e2e2e2;fill-opacity:1"
   transform="matrix(0.84667333,0,0,0.84667333,39.251644,39.251628)">
</g>
<g
   id="g52"
   style="fill:#e2e2e2;fill-opacity:1"
   transform="matrix(0.84667333,0,0,0.84667333,39.251644,39.251628)">
</g>
<g
   id="g54"
   style="fill:#e2e2e2;fill-opacity:1"
   transform="matrix(0.84667333,0,0,0.84667333,39.251644,39.251628)">
</g>
<g
   id="g56"
   style="fill:#e2e2e2;fill-opacity:1"
   transform="matrix(0.84667333,0,0,0.84667333,39.251644,39.251628)">
</g>
<g
   id="g58"
   style="fill:#e2e2e2;fill-opacity:1"
   transform="matrix(0.84667333,0,0,0.84667333,39.251644,39.251628)">
</g>
<g
   id="g60"
   style="fill:#e2e2e2;fill-opacity:1"
   transform="matrix(0.84667333,0,0,0.84667333,39.251644,39.251628)">
</g>
</svg>
