<?xml version="1.0" encoding="UTF-8" standalone="no"?>
<!-- Generator: Adobe Illustrator 19.0.0, SVG Export Plug-In . SVG Version: 6.00 Build 0)  -->

<svg
   version="1.1"
   id="Layer_1"
   x="0px"
   y="0px"
   viewBox="0 0 502 502"
   style="enable-background:new 0 0 502 502;"
   xml:space="preserve"
   width="512"
   height="512"
   sodipodi:docname="bench.svg"
   inkscape:version="1.2.1 (9c6d41e410, 2022-07-14, custom)"
   xmlns:inkscape="http://www.inkscape.org/namespaces/inkscape"
   xmlns:sodipodi="http://sodipodi.sourceforge.net/DTD/sodipodi-0.dtd"
   xmlns="http://www.w3.org/2000/svg"
   xmlns:svg="http://www.w3.org/2000/svg"><defs
   id="defs21">
	
	
	

		
		
	</defs><sodipodi:namedview
   id="namedview19"
   pagecolor="#ffffff"
   bordercolor="#000000"
   borderopacity="0.25"
   inkscape:showpageshadow="2"
   inkscape:pageopacity="0.0"
   inkscape:pagecheckerboard="0"
   inkscape:deskcolor="#d1d1d1"
   showgrid="false"
   inkscape:zoom="1.6425781"
   inkscape:cx="256"
   inkscape:cy="255.6956"
   inkscape:window-width="1920"
   inkscape:window-height="1021"
   inkscape:window-x="0"
   inkscape:window-y="30"
   inkscape:window-maximized="1"
   inkscape:current-layer="Layer_1" />
<g
   id="g872"
   style="fill:#e2e2e2;fill-opacity:1"
   transform="matrix(0.89664114,0,0,0.89664114,25.943075,25.943075)"><g
     id="g12"
     style="fill:#e2e2e2;fill-opacity:1">
			<path
   d="m 405,430 c -5.522,0 -10,4.478 -10,10 v 6 c 0,5.522 4.478,10 10,10 5.522,0 10,-4.478 10,-10 v -6 c 0,-5.522 -4.478,-10 -10,-10 z"
   id="path8"
   style="fill:#e2e2e2;fill-opacity:1" />
			<path
   d="m 492,144.179 c 5.522,0 10,-4.478 10,-10 V 76.821 c 0,-5.522 -4.478,-10 -10,-10 H 415 V 56 c 0,-5.522 -4.478,-10 -10,-10 -5.522,0 -10,4.478 -10,10 V 66.821 H 107 V 56 C 107,50.478 102.522,46 97,46 91.478,46 87,50.478 87,56 V 66.821 H 10 c -5.522,0 -10,4.478 -10,10 v 57.357 c 0,5.522 4.478,10 10,10 h 77 v 16.464 H 10 c -5.522,0 -10,4.478 -10,10 V 228 c 0,5.522 4.478,10 10,10 h 77 v 17 c 0,5.522 4.478,10 10,10 5.522,0 10,-4.478 10,-10 v -17 h 288 v 38.643 H 10 c -5.522,0 -10,4.478 -10,10 V 322 c 0,5.522 4.478,10 10,10 h 77 v 114 c 0,5.522 4.478,10 10,10 5.522,0 10,-4.478 10,-10 V 332 h 288 v 75 c 0,5.522 4.478,10 10,10 5.522,0 10,-4.478 10,-10 v -75 h 77 c 5.522,0 10,-4.478 10,-10 v -35.357 c 0,-5.522 -4.478,-10 -10,-10 H 415 V 238 h 77 c 5.522,0 10,-4.478 10,-10 v -57.357 c 0,-5.522 -4.478,-10 -10,-10 H 415 V 144.179 Z M 482,312 H 20 V 296.643 H 482 Z M 20,86.821 h 462 v 37.357 H 20 Z M 482,218 H 20 V 180.643 H 482 Z M 395,160.643 H 107 v -16.464 h 288 z"
   id="path10"
   style="fill:#e2e2e2;fill-opacity:1" />
		</g></g>















</svg>
