<?xml version="1.0" encoding="UTF-8" standalone="no"?>
<!-- Generator: Adobe Illustrator 19.0.0, SVG Export Plug-In . SVG Version: 6.00 Build 0)  -->

<svg
   version="1.1"
   id="Layer_1"
   x="0px"
   y="0px"
   viewBox="0 0 512 512"
   style="enable-background:new 0 0 512 512;"
   xml:space="preserve"
   sodipodi:docname="bio.svg"
   inkscape:version="1.2.1 (9c6d41e410, 2022-07-14, custom)"
   xmlns:inkscape="http://www.inkscape.org/namespaces/inkscape"
   xmlns:sodipodi="http://sodipodi.sourceforge.net/DTD/sodipodi-0.dtd"
   xmlns="http://www.w3.org/2000/svg"
   xmlns:svg="http://www.w3.org/2000/svg"><defs
   id="defs59" /><sodipodi:namedview
   id="namedview57"
   pagecolor="#ffffff"
   bordercolor="#000000"
   borderopacity="0.25"
   inkscape:showpageshadow="2"
   inkscape:pageopacity="0.0"
   inkscape:pagecheckerboard="0"
   inkscape:deskcolor="#d1d1d1"
   showgrid="false"
   inkscape:zoom="0.79880131"
   inkscape:cx="-54.456596"
   inkscape:cy="247.8714"
   inkscape:window-width="1920"
   inkscape:window-height="1021"
   inkscape:window-x="0"
   inkscape:window-y="30"
   inkscape:window-maximized="1"
   inkscape:current-layer="Layer_1" />
<g
   id="g6"
   style="fill:#e2e2e2;fill-opacity:1"
   transform="matrix(0.81766759,0,0,0.81766759,46.677096,46.677096)">
	<g
   id="g4"
   style="fill:#e2e2e2;fill-opacity:1">
		<path
   d="m 137.677,315.293 c 22.433,-9.678 37.389,-35.63 37.389,-72.579 0,-62.021 -40.468,-74.776 -89.733,-74.776 H 13.196 C 6.598,167.939 0,171.457 0,178.935 v 299.547 c 0,5.719 4.839,10.996 13.196,10.996 H 95.89 c 48.826,0 87.093,-23.753 87.093,-90.612 v -7.918 c 0.001,-44.865 -18.474,-64.658 -45.306,-75.655 z M 28.591,194.77 h 55.863 c 36.068,0 61.581,10.557 61.581,51.024 0,41.787 -19.354,56.744 -59.821,56.744 H 28.591 Z m 125.362,202.778 c 0,45.305 -23.313,65.099 -61.581,65.099 H 28.592 V 327.609 h 63.78 c 38.268,0 61.581,16.715 61.581,62.461 z"
   id="path2"
   style="fill:#e2e2e2;fill-opacity:1" />
	</g>
</g>
<g
   id="g12"
   style="fill:#e2e2e2;fill-opacity:1"
   transform="matrix(0.81766759,0,0,0.81766759,46.677096,46.677096)">
	<g
   id="g10"
   style="fill:#e2e2e2;fill-opacity:1">
		<path
   d="m 420.508,167.939 c -51.463,0 -91.492,25.511 -91.492,93.691 v 136.358 c 0,68.618 40.027,94.13 91.492,94.13 51.465,0 91.492,-25.512 91.492,-94.13 V 261.63 c 0,-68.18 -40.027,-93.691 -91.492,-93.691 z m 62.461,230.049 c 0,46.185 -23.313,67.299 -62.461,67.299 -39.148,0 -62.461,-21.114 -62.461,-67.299 V 261.63 c 0,-45.745 23.313,-66.86 62.461,-66.86 39.148,0 62.461,21.114 62.461,66.86 z"
   id="path8"
   style="fill:#e2e2e2;fill-opacity:1" />
	</g>
</g>
<g
   id="g18"
   style="fill:#e2e2e2;fill-opacity:1"
   transform="matrix(0.81766759,0,0,0.81766759,46.677096,46.677096)">
	<g
   id="g16"
   style="fill:#e2e2e2;fill-opacity:1">
		<path
   d="m 387.959,19.882 h -37.093 c -44.252,0 -82.531,26.045 -100.328,63.608 C 232.741,45.927 194.463,19.882 150.21,19.882 h -37.093 c -5.867,0 -10.622,4.757 -10.622,10.622 v 37.094 c 0,61.178 49.771,110.949 110.95,110.949 h 23.204 v 299.496 c 0,7.477 7.037,11.436 14.516,11.436 7.038,0 14.516,-3.959 14.516,-11.436 V 178.548 h 21.952 c 61.179,0 110.95,-49.771 110.95,-110.949 V 30.504 C 398.581,24.639 393.826,19.882 387.959,19.882 Z M 239.916,142.281 163.947,66.311 c -4.148,-4.147 -10.874,-4.147 -15.022,0 -4.148,4.148 -4.149,10.874 0,15.023 l 75.969,75.97 H 213.446 C 163.982,157.303 123.74,117.061 123.74,67.599 V 41.127 h 26.471 c 49.463,0 89.705,40.242 89.705,89.705 z M 377.337,67.599 c 0,49.462 -40.241,89.704 -89.705,89.704 h -11.448 l 49.734,-49.734 c 4.148,-4.148 4.148,-10.874 0,-15.023 -4.148,-4.147 -10.874,-4.147 -15.022,0 l -49.734,49.735 v -11.449 c -10e-4,-49.463 40.241,-89.705 89.704,-89.705 h 26.471 v 26.472 z"
   id="path14"
   style="fill:#e2e2e2;fill-opacity:1" />
	</g>
</g>
<g
   id="g24"
   style="fill:#e2e2e2;fill-opacity:1"
   transform="matrix(0.81766759,0,0,0.81766759,46.677096,46.677096)">
	<g
   id="g22"
   style="fill:#e2e2e2;fill-opacity:1">
		<path
   d="m 352.152,66.309 c -4.149,-4.149 -10.874,-4.148 -15.023,0.001 l -3.769,3.77 c -4.148,4.148 -4.147,10.874 10e-4,15.022 2.076,2.076 4.793,3.111 7.511,3.111 2.718,0 5.438,-1.038 7.512,-3.112 l 3.769,-3.77 c 4.148,-4.148 4.147,-10.874 -0.001,-15.022 z"
   id="path20"
   style="fill:#e2e2e2;fill-opacity:1" />
	</g>
</g>
<g
   id="g26"
   style="fill:#e2e2e2;fill-opacity:1"
   transform="matrix(0.81766759,0,0,0.81766759,46.677096,46.677096)">
</g>
<g
   id="g28"
   style="fill:#e2e2e2;fill-opacity:1"
   transform="matrix(0.81766759,0,0,0.81766759,46.677096,46.677096)">
</g>
<g
   id="g30"
   style="fill:#e2e2e2;fill-opacity:1"
   transform="matrix(0.81766759,0,0,0.81766759,46.677096,46.677096)">
</g>
<g
   id="g32"
   style="fill:#e2e2e2;fill-opacity:1"
   transform="matrix(0.81766759,0,0,0.81766759,46.677096,46.677096)">
</g>
<g
   id="g34"
   style="fill:#e2e2e2;fill-opacity:1"
   transform="matrix(0.81766759,0,0,0.81766759,46.677096,46.677096)">
</g>
<g
   id="g36"
   style="fill:#e2e2e2;fill-opacity:1"
   transform="matrix(0.81766759,0,0,0.81766759,46.677096,46.677096)">
</g>
<g
   id="g38"
   style="fill:#e2e2e2;fill-opacity:1"
   transform="matrix(0.81766759,0,0,0.81766759,46.677096,46.677096)">
</g>
<g
   id="g40"
   style="fill:#e2e2e2;fill-opacity:1"
   transform="matrix(0.81766759,0,0,0.81766759,46.677096,46.677096)">
</g>
<g
   id="g42"
   style="fill:#e2e2e2;fill-opacity:1"
   transform="matrix(0.81766759,0,0,0.81766759,46.677096,46.677096)">
</g>
<g
   id="g44"
   style="fill:#e2e2e2;fill-opacity:1"
   transform="matrix(0.81766759,0,0,0.81766759,46.677096,46.677096)">
</g>
<g
   id="g46"
   style="fill:#e2e2e2;fill-opacity:1"
   transform="matrix(0.81766759,0,0,0.81766759,46.677096,46.677096)">
</g>
<g
   id="g48"
   style="fill:#e2e2e2;fill-opacity:1"
   transform="matrix(0.81766759,0,0,0.81766759,46.677096,46.677096)">
</g>
<g
   id="g50"
   style="fill:#e2e2e2;fill-opacity:1"
   transform="matrix(0.81766759,0,0,0.81766759,46.677096,46.677096)">
</g>
<g
   id="g52"
   style="fill:#e2e2e2;fill-opacity:1"
   transform="matrix(0.81766759,0,0,0.81766759,46.677096,46.677096)">
</g>
<g
   id="g54"
   style="fill:#e2e2e2;fill-opacity:1"
   transform="matrix(0.81766759,0,0,0.81766759,46.677096,46.677096)">
</g>
</svg>
