<?xml version="1.0" encoding="UTF-8" standalone="no"?>
<!-- Generator: Adobe Illustrator 19.0.0, SVG Export Plug-In . SVG Version: 6.00 Build 0)  -->

<svg
   version="1.1"
   id="Layer_1"
   x="0px"
   y="0px"
   viewBox="0 0 297 297"
   style="enable-background:new 0 0 297 297;"
   xml:space="preserve"
   sodipodi:docname="can.svg"
   inkscape:version="1.2.1 (9c6d41e410, 2022-07-14, custom)"
   inkscape:export-filename="..\..\..\..\..\Users\ABU6\Desktop\logo.png"
   inkscape:export-xdpi="484.84848"
   inkscape:export-ydpi="484.84848"
   xmlns:inkscape="http://www.inkscape.org/namespaces/inkscape"
   xmlns:sodipodi="http://sodipodi.sourceforge.net/DTD/sodipodi-0.dtd"
   xmlns="http://www.w3.org/2000/svg"
   xmlns:svg="http://www.w3.org/2000/svg"><defs
   id="defs69">
	
	
	
	
	
	
	
	
</defs><sodipodi:namedview
   id="namedview67"
   pagecolor="#ffffff"
   bordercolor="#666666"
   borderopacity="1.0"
   inkscape:showpageshadow="2"
   inkscape:pageopacity="0.0"
   inkscape:pagecheckerboard="0"
   inkscape:deskcolor="#d1d1d1"
   showgrid="false"
   inkscape:zoom="2.1672863"
   inkscape:cx="200.01972"
   inkscape:cy="117.19725"
   inkscape:window-width="1920"
   inkscape:window-height="1021"
   inkscape:window-x="0"
   inkscape:window-y="30"
   inkscape:window-maximized="1"
   inkscape:current-layer="Layer_1" />

<g
   id="g36"
   transform="matrix(1.0695993,0,0,1.0695993,-9.5559402,-2.9484103)">
</g>
<g
   id="g38"
   transform="matrix(1.0695993,0,0,1.0695993,-9.5559402,-2.9484103)">
</g>
<g
   id="g40"
   transform="matrix(1.0695993,0,0,1.0695993,-9.5559402,-2.9484103)">
</g>
<g
   id="g42"
   transform="matrix(1.0695993,0,0,1.0695993,-9.5559402,-2.9484103)">
</g>
<g
   id="g44"
   transform="matrix(1.0695993,0,0,1.0695993,-9.5559402,-2.9484103)">
</g>
<g
   id="g46"
   transform="matrix(1.0695993,0,0,1.0695993,-9.5559402,-2.9484103)">
</g>
<g
   id="g48"
   transform="matrix(1.0695993,0,0,1.0695993,-9.5559402,-2.9484103)">
</g>
<g
   id="g50"
   transform="matrix(1.0695993,0,0,1.0695993,-9.5559402,-2.9484103)">
</g>
<g
   id="g52"
   transform="matrix(1.0695993,0,0,1.0695993,-9.5559402,-2.9484103)">
</g>
<g
   id="g54"
   transform="matrix(1.0695993,0,0,1.0695993,-9.5559402,-2.9484103)">
</g>
<g
   id="g56"
   transform="matrix(1.0695993,0,0,1.0695993,-9.5559402,-2.9484103)">
</g>
<g
   id="g58"
   transform="matrix(1.0695993,0,0,1.0695993,-9.5559402,-2.9484103)">
</g>
<g
   id="g60"
   transform="matrix(1.0695993,0,0,1.0695993,-9.5559402,-2.9484103)">
</g>
<g
   id="g62"
   transform="matrix(1.0695993,0,0,1.0695993,-9.5559402,-2.9484103)">
</g>
<g
   id="g64"
   transform="matrix(1.0695993,0,0,1.0695993,-9.5559402,-2.9484103)">
</g>
<path
   style="fill:none;fill-opacity:1;stroke:#c8c8c8;stroke-width:14;stroke-dasharray:none;stroke-opacity:1"
   d="m 97.523511,259.85526 c -0.30522,-0.15262 -1.276412,-0.63813 -2.158287,-1.07865 -7.045416,-3.5202 -13.446936,-7.95294 -19.40815,-13.43917 -0.32712,-0.30102 -0.829566,-0.79239 -1.116595,-1.09185 -0.287022,-0.29948 -1.0634,-1.10451 -1.725291,-1.78888 -4.509717,-4.6629 -8.351859,-9.92963 -11.468485,-15.72071 -1.095317,-2.03525 -3.087803,-6.53536 -3.909951,-8.83082 -3.149885,-8.79454 -4.384653,-18.30747 -3.646309,-28.09208 0.351163,-4.65372 1.525576,-10.94985 2.870531,-15.38914 1.66646,-5.50049 2.181133,-6.80783 25.711364,-65.30985 25.409802,-63.17503 23.408732,-58.367753 25.851582,-62.102839 6.94989,-10.626143 17.98535,-17.430376 29.86523,-18.414322 4.14609,-0.343389 8.31969,0.05328 12.41849,1.180263 1.64538,0.452416 75.50914,30.082968 77.02982,30.900574 6.74465,3.626573 11.946,9.101319 15.47134,16.2845 0.89736,1.828467 1.91136,4.604376 2.51554,6.886536 1.92022,7.253318 1.86543,14.473315 -0.16825,22.171058 -0.4867,1.8422 -1.72479,4.9623 -24.30236,61.24379 -24.81944,61.87005 -24.23622,60.45092 -26.68948,65.02393 -6.8409,12.75586 -15.62233,22.32057 -26.20894,28.54671 -6.61233,3.88879 -14.24814,6.55713 -21.85414,7.63692 -7.06626,1.00316 -14.45461,0.91898 -21.93424,-0.24992 -4.53414,-0.70855 -8.48998,-1.63471 -13.94048,-3.26378 -1.46787,-0.43881 -12.072834,-4.53705 -13.202927,-5.10232 z M 94.141497,207.5001 c 5.604965,1.69703 9.733163,0.59681 12.738303,-3.39489 0.62952,-0.83615 0.8683,-1.34497 2.95317,-6.29213 2.18906,-5.19428 2.55719,-5.94741 3.72866,-7.62563 3.4054,-4.87875 8.80644,-7.24626 14.71286,-6.44931 6.52464,0.88038 12.34219,4.87508 14.56245,9.9995 1.21086,2.79471 1.53177,5.71494 0.99298,9.03571 -0.2486,1.53209 -1.39195,5.04858 -2.28301,7.02163 -1.01774,2.25376 -2.25325,5.93814 -2.4066,7.17763 -0.23537,1.90144 -0.18037,2.85471 0.25003,4.33794 0.72508,2.49873 2.42322,4.54872 5.1529,6.22078 1.51132,0.92577 6.44547,2.94475 7.8141,3.19746 2.25064,0.41556 4.26648,0.14453 6.66023,-0.89545 0.93689,-0.407 1.97703,-0.92653 2.31145,-1.15442 1.78353,-1.21566 4.06327,-3.61462 5.29154,-5.56827 0.78644,-1.25087 7.14929,-17.09921 7.83349,-19.51011 0.67479,-2.37947 1.26216,-5.17243 1.58036,-7.51494 1.85259,-13.63913 -1.79676,-26.62465 -9.17903,-32.6617 -2.13611,-1.74689 -1.08186,-1.28191 -21.26002,-9.37648 l -18.55643,-7.444 -1.45427,-0.24152 c -3.20113,-0.53167 -6.54696,-0.21843 -10.23351,0.95808 -8.44985,2.69663 -17.217524,10.1431 -22.904979,19.4534 -2.001848,3.27701 -2.436224,4.22638 -6.011964,13.13998 -3.759241,9.37108 -3.794388,9.48169 -3.975639,12.49586 -0.342763,5.70103 1.992256,10.62971 6.092631,12.86007 1.138617,0.61938 3.877037,1.71214 5.590394,2.23039 z m 31.964933,1.18611 c 2.79473,0.38034 5.60388,-0.7898 7.57696,-3.15612 0.95671,-1.14738 1.64147,-2.9234 1.72892,-4.48422 0.13652,-2.43719 -0.56827,-4.49599 -2.11774,-6.18581 -1.0731,-1.17031 -1.79044,-1.67855 -3.1248,-2.21382 -3.5835,-1.43753 -7.59002,-0.26937 -9.90273,2.88725 -0.72339,0.98739 -1.49809,3.22807 -1.55202,4.4891 -0.0829,1.93714 0.74753,4.37652 1.95841,5.75269 1.4665,1.66666 3.22888,2.61091 5.43296,2.91087 z m 49.02102,-64.22326 c 5.089,1.12239 9.26592,1.36703 13.71568,0.8033 12.22307,-1.5485 22.73404,-8.73338 28.59599,-19.54706 1.18606,-2.188 4.35859,-10.09216 5.00244,-12.46148 2.28485,-8.41746 1.69862,-16.89604 -1.71922,-24.864972 -3.32885,-7.761469 -8.77013,-13.813458 -16.28114,-18.108462 -1.45443,-0.83168 -2.98282,-1.463779 -21.52445,-8.901836 -15.65633,-6.280602 -20.2619,-8.086549 -21.36477,-8.377184 -8.48315,-2.236186 -16.90814,-1.640539 -24.8394,1.756131 -7.55523,3.235656 -13.61255,8.59606 -17.78955,15.742816 -1.69484,2.899877 -5.11954,11.407384 -5.84973,14.531709 -0.70375,3.011196 -1.04423,5.798702 -1.05999,8.67783 -0.0778,14.206568 7.8071,27.269528 20.39437,33.787818 0.5731,0.29685 10.11362,4.16705 21.20115,8.60058 18.1138,7.24316 20.29714,8.09134 21.51929,8.36105 z"
   id="path1583" /></svg>
