<?xml version="1.0" encoding="UTF-8" standalone="no"?>
<!-- Generator: Adobe Illustrator 18.0.0, SVG Export Plug-In . SVG Version: 6.00 Build 0)  -->

<svg
   version="1.1"
   id="Capa_1"
   x="0px"
   y="0px"
   viewBox="0 0 81.756 81.756"
   style="enable-background:new 0 0 81.756 81.756;"
   xml:space="preserve"
   sodipodi:docname="card.svg"
   inkscape:version="1.2.1 (9c6d41e410, 2022-07-14, custom)"
   xmlns:inkscape="http://www.inkscape.org/namespaces/inkscape"
   xmlns:sodipodi="http://sodipodi.sourceforge.net/DTD/sodipodi-0.dtd"
   xmlns="http://www.w3.org/2000/svg"
   xmlns:svg="http://www.w3.org/2000/svg"><defs
   id="defs41" /><sodipodi:namedview
   id="namedview39"
   pagecolor="#ffffff"
   bordercolor="#000000"
   borderopacity="0.25"
   inkscape:showpageshadow="2"
   inkscape:pageopacity="0.0"
   inkscape:pagecheckerboard="0"
   inkscape:deskcolor="#d1d1d1"
   showgrid="false"
   inkscape:zoom="10.286707"
   inkscape:cx="41.072425"
   inkscape:cy="40.926606"
   inkscape:window-width="1920"
   inkscape:window-height="1021"
   inkscape:window-x="0"
   inkscape:window-y="30"
   inkscape:window-maximized="1"
   inkscape:current-layer="Capa_1" />
<g
   id="g6"
   transform="matrix(0.86132349,0,0,0.86132349,5.6688185,5.6688185)"
   style="stroke:#e2e2e2;stroke-opacity:1;fill:none;stroke-width:2.97333119;stroke-dasharray:none">
	<path
   d="M 71.832,11.558 H 9.924 C 4.452,11.558 0,16.01 0,21.482 v 38.792 c 0,5.473 4.452,9.924 9.924,9.924 h 8.987 c 1.993,0 3.609,-1.615 3.609,-3.608 0,-1.993 -1.616,-3.608 -3.609,-3.608 H 9.924 c -1.493,0 -2.707,-1.215 -2.707,-2.707 V 37.341 h 67.321 v 22.934 c 0,1.492 -1.214,2.707 -2.706,2.707 H 34.249 c -1.993,0 -3.609,1.615 -3.609,3.608 0,1.993 1.616,3.608 3.609,3.608 h 37.583 c 5.472,0 9.924,-4.451 9.924,-9.924 V 21.482 c 0,-5.472 -4.452,-9.924 -9.924,-9.924 z M 7.218,26.959 v -5.476 c 0,-1.492 1.214,-2.707 2.707,-2.707 h 61.908 c 1.493,0 2.706,1.215 2.706,2.707 v 5.476 z"
   id="path2"
   style="stroke:#e2e2e2;stroke-opacity:1;fill:none;stroke-width:2.97333119;stroke-dasharray:none" />
	<path
   d="m 63.569,58.033 c 0.997,0 1.804,-0.809 1.804,-1.805 0,-0.996 -0.808,-1.805 -1.804,-1.805 H 45.074 c -0.997,0 -1.804,0.809 -1.804,1.805 0,0.996 0.808,1.805 1.804,1.805 z"
   id="path4"
   style="stroke:#e2e2e2;stroke-opacity:1;fill:none;stroke-width:2.97333119;stroke-dasharray:none" />
</g>
<g
   id="g8"
   transform="matrix(0.86132349,0,0,0.86132349,5.6688185,5.6688185)"
   style="stroke:#e2e2e2;stroke-opacity:1;fill:none;stroke-width:2.97333119;stroke-dasharray:none">
</g>
<g
   id="g10"
   transform="matrix(0.86132349,0,0,0.86132349,5.6688185,5.6688185)"
   style="stroke:#e2e2e2;stroke-opacity:1;fill:none;stroke-width:2.97333119;stroke-dasharray:none">
</g>
<g
   id="g12"
   transform="matrix(0.86132349,0,0,0.86132349,5.6688185,5.6688185)"
   style="stroke:#e2e2e2;stroke-opacity:1;fill:none;stroke-width:2.97333119;stroke-dasharray:none">
</g>
<g
   id="g14"
   transform="matrix(0.86132349,0,0,0.86132349,5.6688185,5.6688185)"
   style="stroke:#e2e2e2;stroke-opacity:1;fill:none;stroke-width:2.97333119;stroke-dasharray:none">
</g>
<g
   id="g16"
   transform="matrix(0.86132349,0,0,0.86132349,5.6688185,5.6688185)"
   style="stroke:#e2e2e2;stroke-opacity:1;fill:none;stroke-width:2.97333119;stroke-dasharray:none">
</g>
<g
   id="g18"
   transform="matrix(0.86132349,0,0,0.86132349,5.6688185,5.6688185)"
   style="stroke:#e2e2e2;stroke-opacity:1;fill:none;stroke-width:2.97333119;stroke-dasharray:none">
</g>
<g
   id="g20"
   transform="matrix(0.86132349,0,0,0.86132349,5.6688185,5.6688185)"
   style="stroke:#e2e2e2;stroke-opacity:1;fill:none;stroke-width:2.97333119;stroke-dasharray:none">
</g>
<g
   id="g22"
   transform="matrix(0.86132349,0,0,0.86132349,5.6688185,5.6688185)"
   style="stroke:#e2e2e2;stroke-opacity:1;fill:none;stroke-width:2.97333119;stroke-dasharray:none">
</g>
<g
   id="g24"
   transform="matrix(0.86132349,0,0,0.86132349,5.6688185,5.6688185)"
   style="stroke:#e2e2e2;stroke-opacity:1;fill:none;stroke-width:2.97333119;stroke-dasharray:none">
</g>
<g
   id="g26"
   transform="matrix(0.86132349,0,0,0.86132349,5.6688185,5.6688185)"
   style="stroke:#e2e2e2;stroke-opacity:1;fill:none;stroke-width:2.97333119;stroke-dasharray:none">
</g>
<g
   id="g28"
   transform="matrix(0.86132349,0,0,0.86132349,5.6688185,5.6688185)"
   style="stroke:#e2e2e2;stroke-opacity:1;fill:none;stroke-width:2.97333119;stroke-dasharray:none">
</g>
<g
   id="g30"
   transform="matrix(0.86132349,0,0,0.86132349,5.6688185,5.6688185)"
   style="stroke:#e2e2e2;stroke-opacity:1;fill:none;stroke-width:2.97333119;stroke-dasharray:none">
</g>
<g
   id="g32"
   transform="matrix(0.86132349,0,0,0.86132349,5.6688185,5.6688185)"
   style="stroke:#e2e2e2;stroke-opacity:1;fill:none;stroke-width:2.97333119;stroke-dasharray:none">
</g>
<g
   id="g34"
   transform="matrix(0.86132349,0,0,0.86132349,5.6688185,5.6688185)"
   style="stroke:#e2e2e2;stroke-opacity:1;fill:none;stroke-width:2.97333119;stroke-dasharray:none">
</g>
<g
   id="g36"
   transform="matrix(0.86132349,0,0,0.86132349,5.6688185,5.6688185)"
   style="stroke:#e2e2e2;stroke-opacity:1;fill:none;stroke-width:2.97333119;stroke-dasharray:none">
</g>
</svg>
