<?xml version="1.0" encoding="UTF-8" standalone="no"?>
<!-- Generator: Adobe Illustrator 19.0.0, SVG Export Plug-In . SVG Version: 6.00 Build 0)  -->

<svg
   version="1.1"
   id="Layer_1"
   x="0px"
   y="0px"
   viewBox="0 0 512 512"
   style="enable-background:new 0 0 512 512;"
   xml:space="preserve"
   sodipodi:docname="cellar.svg"
   inkscape:version="1.2.1 (9c6d41e410, 2022-07-14, custom)"
   xmlns:inkscape="http://www.inkscape.org/namespaces/inkscape"
   xmlns:sodipodi="http://sodipodi.sourceforge.net/DTD/sodipodi-0.dtd"
   xmlns="http://www.w3.org/2000/svg"
   xmlns:svg="http://www.w3.org/2000/svg"><defs
   id="defs59" /><sodipodi:namedview
   id="namedview57"
   pagecolor="#ffffff"
   bordercolor="#000000"
   borderopacity="0.25"
   inkscape:showpageshadow="2"
   inkscape:pageopacity="0.0"
   inkscape:pagecheckerboard="0"
   inkscape:deskcolor="#d1d1d1"
   showgrid="false"
   inkscape:zoom="0.80228157"
   inkscape:cx="-145.21086"
   inkscape:cy="281.69661"
   inkscape:window-width="1920"
   inkscape:window-height="1021"
   inkscape:window-x="0"
   inkscape:window-y="30"
   inkscape:window-maximized="1"
   inkscape:current-layer="Layer_1" />
<g
   transform="matrix(0.823887,0,0,0.823887,45.908705,45.908815)"
   id="g24"
   style="fill:#e2e2e2;fill-opacity:1">
	<g
   id="g22"
   style="fill:#e2e2e2;fill-opacity:1">
		<g
   id="g20"
   style="fill:#e2e2e2;fill-opacity:1">
			<path
   d="m 391.64,84.333 c -5.12,0 -8.533,3.413 -8.533,8.533 0,5.12 3.413,8.533 8.533,8.533 4.267,0 8.533,-3.413 8.533,-8.533 0,-5.119 -3.413,-8.533 -8.533,-8.533 z"
   id="path2"
   style="fill:#e2e2e2;fill-opacity:1" />
			<path
   d="m 297.773,84.333 c -5.12,0 -8.533,3.413 -8.533,8.533 0,5.12 3.413,8.533 8.533,8.533 4.267,0 8.533,-3.413 8.533,-8.533 0.001,-5.119 -3.413,-8.533 -8.533,-8.533 z"
   id="path4"
   style="fill:#e2e2e2;fill-opacity:1" />
			<path
   d="m 220.973,84.333 c -5.12,0 -8.533,3.413 -8.533,8.533 0,5.12 3.413,8.533 8.533,8.533 4.267,0 8.533,-3.413 8.533,-8.533 0.001,-5.119 -3.413,-8.533 -8.533,-8.533 z"
   id="path6"
   style="fill:#e2e2e2;fill-opacity:1" />
			<path
   d="m 127.107,84.333 c -5.12,0 -8.533,3.413 -8.533,8.533 0,5.12 3.413,8.533 8.533,8.533 4.267,0 8.533,-3.413 8.533,-8.533 0,-5.119 -3.413,-8.533 -8.533,-8.533 z"
   id="path8"
   style="fill:#e2e2e2;fill-opacity:1" />
			<path
   d="m 391.64,408.6 c -5.12,0 -8.533,3.413 -8.533,8.533 0,5.12 3.413,8.533 8.533,8.533 4.267,0 8.533,-3.413 8.533,-8.533 0,-5.12 -3.413,-8.533 -8.533,-8.533 z"
   id="path10"
   style="fill:#e2e2e2;fill-opacity:1" />
			<path
   d="m 297.773,408.6 c -5.12,0 -8.533,3.413 -8.533,8.533 0,5.12 3.413,8.533 8.533,8.533 4.267,0 8.533,-3.413 8.533,-8.533 0,-5.12 -3.413,-8.533 -8.533,-8.533 z"
   id="path12"
   style="fill:#e2e2e2;fill-opacity:1" />
			<path
   d="m 220.973,408.6 c -5.12,0 -8.533,3.413 -8.533,8.533 0,5.12 3.413,8.533 8.533,8.533 4.267,0 8.533,-3.413 8.533,-8.533 0,-5.12 -3.413,-8.533 -8.533,-8.533 z"
   id="path14"
   style="fill:#e2e2e2;fill-opacity:1" />
			<path
   d="m 127.107,408.6 c -5.12,0 -8.533,3.413 -8.533,8.533 0,5.12 3.413,8.533 8.533,8.533 4.267,0 8.533,-3.413 8.533,-8.533 0,-5.12 -3.413,-8.533 -8.533,-8.533 z"
   id="path16"
   style="fill:#e2e2e2;fill-opacity:1" />
			<path
   d="m 453.933,138.093 -4.267,-14.507 c -0.536,-1.073 -1.157,-2.061 -1.889,-2.912 l -16.739,-60.87 c 0.27,-1.211 0.258,-2.421 -0.145,-3.632 L 416.386,4.972 C 414.68,1.56 412.12,-1 407.853,-1 h -84.48 -0.853 -67.413 -68.267 -85.333 c -3.413,0 -6.827,2.56 -7.68,5.973 l -13.86,48.918 c -0.582,0.697 -1.091,1.464 -1.5,2.282 L 59.693,124.44 c -0.206,0.617 -0.307,1.284 -0.327,1.964 l -3.94,13.396 c -19.627,72.533 -19.627,152.747 0,231.253 l 4.267,14.507 18.773,68.267 14.507,51.2 c 1.707,3.413 5.12,5.973 8.533,5.973 h 85.333 68.267 67.413 0.853 84.48 c 4.267,0 7.68,-2.56 8.533,-5.973 l 14.507,-51.2 c 0.385,-1.154 0.408,-2.479 0.177,-3.746 l 17.527,-63.733 c 0.404,-0.751 0.765,-1.58 1.07,-2.495 l 4.267,-14.507 c 20.48,-73.386 20.48,-153.599 0,-231.253 z m -38.4,304.64 h -78.507 v 0 h -81.92 -82.773 -78.506 l -13.653,-51.2 h 73.387 101.547 100.692 74.24 z m -168.96,51.2 H 193.681 L 184.01,459.8 h 62.564 v 34.133 z m -86.186,-119.466 -2.56,-7.68 c -18.773,-69.12 -18.773,-154.453 0,-222.72 l 2.667,-8.533 h 86.08 v 238.933 z m 188.887,-238.934 2.259,7.68 c 18.773,69.12 18.773,154.453 0,222.72 l -2.51,8.533 H 263.64 V 135.533 Z m 6.526,-17.92 c -1.124,0 -2.243,0.34 -3.294,0.853 H 255.107 80.173 l 13.653,-51.2 h 78.507 82.773 81.92 78.507 l 14.265,50.347 z M 263.64,16.067 h 52.039 L 325.35,50.2 H 263.64 V 16.067 Z M 410.413,50.2 H 344.721 L 335.05,16.067 h 65.977 z m -163.84,0 H 184.28 l 8.917,-32.427 0.484,-1.707 h 52.892 z M 108.333,16.067 h 66.83 L 165.492,50.2 H 98.947 Z m -35.84,128.853 2.56,-8.533 h 66.711 l -1.004,3.413 c -19.627,70.827 -19.627,159.573 0,231.253 l 1.004,3.413 H 75.053 l -2.56,-6.827 C 53.72,291.693 53.72,214.893 72.493,144.92 Z M 98.947,459.8 h 66.546 l 9.671,34.133 h -66.83 z m 164.693,0 h 61.71 l -9.671,34.133 H 263.64 Z m 137.387,34.133 h -66.83 l 9.671,-34.133 h 66.546 z m 35.84,-128 -2.56,8.533 h -66.962 l 1.255,-4.267 c 19.627,-69.973 19.627,-161.28 0,-231.253 l -1.004,-3.413 h 66.711 l 2.56,7.68 c 6.844,26.187 11.294,52.685 13.365,79.06 -2.327,-0.91 -4.804,-1.407 -7.392,-1.407 -14.507,0 -25.6,15.36 -25.6,34.133 0,18.773 11.093,34.133 25.6,34.133 2.662,0 5.208,-0.522 7.593,-1.483 -1.97,26.774 -6.483,53.031 -13.566,78.284 z M 451.373,255 c 0,10.24 -5.12,17.067 -8.533,17.067 -3.413,0 -8.533,-6.827 -8.533,-17.067 0,-10.24 5.12,-17.067 8.533,-17.067 3.413,0 8.533,6.827 8.533,17.067 z"
   id="path18"
   style="fill:#e2e2e2;fill-opacity:1" />
		</g>
	</g>
</g>
<g
   id="g26"
   style="fill:#e2e2e2;fill-opacity:1"
   transform="matrix(0.823887,0,0,0.823887,45.084818,45.084928)">
</g>
<g
   id="g28"
   style="fill:#e2e2e2;fill-opacity:1"
   transform="matrix(0.823887,0,0,0.823887,45.084818,45.084928)">
</g>
<g
   id="g30"
   style="fill:#e2e2e2;fill-opacity:1"
   transform="matrix(0.823887,0,0,0.823887,45.084818,45.084928)">
</g>
<g
   id="g32"
   style="fill:#e2e2e2;fill-opacity:1"
   transform="matrix(0.823887,0,0,0.823887,45.084818,45.084928)">
</g>
<g
   id="g34"
   style="fill:#e2e2e2;fill-opacity:1"
   transform="matrix(0.823887,0,0,0.823887,45.084818,45.084928)">
</g>
<g
   id="g36"
   style="fill:#e2e2e2;fill-opacity:1"
   transform="matrix(0.823887,0,0,0.823887,45.084818,45.084928)">
</g>
<g
   id="g38"
   style="fill:#e2e2e2;fill-opacity:1"
   transform="matrix(0.823887,0,0,0.823887,45.084818,45.084928)">
</g>
<g
   id="g40"
   style="fill:#e2e2e2;fill-opacity:1"
   transform="matrix(0.823887,0,0,0.823887,45.084818,45.084928)">
</g>
<g
   id="g42"
   style="fill:#e2e2e2;fill-opacity:1"
   transform="matrix(0.823887,0,0,0.823887,45.084818,45.084928)">
</g>
<g
   id="g44"
   style="fill:#e2e2e2;fill-opacity:1"
   transform="matrix(0.823887,0,0,0.823887,45.084818,45.084928)">
</g>
<g
   id="g46"
   style="fill:#e2e2e2;fill-opacity:1"
   transform="matrix(0.823887,0,0,0.823887,45.084818,45.084928)">
</g>
<g
   id="g48"
   style="fill:#e2e2e2;fill-opacity:1"
   transform="matrix(0.823887,0,0,0.823887,45.084818,45.084928)">
</g>
<g
   id="g50"
   style="fill:#e2e2e2;fill-opacity:1"
   transform="matrix(0.823887,0,0,0.823887,45.084818,45.084928)">
</g>
<g
   id="g52"
   style="fill:#e2e2e2;fill-opacity:1"
   transform="matrix(0.823887,0,0,0.823887,45.084818,45.084928)">
</g>
<g
   id="g54"
   style="fill:#e2e2e2;fill-opacity:1"
   transform="matrix(0.823887,0,0,0.823887,45.084818,45.084928)">
</g>
</svg>
