<?xml version="1.0" encoding="UTF-8" standalone="no"?>
<!-- Generator: Adobe Illustrator 19.0.0, SVG Export Plug-In . SVG Version: 6.00 Build 0)  -->

<svg
   version="1.1"
   id="Layer_1"
   x="0px"
   y="0px"
   viewBox="0 0 512 512"
   style="enable-background:new 0 0 512 512;"
   xml:space="preserve"
   sodipodi:docname="center.svg"
   inkscape:version="1.2.1 (9c6d41e410, 2022-07-14, custom)"
   xmlns:inkscape="http://www.inkscape.org/namespaces/inkscape"
   xmlns:sodipodi="http://sodipodi.sourceforge.net/DTD/sodipodi-0.dtd"
   xmlns="http://www.w3.org/2000/svg"
   xmlns:svg="http://www.w3.org/2000/svg"><defs
   id="defs85" /><sodipodi:namedview
   id="namedview83"
   pagecolor="#ffffff"
   bordercolor="#000000"
   borderopacity="0.25"
   inkscape:showpageshadow="2"
   inkscape:pageopacity="0.0"
   inkscape:pagecheckerboard="0"
   inkscape:deskcolor="#d1d1d1"
   showgrid="false"
   inkscape:zoom="0.84301605"
   inkscape:cx="250.8849"
   inkscape:cy="288.25074"
   inkscape:window-width="1920"
   inkscape:window-height="1021"
   inkscape:window-x="0"
   inkscape:window-y="30"
   inkscape:window-maximized="1"
   inkscape:current-layer="Layer_1" />
<g
   transform="matrix(0.90104714,0,0,0.90104714,26.232978,26.232978)"
   id="g50">
	<g
   id="g10">
		<path
   style="fill:#e2e3e5"
   d="m 365.933,272.067 h -51.2 c -5.12,0 -8.533,-3.413 -8.533,-8.533 0,-5.12 3.413,-8.533 8.533,-8.533 h 51.2 c 5.12,0 8.533,3.413 8.533,8.533 10e-4,5.119 -3.413,8.533 -8.533,8.533 z"
   id="path2" />
		<path
   style="fill:#e2e3e5"
   d="m 212.333,272.067 h -51.2 c -5.12,0 -8.533,-3.413 -8.533,-8.533 0,-5.12 3.413,-8.533 8.533,-8.533 h 51.2 c 5.12,0 8.533,3.413 8.533,8.533 10e-4,5.119 -3.413,8.533 -8.533,8.533 z"
   id="path4" />
		<path
   style="fill:#e2e3e5"
   d="m 263.533,220.867 c -5.12,0 -8.533,-3.413 -8.533,-8.533 v -51.2 c 0,-5.12 3.413,-8.533 8.533,-8.533 5.12,0 8.533,3.413 8.533,8.533 v 51.2 c 0.001,5.119 -3.413,8.533 -8.533,8.533 z"
   id="path6" />
		<path
   style="fill:#e2e3e5"
   d="m 263.533,374.467 c -5.12,0 -8.533,-3.413 -8.533,-8.533 v -51.2 c 0,-5.12 3.413,-8.533 8.533,-8.533 5.12,0 8.533,3.413 8.533,8.533 v 51.2 c 0.001,5.119 -3.413,8.533 -8.533,8.533 z"
   id="path8" />
	</g>
	<path
   style="fill:#cccccc"
   d="m 306.2,255 c 0,28.16 -23.04,51.2 -51.2,51.2 -28.16,0 -51.2,-23.04 -51.2,-51.2 0,-28.16 23.04,-51.2 51.2,-51.2 28.16,0 51.2,23.04 51.2,51.2"
   id="path12" />
	<path
   style="fill:#e2e3e5"
   d="m 280.6,255 c 0,28.16 -17.067,51.2 -38.4,51.2 -21.333,0 -38.4,-23.04 -38.4,-51.2 0,-28.16 17.067,-51.2 38.4,-51.2 21.333,0 38.4,23.04 38.4,51.2"
   id="path14" />
	<path
   style="fill:#ffffff"
   d="m 255,306.2 c 2.56,0 5.12,0 7.68,-0.853 C 243.907,301.933 229.4,280.6 229.4,255 c 0,-25.6 14.507,-46.933 33.28,-50.347 -2.56,-0.853 -5.12,-0.853 -7.68,-0.853 -28.16,0 -51.2,23.04 -51.2,51.2 0,28.16 23.04,51.2 51.2,51.2"
   id="path16" />
	<g
   id="g26">
		<path
   style="fill:#e2e3e5"
   d="m 255,493.933 c -127.147,0 -230.4,-103.253 -230.4,-230.4 0,-127.147 103.253,-230.4 230.4,-230.4 127.147,0 230.4,103.253 230.4,230.4 0,127.147 -103.253,230.4 -230.4,230.4 z M 255,50.2 c -117.76,0 -213.333,95.573 -213.333,213.333 0,117.76 95.573,213.334 213.333,213.334 117.76,0 213.333,-95.573 213.333,-213.333 C 468.333,145.774 372.76,50.2 255,50.2 Z"
   id="path18" />
		<path
   style="fill:#e2e3e5"
   d="m 58.733,272.067 h -51.2 c -5.12,0 -8.533,-3.413 -8.533,-8.533 0,-5.12 3.413,-8.533 8.533,-8.533 h 51.2 c 5.12,0 8.533,3.413 8.533,8.533 10e-4,5.119 -3.413,8.533 -8.533,8.533 z"
   id="path20" />
		<path
   style="fill:#e2e3e5"
   d="m 502.467,272.067 h -51.2 c -5.12,0 -8.533,-3.413 -8.533,-8.533 0,-5.12 3.413,-8.533 8.533,-8.533 h 51.2 c 5.12,0 8.533,3.413 8.533,8.533 0,5.119 -3.413,8.533 -8.533,8.533 z"
   id="path22" />
		<path
   style="fill:#e2e3e5"
   d="m 255,75.8 c -5.12,0 -8.533,-3.413 -8.533,-8.533 v -51.2 c 0,-5.12 3.413,-8.533 8.533,-8.533 5.12,0 8.533,3.413 8.533,8.533 v 51.2 c 0,5.12 -3.413,8.533 -8.533,8.533 z"
   id="path24" />
	</g>
	<g
   id="g48">
		<path
   style="fill:#b6b6b6"
   d="M 255,485.4 C 127.853,485.4 24.6,382.147 24.6,255 24.6,127.853 127.853,24.6 255,24.6 382.147,24.6 485.4,127.853 485.4,255 485.4,382.147 382.147,485.4 255,485.4 Z M 255,41.667 C 137.24,41.667 41.667,137.24 41.667,255 41.667,372.76 137.24,468.333 255,468.333 372.76,468.333 468.333,372.76 468.333,255 468.333,137.24 372.76,41.667 255,41.667 Z"
   id="path28" />
		<path
   style="fill:#b6b6b6"
   d="M 58.733,263.533 H 7.533 C 2.413,263.533 -1,260.12 -1,255 c 0,-5.12 3.413,-8.533 8.533,-8.533 h 51.2 c 5.12,0 8.533,3.413 8.533,8.533 0,5.12 -3.413,8.533 -8.533,8.533 z"
   id="path30" />
		<path
   style="fill:#b6b6b6"
   d="m 502.467,263.533 h -51.2 c -5.12,0 -8.533,-3.413 -8.533,-8.533 0,-5.12 3.413,-8.533 8.533,-8.533 h 51.2 c 5.12,0 8.533,3.413 8.533,8.533 0,5.12 -3.413,8.533 -8.533,8.533 z"
   id="path32" />
		<path
   style="fill:#b6b6b6"
   d="m 357.4,263.533 h -51.2 c -5.12,0 -8.533,-3.413 -8.533,-8.533 0,-5.12 3.413,-8.533 8.533,-8.533 h 51.2 c 5.12,0 8.533,3.413 8.533,8.533 0,5.12 -3.413,8.533 -8.533,8.533 z"
   id="path34" />
		<path
   style="fill:#b6b6b6"
   d="m 203.8,263.533 h -51.2 c -5.12,0 -8.533,-3.413 -8.533,-8.533 0,-5.12 3.413,-8.533 8.533,-8.533 h 51.2 c 5.12,0 8.533,3.413 8.533,8.533 0,5.12 -3.413,8.533 -8.533,8.533 z"
   id="path36" />
		<path
   style="fill:#b6b6b6"
   d="m 255,511 c -5.12,0 -8.533,-3.413 -8.533,-8.533 v -51.2 c 0,-5.12 3.413,-8.533 8.533,-8.533 5.12,0 8.533,3.413 8.533,8.533 v 51.2 c 0,5.12 -3.413,8.533 -8.533,8.533 z"
   id="path38" />
		<path
   style="fill:#b6b6b6"
   d="m 255,67.267 c -5.12,0 -8.533,-3.413 -8.533,-8.533 V 7.534 C 246.467,2.413 249.88,-1 255,-1 c 5.12,0 8.533,3.413 8.533,8.533 v 51.2 c 0,5.12 -3.413,8.534 -8.533,8.534 z"
   id="path40" />
		<path
   style="fill:#b6b6b6"
   d="m 255,212.333 c -5.12,0 -8.533,-3.413 -8.533,-8.533 v -51.2 c 0,-5.12 3.413,-8.533 8.533,-8.533 5.12,0 8.533,3.413 8.533,8.533 v 51.2 c 0,5.12 -3.413,8.533 -8.533,8.533 z"
   id="path42" />
		<path
   style="fill:#b6b6b6"
   d="m 255,365.933 c -5.12,0 -8.533,-3.413 -8.533,-8.533 v -51.2 c 0,-5.12 3.413,-8.533 8.533,-8.533 5.12,0 8.533,3.413 8.533,8.533 v 51.2 c 0,5.12 -3.413,8.533 -8.533,8.533 z"
   id="path44" />
		<path
   style="fill:#b6b6b6"
   d="m 255,314.733 c -33.28,0 -59.733,-26.453 -59.733,-59.733 0,-33.28 26.453,-59.733 59.733,-59.733 33.28,0 59.733,26.453 59.733,59.733 0,33.28 -26.453,59.733 -59.733,59.733 z m 0,-102.4 c -23.893,0 -42.667,18.773 -42.667,42.667 0,23.894 18.773,42.667 42.667,42.667 23.894,0 42.667,-18.773 42.667,-42.667 0,-23.894 -18.774,-42.667 -42.667,-42.667 z"
   id="path46" />
	</g>
</g>
<g
   id="g52"
   transform="matrix(0.90104714,0,0,0.90104714,25.331931,25.331931)">
</g>
<g
   id="g54"
   transform="matrix(0.90104714,0,0,0.90104714,25.331931,25.331931)">
</g>
<g
   id="g56"
   transform="matrix(0.90104714,0,0,0.90104714,25.331931,25.331931)">
</g>
<g
   id="g58"
   transform="matrix(0.90104714,0,0,0.90104714,25.331931,25.331931)">
</g>
<g
   id="g60"
   transform="matrix(0.90104714,0,0,0.90104714,25.331931,25.331931)">
</g>
<g
   id="g62"
   transform="matrix(0.90104714,0,0,0.90104714,25.331931,25.331931)">
</g>
<g
   id="g64"
   transform="matrix(0.90104714,0,0,0.90104714,25.331931,25.331931)">
</g>
<g
   id="g66"
   transform="matrix(0.90104714,0,0,0.90104714,25.331931,25.331931)">
</g>
<g
   id="g68"
   transform="matrix(0.90104714,0,0,0.90104714,25.331931,25.331931)">
</g>
<g
   id="g70"
   transform="matrix(0.90104714,0,0,0.90104714,25.331931,25.331931)">
</g>
<g
   id="g72"
   transform="matrix(0.90104714,0,0,0.90104714,25.331931,25.331931)">
</g>
<g
   id="g74"
   transform="matrix(0.90104714,0,0,0.90104714,25.331931,25.331931)">
</g>
<g
   id="g76"
   transform="matrix(0.90104714,0,0,0.90104714,25.331931,25.331931)">
</g>
<g
   id="g78"
   transform="matrix(0.90104714,0,0,0.90104714,25.331931,25.331931)">
</g>
<g
   id="g80"
   transform="matrix(0.90104714,0,0,0.90104714,25.331931,25.331931)">
</g>
</svg>
