<?xml version="1.0" encoding="UTF-8" standalone="no"?>
<!-- Generator: Adobe Illustrator 19.0.0, SVG Export Plug-In . SVG Version: 6.00 Build 0)  -->

<svg
   version="1.1"
   id="Layer_1"
   x="0px"
   y="0px"
   viewBox="0 0 512 512"
   style="enable-background:new 0 0 512 512;"
   xml:space="preserve"
   sodipodi:docname="choice.svg"
   inkscape:version="1.2.1 (9c6d41e410, 2022-07-14, custom)"
   xmlns:inkscape="http://www.inkscape.org/namespaces/inkscape"
   xmlns:sodipodi="http://sodipodi.sourceforge.net/DTD/sodipodi-0.dtd"
   xmlns="http://www.w3.org/2000/svg"
   xmlns:svg="http://www.w3.org/2000/svg"><defs
   id="defs51" /><sodipodi:namedview
   id="namedview49"
   pagecolor="#ffffff"
   bordercolor="#000000"
   borderopacity="0.25"
   inkscape:showpageshadow="2"
   inkscape:pageopacity="0.0"
   inkscape:pagecheckerboard="0"
   inkscape:deskcolor="#d1d1d1"
   showgrid="false"
   inkscape:zoom="1.6425781"
   inkscape:cx="250.52081"
   inkscape:cy="255.6956"
   inkscape:window-width="1920"
   inkscape:window-height="1021"
   inkscape:window-x="0"
   inkscape:window-y="30"
   inkscape:window-maximized="1"
   inkscape:current-layer="Layer_1" />
<g
   id="g16"
   style="fill:#e2e2e2;fill-opacity:1"
   transform="matrix(0.86857309,0,0,0.86857309,33.645288,33.645288)">
	<rect
   x="47.865002"
   y="4.0019999"
   style="fill:#e2e2e2;fill-opacity:1"
   width="64.036003"
   height="15.677"
   id="rect2" />
	<rect
   x="167.94501"
   y="28.018999"
   style="fill:#e2e2e2;fill-opacity:1"
   width="32.021"
   height="15.677"
   id="rect4" />
	<rect
   x="159.939"
   y="4.0019999"
   style="fill:#e2e2e2;fill-opacity:1"
   width="48.032001"
   height="15.677"
   id="rect6" />
	<path
   style="fill:#e2e2e2;fill-opacity:1"
   d="m 487.986,196.128 v -56.203 c 0,-10.406 -6.7,-19.269 -16.011,-22.519 V 83.721 h 16.178 V 68.044 h -48.031 v 15.677 h 16.177 v 33.684 c -9.31,3.25 -16.01,12.114 -16.01,22.519 v 56.203 H 415.94 v -56.202 c 0,-10.406 -6.7,-19.269 -16.011,-22.519 V 83.721 h 16.178 V 68.044 h -48.032 v 15.677 h 16.178 v 33.684 c -9.31,3.25 -16.01,12.114 -16.01,22.519 v 56.203 h -24.35 v -56.202 c 0,-10.406 -6.699,-19.269 -16.01,-22.519 V 83.721 h 16.178 V 68.044 h -48.032 v 15.677 h 16.178 v 33.684 c -9.31,3.25 -16.011,12.114 -16.011,22.519 v 56.203 H 231.821 V 68.044 h -7.839 c -4.507,0 -8.172,-3.665 -8.172,-8.172 v -7.839 h -63.709 v 7.839 c 0,4.507 -3.665,8.172 -8.172,8.172 H 136.09 V 196.128 H 119.746 V 98.932 L 102.013,28.019 H 57.755 L 40.026,98.932 v 97.196 H 0 v 55.703 h 512 v -55.703 z m -32.022,-56.203 c 0,-4.507 3.665,-8.172 8.171,-8.172 4.506,0 8.172,3.665 8.172,8.172 v 56.203 h -16.344 v -56.203 z m -72.047,0 c 0,-4.507 3.665,-8.172 8.171,-8.172 4.506,0 8.172,3.665 8.172,8.172 v 56.203 h -16.344 v -56.203 z m -72.047,0 c 0,-4.507 3.666,-8.172 8.172,-8.172 4.506,0 8.171,3.665 8.171,8.172 v 56.203 H 311.869 V 139.925 Z M 151.766,82.398 c 6.855,-2.392 12.295,-7.832 14.687,-14.687 h 35.001 c 2.392,6.855 7.832,12.295 14.687,14.687 v 41.683 H 151.765 V 82.398 Z m 0,57.361 h 64.375 v 24.349 h -64.375 z m 0,40.026 h 64.375 v 16.344 H 151.766 Z M 55.703,100.862 69.995,43.696 h 19.78 l 14.292,57.166 v 23.219 H 55.703 Z m 0,38.897 h 48.364 v 16.343 H 55.703 Z m 0,32.02 h 48.364 v 24.349 H 55.703 Z m 440.62,64.375 H 15.677 v -24.349 h 280.516 47.698 24.35 47.698 24.349 47.698 8.338 v 24.349 z"
   id="path8" />
	<rect
   x="304.03299"
   y="260.16901"
   style="fill:#e2e2e2;fill-opacity:1"
   width="64.036003"
   height="15.677"
   id="rect10" />
	<rect
   x="400.09299"
   y="260.16901"
   style="fill:#e2e2e2;fill-opacity:1"
   width="64.036003"
   height="15.677"
   id="rect12" />
	<path
   style="fill:#e2e2e2;fill-opacity:1"
   d="m 471.974,324.212 h -16.01 v -40.026 h -47.698 v 40.026 H 392.255 V 452.295 H 375.911 V 324.212 h -16.01 v -40.026 h -47.698 v 40.026 h -16.011 v 128.083 h -80.385 v -56.203 c 0,-10.405 -6.7,-19.269 -16.011,-22.519 v -33.684 h 16.178 v -15.677 h -48.032 v 15.677 h 16.177 v 33.684 c -9.31,3.25 -16.011,12.114 -16.011,22.519 v 56.203 H 143.76 v -56.203 c 0,-10.405 -6.7,-19.269 -16.011,-22.519 v -33.684 h 16.177 V 324.212 H 95.895 v 15.677 h 16.178 v 33.684 c -9.31,3.25 -16.011,12.114 -16.011,22.519 v 56.203 H 71.714 v -56.203 c 0,-10.405 -6.7,-19.269 -16.011,-22.519 V 339.889 H 71.881 V 324.212 H 23.849 v 15.677 h 16.177 v 33.684 c -9.31,3.25 -16.01,12.114 -16.01,22.519 v 56.203 H 0 v 55.703 h 512 v -55.703 h -40.026 z m -64.041,15.677 h 16.011 v -40.026 h 16.344 v 40.026 h 16.01 v 16.344 h -48.364 v -16.344 z m 0,32.021 h 48.364 v 80.385 H 407.933 Z M 311.87,339.889 h 16.011 v -40.026 h 16.344 v 40.026 h 16.01 v 51.514 c -5.848,-6.821 -14.516,-11.155 -24.183,-11.155 -9.668,0 -18.336,4.334 -24.183,11.155 v -51.514 z m 40.359,72.213 c 0,8.92 -7.256,16.178 -16.178,16.178 -8.919,0 -16.177,-7.258 -16.177,-16.178 0,-8.92 7.256,-16.177 16.177,-16.177 8.922,0 16.178,7.257 16.178,16.177 z M 311.87,432.8 c 5.847,6.821 14.515,11.156 24.183,11.156 9.667,0 18.335,-4.334 24.183,-11.155 v 19.493 H 311.872 V 432.8 Z M 183.787,396.092 c 0,-4.507 3.665,-8.172 8.172,-8.172 4.507,0 8.172,3.665 8.172,8.172 v 56.203 h -16.344 z m -72.047,0 c 0,-4.507 3.665,-8.172 8.172,-8.172 4.507,0 8.172,3.665 8.172,8.172 v 56.203 H 111.74 Z m -72.046,0 c 0,-4.507 3.665,-8.172 8.172,-8.172 4.506,0 8.171,3.665 8.171,8.172 v 56.203 H 39.694 Z m 456.629,71.88 v 24.349 H 15.677 v -24.349 z"
   id="path14" />
</g>
<g
   id="g18"
   style="fill:#e2e2e2;fill-opacity:1"
   transform="matrix(0.86857309,0,0,0.86857309,33.645288,33.645288)">
</g>
<g
   id="g20"
   style="fill:#e2e2e2;fill-opacity:1"
   transform="matrix(0.86857309,0,0,0.86857309,33.645288,33.645288)">
</g>
<g
   id="g22"
   style="fill:#e2e2e2;fill-opacity:1"
   transform="matrix(0.86857309,0,0,0.86857309,33.645288,33.645288)">
</g>
<g
   id="g24"
   style="fill:#e2e2e2;fill-opacity:1"
   transform="matrix(0.86857309,0,0,0.86857309,33.645288,33.645288)">
</g>
<g
   id="g26"
   style="fill:#e2e2e2;fill-opacity:1"
   transform="matrix(0.86857309,0,0,0.86857309,33.645288,33.645288)">
</g>
<g
   id="g28"
   style="fill:#e2e2e2;fill-opacity:1"
   transform="matrix(0.86857309,0,0,0.86857309,33.645288,33.645288)">
</g>
<g
   id="g30"
   style="fill:#e2e2e2;fill-opacity:1"
   transform="matrix(0.86857309,0,0,0.86857309,33.645288,33.645288)">
</g>
<g
   id="g32"
   style="fill:#e2e2e2;fill-opacity:1"
   transform="matrix(0.86857309,0,0,0.86857309,33.645288,33.645288)">
</g>
<g
   id="g34"
   style="fill:#e2e2e2;fill-opacity:1"
   transform="matrix(0.86857309,0,0,0.86857309,33.645288,33.645288)">
</g>
<g
   id="g36"
   style="fill:#e2e2e2;fill-opacity:1"
   transform="matrix(0.86857309,0,0,0.86857309,33.645288,33.645288)">
</g>
<g
   id="g38"
   style="fill:#e2e2e2;fill-opacity:1"
   transform="matrix(0.86857309,0,0,0.86857309,33.645288,33.645288)">
</g>
<g
   id="g40"
   style="fill:#e2e2e2;fill-opacity:1"
   transform="matrix(0.86857309,0,0,0.86857309,33.645288,33.645288)">
</g>
<g
   id="g42"
   style="fill:#e2e2e2;fill-opacity:1"
   transform="matrix(0.86857309,0,0,0.86857309,33.645288,33.645288)">
</g>
<g
   id="g44"
   style="fill:#e2e2e2;fill-opacity:1"
   transform="matrix(0.86857309,0,0,0.86857309,33.645288,33.645288)">
</g>
<g
   id="g46"
   style="fill:#e2e2e2;fill-opacity:1"
   transform="matrix(0.86857309,0,0,0.86857309,33.645288,33.645288)">
</g>
</svg>
