<?xml version="1.0" encoding="UTF-8" standalone="no"?>
<!-- Uploaded to: SVG Repo, www.svgrepo.com, Generator: SVG Repo Mixer Tools -->

<svg
   fill="#000000"
   height="800px"
   width="800px"
   version="1.1"
   id="Layer_1"
   viewBox="0 0 512 512"
   xml:space="preserve"
   sodipodi:docname="cliff.svg"
   inkscape:version="1.2.2 (b0a8486541, 2022-12-01)"
   xmlns:inkscape="http://www.inkscape.org/namespaces/inkscape"
   xmlns:sodipodi="http://sodipodi.sourceforge.net/DTD/sodipodi-0.dtd"
   xmlns="http://www.w3.org/2000/svg"
   xmlns:svg="http://www.w3.org/2000/svg"><defs
   id="defs59">
	
</defs><sodipodi:namedview
   id="namedview57"
   pagecolor="#ffffff"
   bordercolor="#000000"
   borderopacity="0.25"
   inkscape:showpageshadow="2"
   inkscape:pageopacity="0.0"
   inkscape:pagecheckerboard="0"
   inkscape:deskcolor="#d1d1d1"
   showgrid="false"
   inkscape:zoom="0.743346"
   inkscape:cx="161.43223"
   inkscape:cy="388.78261"
   inkscape:window-width="1920"
   inkscape:window-height="1021"
   inkscape:window-x="0"
   inkscape:window-y="30"
   inkscape:window-maximized="1"
   inkscape:current-layer="Layer_1" />








<g
   id="g357"
   transform="matrix(1.169877,0,0,1.169877,-90.32083,21.453293)"><g
     id="g6"
     style="fill:#e2e2e2;fill-opacity:1"
     transform="matrix(0.84930084,0,0,0.84930084,38.578478,38.57891)">
	<g
   id="g4"
   style="fill:#e2e2e2;fill-opacity:1">
		<path
   d="m 476.049,21.759 c -8.146,0 -15.908,3.133 -21.787,8.463 -5.879,-5.33 -13.641,-8.463 -21.787,-8.463 -4.512,0 -8.17,3.657 -8.17,8.17 0,4.513 3.658,8.17 8.17,8.17 6.196,0 11.728,3.466 14.437,9.046 1.367,2.815 4.221,4.601 7.35,4.601 3.129,0 5.983,-1.786 7.35,-4.601 2.709,-5.58 8.242,-9.046 14.437,-9.046 4.512,0 8.17,-3.657 8.17,-8.17 0,-4.513 -3.658,-8.17 -8.17,-8.17 z"
   id="path2"
   style="fill:#e2e2e2;fill-opacity:1" />
	</g>
</g><g
     id="g12"
     style="fill:#e2e2e2;fill-opacity:1"
     transform="matrix(0.84930084,0,0,0.84930084,105.73428,39.439882)">
	<g
   id="g10"
   style="fill:#e2e2e2;fill-opacity:1">
		<path
   d="m 79.524,21.759 c -8.146,0 -15.908,3.133 -21.787,8.463 -5.879,-5.33 -13.641,-8.463 -21.787,-8.463 -4.512,0 -8.17,3.657 -8.17,8.17 0,4.513 3.658,8.17 8.17,8.17 6.196,0 11.728,3.466 14.437,9.046 1.367,2.815 4.221,4.601 7.35,4.601 3.129,0 5.983,-1.786 7.35,-4.601 2.709,-5.58 8.242,-9.046 14.437,-9.046 4.512,0 8.17,-3.657 8.17,-8.17 0,-4.513 -3.658,-8.17 -8.17,-8.17 z"
   id="path8"
   style="fill:#e2e2e2;fill-opacity:1" />
	</g>
</g><g
     id="g18"
     style="fill:#e2e2e2;fill-opacity:1"
     transform="matrix(0.84930084,0,0,0.84930084,105.73428,39.439882)">
	<g
   id="g16"
   style="fill:#e2e2e2;fill-opacity:1">
		<path
   d="m 178.655,68.087 c -8.146,0 -15.908,3.133 -21.787,8.463 -5.879,-5.33 -13.641,-8.463 -21.787,-8.463 -4.512,0 -8.17,3.657 -8.17,8.17 0,4.513 3.658,8.17 8.17,8.17 6.196,0 11.728,3.466 14.437,9.046 1.367,2.815 4.221,4.601 7.35,4.601 3.129,0 5.983,-1.787 7.35,-4.601 2.709,-5.58 8.242,-9.046 14.437,-9.046 4.512,0 8.17,-3.657 8.17,-8.17 0,-4.513 -3.658,-8.17 -8.17,-8.17 z"
   id="path14"
   style="fill:#e2e2e2;fill-opacity:1" />
	</g>
</g><g
     id="g46"
     style="fill:#e2e2e2;fill-opacity:1"
     transform="matrix(0.69291443,0,0,0.84930084,118.64807,38.57891)">
		<path
   d="m 507.396,312.953 c -4.061,-1.974 -8.948,-0.28 -10.919,3.78 -7.922,16.313 -24.099,26.445 -42.216,26.445 -18.117,0 -34.294,-10.133 -42.216,-26.445 -1.367,-2.814 -4.221,-4.601 -7.35,-4.601 -3.129,0 -5.983,1.788 -7.35,4.601 -7.922,16.313 -24.099,26.445 -42.216,26.445 -18.117,0 -34.294,-10.133 -42.216,-26.445 -1.367,-2.814 -4.221,-4.601 -7.35,-4.601 -3.129,0 -5.983,1.788 -7.35,4.601 -7.922,16.313 -24.099,26.445 -42.216,26.445 -18.117,0 -34.294,-10.133 -42.216,-26.445 -1.367,-2.814 -4.221,-4.601 -7.35,-4.601 -3.129,0 -5.983,1.788 -7.35,4.601 -7.922,16.313 -24.099,26.445 -42.216,26.445 -18.117,0 -34.294,-10.133 -42.216,-26.445 -1.367,-2.814 -4.221,-4.601 -7.35,-4.601 -3.129,0 -5.983,1.788 -7.35,4.601 -7.922,16.313 -24.099,26.445 -42.216,26.445 -18.117,0 -34.294,-10.133 -42.216,-26.445 -1.972,-4.059 -6.859,-5.752 -10.919,-3.78 -4.059,1.972 -5.752,6.86 -3.78,10.917 10.517,21.655 32.857,35.648 56.915,35.648 19.409,0 37.699,-9.106 49.566,-23.996 11.866,14.89 30.156,23.996 49.565,23.996 19.409,0 37.699,-9.106 49.566,-23.996 11.866,14.89 30.157,23.996 49.566,23.996 19.409,0 37.699,-9.106 49.566,-23.996 11.866,14.89 30.157,23.996 49.566,23.996 19.409,0 37.699,-9.106 49.565,-23.996 11.866,14.89 30.157,23.996 49.566,23.996 24.057,0 46.398,-13.993 56.915,-35.648 1.974,-4.058 0.281,-8.945 -3.778,-10.917 z"
   id="path44"
   style="fill:#e2e2e2;fill-opacity:1" />
	</g><g
     id="g54"
     style="fill:#e2e2e2;fill-opacity:1"
     transform="matrix(0.92513756,0,0,0.84930084,-0.2493143,38.57891)">
	<g
   id="g52"
   style="fill:#e2e2e2;fill-opacity:1">
		<path
   d="M 503.827,125.307 H 222.229 c -22.526,0 -40.851,18.325 -40.851,40.851 v 14.437 c -18.622,3.796 -32.681,20.303 -32.681,40.03 v 98.042 c 0,4.513 3.658,8.17 8.17,8.17 4.512,0 8.17,-3.657 8.17,-8.17 v -98.042 c 0,-13.515 10.995,-24.51 24.51,-24.51 4.512,0 8.17,-3.657 8.17,-8.17 v -21.787 c 0,-13.515 10.995,-24.51 24.51,-24.51 h 25.6 v 177.02 c 0,4.513 3.658,8.17 8.17,8.17 4.512,0 8.17,-3.657 8.17,-8.17 v -177.02 h 33.225 v 144.339 c 0,4.513 3.658,8.17 8.17,8.17 4.512,0 8.17,-3.657 8.17,-8.17 V 141.648 h 115.471 v 71.628 c -18.622,3.796 -32.681,20.303 -32.681,40.03 v 34.315 c 0,4.513 3.658,8.17 8.17,8.17 4.512,0 8.17,-3.657 8.17,-8.17 v -34.315 c 0,-13.515 10.995,-24.51 24.51,-24.51 4.512,0 8.17,-3.657 8.17,-8.17 v -78.978 h 58.28 c 4.512,0 8.17,-3.657 8.17,-8.17 0,-4.513 -3.653,-8.171 -8.165,-8.171 z"
   id="path50"
   style="fill:#e2e2e2;fill-opacity:1" />
	</g>
</g></g>
</svg>
