<?xml version="1.0" encoding="UTF-8" standalone="no"?>
<!-- Generator: Adobe Illustrator 17.1.0, SVG Export Plug-In . SVG Version: 6.00 Build 0)  -->

<svg
   version="1.1"
   id="Capa_1"
   x="0px"
   y="0px"
   viewBox="0 0 470 470"
   style="enable-background:new 0 0 470 470;"
   xml:space="preserve"
   sodipodi:docname="umbrella.svg"
   inkscape:version="1.2.1 (9c6d41e410, 2022-07-14, custom)"
   xmlns:inkscape="http://www.inkscape.org/namespaces/inkscape"
   xmlns:sodipodi="http://sodipodi.sourceforge.net/DTD/sodipodi-0.dtd"
   xmlns="http://www.w3.org/2000/svg"
   xmlns:svg="http://www.w3.org/2000/svg"><defs
   id="defs37" /><sodipodi:namedview
   id="namedview35"
   pagecolor="#ffffff"
   bordercolor="#000000"
   borderopacity="0.25"
   inkscape:showpageshadow="2"
   inkscape:pageopacity="0.0"
   inkscape:pagecheckerboard="0"
   inkscape:deskcolor="#d1d1d1"
   showgrid="false"
   inkscape:zoom="0.87417625"
   inkscape:cx="-97.806363"
   inkscape:cy="331.74088"
   inkscape:window-width="1920"
   inkscape:window-height="1021"
   inkscape:window-x="0"
   inkscape:window-y="30"
   inkscape:window-maximized="1"
   inkscape:current-layer="Capa_1" />
<path
   d="m 378.78585,122.57844 27.48254,-27.482539 c 2.47376,-2.473766 2.47376,-6.484662 0,-8.957583 -2.47461,-2.473766 -6.48466,-2.473766 -8.95843,0 L 369.82827,113.62001 C 332.28429,78.309089 283.49561,58.93027 231.7222,58.93027 c -53.89077,0 -104.55525,20.986049 -142.661724,59.09252 -1.867359,1.86736 -2.380017,4.69754 -1.28629,7.1012 1.093727,2.40367 3.559892,3.87745 6.19835,3.69671 1.331053,-0.0912 2.682377,-0.13682 4.016808,-0.13682 15.622986,0 30.309336,6.08349 41.355556,17.12887 11.93894,11.93894 18.12631,28.47069 16.976,45.35716 -0.12415,1.82598 0.54644,3.61563 1.84033,4.90953 1.29474,1.29389 3.09284,1.96617 4.90953,1.84033 1.33021,-0.0904 2.68068,-0.13682 4.01343,-0.13682 15.62636,0 30.30933,6.07757 41.34373,17.11197 11.39503,11.39504 17.53426,26.97664 17.07059,43.05485 L 92.471723,390.97571 c -4.787907,4.78875 -11.154328,7.42552 -17.926147,7.42552 -6.772662,0 -13.139084,-2.63761 -17.927835,-7.42552 -4.787907,-4.78875 -7.424676,-11.15517 -7.424676,-17.92699 0,-6.77182 2.636769,-13.13824 7.425521,-17.92699 2.47461,-2.47377 2.47461,-6.48466 8.44e-4,-8.95843 -2.47461,-2.47292 -6.485506,-2.47377 -8.957583,0 -7.182283,7.18144 -11.137437,16.72938 -11.137437,26.88542 0,10.15604 3.955154,19.70398 11.136592,26.88542 7.181438,7.18144 16.729381,11.13659 26.885419,11.13659 10.155194,0 19.703136,-3.95515 26.884579,-11.13659 L 234.46876,266.89637 c 0.56671,-0.0161 1.13342,-0.0287 1.69676,-0.0287 15.62636,0 30.30933,6.07757 41.34288,17.11197 11.93979,11.93894 18.12716,28.47069 16.97685,45.35716 -0.12416,1.82598 0.54644,3.61564 1.84033,4.90953 1.29474,1.29389 3.092,1.96195 4.90952,1.84033 1.33021,-0.0904 2.68069,-0.13682 4.01343,-0.13682 15.62637,0 30.30934,6.07758 41.34374,17.11197 11.95329,11.9533 18.14658,28.49096 16.99204,45.37237 -0.18074,2.63508 1.29305,5.10462 3.69671,6.19835 0.84205,0.38259 1.73561,0.5684 2.62157,0.5684 1.64608,0 3.26683,-0.64188 4.48133,-1.85554 38.10478,-38.10562 59.09167,-88.77095 59.09167,-142.66087 0,-51.77342 -19.37966,-100.56294 -54.68974,-138.10607 z m -92.31902,152.44192 c -10.98119,-10.98119 -24.9336,-17.90841 -40.04815,-20.07475 l 98.10522,-98.10438 c 2.47376,-2.47376 2.47376,-6.48381 0,-8.95758 -2.47377,-2.47292 -6.48382,-2.47461 -8.95843,0 l -98.11958,98.11789 c -2.18745,-15.04952 -9.13578,-29.13791 -20.06208,-40.0642 -10.90011,-10.90096 -24.73006,-17.80706 -39.71792,-20.02661 17.82142,-16.54188 36.5761,-30.83044 55.91184,-42.5633 2.99065,-1.815 3.94418,-5.71019 2.12918,-8.70083 -1.81415,-2.9915 -5.71187,-3.94418 -8.70168,-2.12918 -20.2994,12.31731 -39.95778,27.32798 -58.59844,44.70515 -2.13762,-15.16354 -9.10791,-29.36848 -20.10684,-40.3674 -10.8165,-10.8165 -24.50118,-17.72092 -39.3404,-20.00381 34.2003,-29.283173 77.25431,-45.25159 122.76096,-45.25159 35.8903,0 70.24853,9.941515 99.94724,28.50447 -3.64013,-0.268573 -7.39765,-0.345429 -11.27933,-0.196784 -21.01899,0.805724 -45.45682,7.771794 -70.6742,20.144854 -3.14098,1.54135 -4.43741,5.33603 -2.8969,8.47702 1.10133,2.24319 3.35128,3.54553 5.69161,3.54553 0.93579,0 1.88762,-0.20861 2.78541,-0.64948 44.66376,-21.91508 83.32259,-24.90826 105.30693,-8.57921 l -7.12148,7.12147 c -2.47376,2.47377 -2.47376,6.48466 0,8.95758 1.23731,1.23731 2.8589,1.85554 4.47964,1.85554 1.62074,0 3.24233,-0.61823 4.47963,-1.85554 l 7.13415,-7.13414 c 12.83588,17.21839 13.8519,44.58944 2.70264,78.03638 -11.52425,34.57191 -34.68086,71.41236 -65.79508,104.93616 -2.23897,-14.92959 -9.16619,-28.89467 -20.01394,-39.74326 z m 69.08302,69.08386 c -11.05382,-11.05382 -25.11687,-18.00216 -40.34798,-20.11951 32.60912,-34.99843 56.94138,-73.69357 69.09316,-110.15227 6.51929,-19.55786 9.17126,-37.4384 8.05895,-53.00987 18.53002,29.67928 28.45296,64.00627 28.45296,99.86194 0,45.51594 -15.97096,88.57332 -45.2668,122.777 -2.30316,-14.77841 -9.227,-28.59569 -19.99029,-39.35729 z"
   id="path2"
   style="stroke-width:5.84500008;fill:#e2e2e2;fill-opacity:1;stroke-dasharray:none" />
<g
   id="g4"
   transform="matrix(0.84457698,0,0,0.84457698,36.52441,36.524488)"
   style="fill:#e2e2e2;fill-opacity:1;stroke-width:6.92062443;stroke-dasharray:none">
</g>
<g
   id="g6"
   transform="matrix(0.84457698,0,0,0.84457698,36.52441,36.524488)"
   style="fill:#e2e2e2;fill-opacity:1;stroke-width:6.92062443;stroke-dasharray:none">
</g>
<g
   id="g8"
   transform="matrix(0.84457698,0,0,0.84457698,36.52441,36.524488)"
   style="fill:#e2e2e2;fill-opacity:1;stroke-width:6.92062443;stroke-dasharray:none">
</g>
<g
   id="g10"
   transform="matrix(0.84457698,0,0,0.84457698,36.52441,36.524488)"
   style="fill:#e2e2e2;fill-opacity:1;stroke-width:6.92062443;stroke-dasharray:none">
</g>
<g
   id="g12"
   transform="matrix(0.84457698,0,0,0.84457698,36.52441,36.524488)"
   style="fill:#e2e2e2;fill-opacity:1;stroke-width:6.92062443;stroke-dasharray:none">
</g>
<g
   id="g14"
   transform="matrix(0.84457698,0,0,0.84457698,36.52441,36.524488)"
   style="fill:#e2e2e2;fill-opacity:1;stroke-width:6.92062443;stroke-dasharray:none">
</g>
<g
   id="g16"
   transform="matrix(0.84457698,0,0,0.84457698,36.52441,36.524488)"
   style="fill:#e2e2e2;fill-opacity:1;stroke-width:6.92062443;stroke-dasharray:none">
</g>
<g
   id="g18"
   transform="matrix(0.84457698,0,0,0.84457698,36.52441,36.524488)"
   style="fill:#e2e2e2;fill-opacity:1;stroke-width:6.92062443;stroke-dasharray:none">
</g>
<g
   id="g20"
   transform="matrix(0.84457698,0,0,0.84457698,36.52441,36.524488)"
   style="fill:#e2e2e2;fill-opacity:1;stroke-width:6.92062443;stroke-dasharray:none">
</g>
<g
   id="g22"
   transform="matrix(0.84457698,0,0,0.84457698,36.52441,36.524488)"
   style="fill:#e2e2e2;fill-opacity:1;stroke-width:6.92062443;stroke-dasharray:none">
</g>
<g
   id="g24"
   transform="matrix(0.84457698,0,0,0.84457698,36.52441,36.524488)"
   style="fill:#e2e2e2;fill-opacity:1;stroke-width:6.92062443;stroke-dasharray:none">
</g>
<g
   id="g26"
   transform="matrix(0.84457698,0,0,0.84457698,36.52441,36.524488)"
   style="fill:#e2e2e2;fill-opacity:1;stroke-width:6.92062443;stroke-dasharray:none">
</g>
<g
   id="g28"
   transform="matrix(0.84457698,0,0,0.84457698,36.52441,36.524488)"
   style="fill:#e2e2e2;fill-opacity:1;stroke-width:6.92062443;stroke-dasharray:none">
</g>
<g
   id="g30"
   transform="matrix(0.84457698,0,0,0.84457698,36.52441,36.524488)"
   style="fill:#e2e2e2;fill-opacity:1;stroke-width:6.92062443;stroke-dasharray:none">
</g>
<g
   id="g32"
   transform="matrix(0.84457698,0,0,0.84457698,36.52441,36.524488)"
   style="fill:#e2e2e2;fill-opacity:1;stroke-width:6.92062443;stroke-dasharray:none">
</g>
</svg>
