<?xml version="1.0" encoding="UTF-8" standalone="no"?>
<svg
   width="700pt"
   height="700pt"
   version="1.1"
   viewBox="0 0 700 700"
   id="svg2967"
   sodipodi:docname="craft.svg"
   inkscape:version="1.2.1 (9c6d41e410, 2022-07-14, custom)"
   xmlns:inkscape="http://www.inkscape.org/namespaces/inkscape"
   xmlns:sodipodi="http://sodipodi.sourceforge.net/DTD/sodipodi-0.dtd"
   xmlns="http://www.w3.org/2000/svg"
   xmlns:svg="http://www.w3.org/2000/svg">
  <sodipodi:namedview
     id="namedview2969"
     pagecolor="#ffffff"
     bordercolor="#000000"
     borderopacity="0.25"
     inkscape:showpageshadow="2"
     inkscape:pageopacity="0.0"
     inkscape:pagecheckerboard="0"
     inkscape:deskcolor="#d1d1d1"
     inkscape:document-units="pt"
     showgrid="false"
     inkscape:zoom="0.66870565"
     inkscape:cx="461.33901"
     inkscape:cy="553.30772"
     inkscape:window-width="1920"
     inkscape:window-height="1021"
     inkscape:window-x="0"
     inkscape:window-y="30"
     inkscape:window-maximized="1"
     inkscape:current-layer="svg2967" />
  <defs
     id="defs2571">
    <symbol
       id="t"
       overflow="visible">
      <path
         d="m18.766-1.125c-0.96875 0.5-1.9805 0.875-3.0312 1.125-1.043 0.25781-2.1367 0.39062-3.2812 0.39062-3.3984 0-6.0898-0.94531-8.0781-2.8438-1.9922-1.9062-2.9844-4.4844-2.9844-7.7344 0-3.2578 0.99219-5.8359 2.9844-7.7344 1.9883-1.9062 4.6797-2.8594 8.0781-2.8594 1.1445 0 2.2383 0.13281 3.2812 0.39062 1.0508 0.25 2.0625 0.625 3.0312 1.125v4.2188c-0.98047-0.65625-1.9453-1.1406-2.8906-1.4531-0.94922-0.3125-1.9492-0.46875-3-0.46875-1.875 0-3.3516 0.60547-4.4219 1.8125-1.0742 1.1992-1.6094 2.8555-1.6094 4.9688 0 2.1055 0.53516 3.7617 1.6094 4.9688 1.0703 1.1992 2.5469 1.7969 4.4219 1.7969 1.0508 0 2.0508-0.14844 3-0.45312 0.94531-0.3125 1.9102-0.80078 2.8906-1.4688z"
         id="path2511" />
    </symbol>
    <symbol
       id="b"
       overflow="visible">
      <path
         d="m13.734-11.141c-0.4375-0.19531-0.87109-0.34375-1.2969-0.4375-0.41797-0.10156-0.83984-0.15625-1.2656-0.15625-1.2617 0-2.2305 0.40625-2.9062 1.2188-0.67969 0.80469-1.0156 1.9531-1.0156 3.4531v7.0625h-4.8906v-15.312h4.8906v2.5156c0.625-1 1.3438-1.7266 2.1562-2.1875 0.82031-0.46875 1.8008-0.70312 2.9375-0.70312 0.16406 0 0.34375 0.011719 0.53125 0.03125 0.19531 0.011719 0.47656 0.039062 0.84375 0.078125z"
         id="path2514" />
    </symbol>
    <symbol
       id="a"
       overflow="visible">
      <path
         d="m17.641-7.7031v1.4062h-11.453c0.125 1.1484 0.53906 2.0078 1.25 2.5781 0.70703 0.57422 1.7031 0.85938 2.9844 0.85938 1.0312 0 2.082-0.14844 3.1562-0.45312 1.082-0.3125 2.1914-0.77344 3.3281-1.3906v3.7656c-1.1562 0.4375-2.3125 0.76562-3.4688 0.98438-1.1562 0.22656-2.3125 0.34375-3.4688 0.34375-2.7734 0-4.9297-0.70312-6.4688-2.1094-1.5312-1.4062-2.2969-3.3789-2.2969-5.9219 0-2.5 0.75391-4.4609 2.2656-5.8906 1.5078-1.4375 3.582-2.1562 6.2188-2.1562 2.4062 0 4.332 0.73047 5.7812 2.1875 1.4453 1.4492 2.1719 3.3828 2.1719 5.7969zm-5.0312-1.625c0-0.92578-0.27344-1.6719-0.8125-2.2344-0.54297-0.57031-1.25-0.85938-2.125-0.85938-0.94922 0-1.7188 0.26562-2.3125 0.79688s-0.96484 1.2969-1.1094 2.2969z"
         id="path2517" />
    </symbol>
    <symbol
       id="i"
       overflow="visible">
      <path
         d="m9.2188-6.8906c-1.0234 0-1.793 0.17188-2.3125 0.51562-0.51172 0.34375-0.76562 0.85547-0.76562 1.5312 0 0.625 0.20703 1.1172 0.625 1.4688 0.41406 0.34375 0.98828 0.51562 1.7188 0.51562 0.92578 0 1.7031-0.32812 2.3281-0.98438 0.63281-0.66406 0.95312-1.4922 0.95312-2.4844v-0.5625zm7.4688-1.8438v8.7344h-4.9219v-2.2656c-0.65625 0.92969-1.3984 1.6055-2.2188 2.0312-0.82422 0.41406-1.8242 0.625-3 0.625-1.5859 0-2.8711-0.45703-3.8594-1.375-0.99219-0.92578-1.4844-2.1289-1.4844-3.6094 0-1.7891 0.61328-3.1016 1.8438-3.9375 1.2383-0.84375 3.1797-1.2656 5.8281-1.2656h2.8906v-0.39062c0-0.76953-0.30859-1.332-0.92188-1.6875-0.61719-0.36328-1.5703-0.54688-2.8594-0.54688-1.0547 0-2.0312 0.10547-2.9375 0.3125-0.89844 0.21094-1.7305 0.52344-2.5 0.9375v-3.7344c1.0391-0.25 2.0859-0.44141 3.1406-0.57812 1.0625-0.13281 2.125-0.20312 3.1875-0.20312 2.7578 0 4.75 0.54688 5.9688 1.6406 1.2266 1.0859 1.8438 2.8555 1.8438 5.3125z"
         id="path2520" />
    </symbol>
    <symbol
       id="d"
       overflow="visible">
      <path
         d="m7.7031-19.656v4.3438h5.0469v3.5h-5.0469v6.5c0 0.71094 0.14062 1.1875 0.42188 1.4375s0.83594 0.375 1.6719 0.375h2.5156v3.5h-4.1875c-1.9375 0-3.3125-0.39844-4.125-1.2031-0.80469-0.8125-1.2031-2.1797-1.2031-4.1094v-6.5h-2.4219v-3.5h2.4219v-4.3438z"
         id="path2523" />
    </symbol>
    <symbol
       id="h"
       overflow="visible">
      <path
         d="m12.766-13.078v-8.2031h4.9219v21.281h-4.9219v-2.2188c-0.66797 0.90625-1.4062 1.5703-2.2188 1.9844s-1.7578 0.625-2.8281 0.625c-1.8867 0-3.4336-0.75-4.6406-2.25-1.2109-1.5-1.8125-3.4258-1.8125-5.7812 0-2.3633 0.60156-4.2969 1.8125-5.7969 1.207-1.5 2.7539-2.25 4.6406-2.25 1.0625 0 2 0.21484 2.8125 0.64062 0.82031 0.42969 1.5664 1.0859 2.2344 1.9688zm-3.2188 9.9219c1.0391 0 1.8359-0.37891 2.3906-1.1406 0.55078-0.76953 0.82812-1.8828 0.82812-3.3438 0-1.457-0.27734-2.5664-0.82812-3.3281-0.55469-0.76953-1.3516-1.1562-2.3906-1.1562-1.043 0-1.8398 0.38672-2.3906 1.1562-0.55469 0.76172-0.82812 1.8711-0.82812 3.3281 0 1.4609 0.27344 2.5742 0.82812 3.3438 0.55078 0.76172 1.3477 1.1406 2.3906 1.1406z"
         id="path2526" />
    </symbol>
    <symbol
       id="g"
       overflow="visible">
      <path
         d="m10.5-3.1562c1.0508 0 1.8516-0.37891 2.4062-1.1406 0.55078-0.76953 0.82812-1.8828 0.82812-3.3438 0-1.457-0.27734-2.5664-0.82812-3.3281-0.55469-0.76953-1.3555-1.1562-2.4062-1.1562-1.0547 0-1.8594 0.38672-2.4219 1.1562-0.55469 0.77344-0.82812 1.8828-0.82812 3.3281 0 1.4492 0.27344 2.5586 0.82812 3.3281 0.5625 0.77344 1.3672 1.1562 2.4219 1.1562zm-3.25-9.9219c0.67578-0.88281 1.4219-1.5391 2.2344-1.9688 0.82031-0.42578 1.7656-0.64062 2.8281-0.64062 1.8945 0 3.4453 0.75 4.6562 2.25 1.207 1.5 1.8125 3.4336 1.8125 5.7969 0 2.3555-0.60547 4.2812-1.8125 5.7812-1.2109 1.5-2.7617 2.25-4.6562 2.25-1.0625 0-2.0078-0.21094-2.8281-0.625-0.8125-0.42578-1.5586-1.0859-2.2344-1.9844v2.2188h-4.8906v-21.281h4.8906z"
         id="path2529" />
    </symbol>
    <symbol
       id="f"
       overflow="visible">
      <path
         d="m0.34375-15.312h4.8906l4.125 10.391 3.5-10.391h4.8906l-6.4375 16.766c-0.64844 1.6953-1.4023 2.8828-2.2656 3.5625-0.86719 0.6875-2 1.0312-3.4062 1.0312h-2.8438v-3.2188h1.5312c0.83203 0 1.4375-0.13672 1.8125-0.40625 0.38281-0.26172 0.67969-0.73047 0.89062-1.4062l0.14062-0.42188z"
         id="path2532" />
    </symbol>
    <symbol
       id="e"
       overflow="visible">
      <path
         d="m20.922-1.5156c-1.3125 0.63672-2.6797 1.1172-4.0938 1.4375-1.4062 0.3125-2.8672 0.46875-4.375 0.46875-3.3984 0-6.0898-0.94531-8.0781-2.8438-1.9922-1.9062-2.9844-4.4844-2.9844-7.7344 0-3.2891 1.0078-5.8789 3.0312-7.7656 2.0312-1.8828 4.8047-2.8281 8.3281-2.8281 1.3516 0 2.6484 0.13281 3.8906 0.39062 1.25 0.25 2.4258 0.625 3.5312 1.125v4.2188c-1.1484-0.64453-2.2812-1.125-3.4062-1.4375-1.125-0.32031-2.25-0.48438-3.375-0.48438-2.1055 0-3.7266 0.58984-4.8594 1.7656-1.125 1.168-1.6875 2.8398-1.6875 5.0156 0 2.1562 0.54688 3.8242 1.6406 5 1.0938 1.1797 2.6445 1.7656 4.6562 1.7656 0.53906 0 1.0469-0.03125 1.5156-0.09375 0.47656-0.070313 0.89844-0.17969 1.2656-0.32812v-3.9688h-3.2031v-3.5156h8.2031z"
         id="path2535" />
    </symbol>
    <symbol
       id="c"
       overflow="visible">
      <path
         d="m9.6406-12.188c-1.0859 0-1.9141 0.39062-2.4844 1.1719-0.57422 0.78125-0.85938 1.9062-0.85938 3.375s0.28516 2.5938 0.85938 3.375c0.57031 0.77344 1.3984 1.1562 2.4844 1.1562 1.0625 0 1.875-0.38281 2.4375-1.1562 0.57031-0.78125 0.85938-1.9062 0.85938-3.375s-0.28906-2.5938-0.85938-3.375c-0.5625-0.78125-1.375-1.1719-2.4375-1.1719zm0-3.5c2.6328 0 4.6914 0.71484 6.1719 2.1406 1.4766 1.418 2.2188 3.3867 2.2188 5.9062 0 2.5117-0.74219 4.4805-2.2188 5.9062-1.4805 1.418-3.5391 2.125-6.1719 2.125-2.6484 0-4.7148-0.70703-6.2031-2.125-1.4922-1.4258-2.2344-3.3945-2.2344-5.9062 0-2.5195 0.74219-4.4883 2.2344-5.9062 1.4883-1.4258 3.5547-2.1406 6.2031-2.1406z"
         id="path2538" />
    </symbol>
    <symbol
       id="s"
       overflow="visible">
      <path
         d="m9.2188-6.8906c-1.0234 0-1.793 0.17188-2.3125 0.51562-0.51172 0.34375-0.76562 0.85547-0.76562 1.5312 0 0.625 0.20703 1.1172 0.625 1.4688 0.41406 0.34375 0.98828 0.51562 1.7188 0.51562 0.92578 0 1.7031-0.32812 2.3281-0.98438 0.63281-0.66406 0.95312-1.4922 0.95312-2.4844v-0.5625zm7.4688-1.8438v8.7344h-4.9219v-2.2656c-0.65625 0.92969-1.3984 1.6055-2.2188 2.0312-0.82422 0.41406-1.8242 0.625-3 0.625-1.5859 0-2.8711-0.45703-3.8594-1.375-0.99219-0.92578-1.4844-2.1289-1.4844-3.6094 0-1.7891 0.61328-3.1016 1.8438-3.9375 1.2383-0.84375 3.1797-1.2656 5.8281-1.2656h2.8906v-0.39062c0-0.76953-0.30859-1.332-0.92188-1.6875-0.61719-0.36328-1.5703-0.54688-2.8594-0.54688-1.0547 0-2.0312 0.10547-2.9375 0.3125-0.89844 0.21094-1.7305 0.52344-2.5 0.9375v-3.7344c1.0391-0.25 2.0859-0.44141 3.1406-0.57812 1.0625-0.13281 2.125-0.20312 3.1875-0.20312 2.7578 0 4.75 0.54688 5.9688 1.6406 1.2266 1.0859 1.8438 2.8555 1.8438 5.3125zm-4.8438-13.656h3.875l-5.0469 5.1406h-2.6875z"
         id="path2541" />
    </symbol>
    <symbol
       id="r"
       overflow="visible">
      <path
         d="m12.422-21.281v3.2188h-2.7031c-0.6875 0-1.1719 0.125-1.4531 0.375-0.27344 0.25-0.40625 0.6875-0.40625 1.3125v1.0625h4.1875v3.5h-4.1875v11.812h-4.8906v-11.812h-2.4375v-3.5h2.4375v-1.0625c0-1.6641 0.46094-2.8984 1.3906-3.7031 0.92578-0.80078 2.3672-1.2031 4.3281-1.2031z"
         id="path2544" />
    </symbol>
    <symbol
       id="q"
       overflow="visible">
      <path
         d="m16.547-12.766c0.61328-0.94531 1.3477-1.6719 2.2031-2.1719 0.85156-0.5 1.7891-0.75 2.8125-0.75 1.7578 0 3.0977 0.54688 4.0156 1.6406 0.92578 1.0859 1.3906 2.6562 1.3906 4.7188v9.3281h-4.9219v-7.9844-0.35938c0.007813-0.13281 0.015625-0.32031 0.015625-0.5625 0-1.082-0.16406-1.8633-0.48438-2.3438-0.3125-0.48828-0.82422-0.73438-1.5312-0.73438-0.92969 0-1.6484 0.38672-2.1562 1.1562-0.51172 0.76172-0.77344 1.8672-0.78125 3.3125v7.5156h-4.9219v-7.9844c0-1.6953-0.14844-2.7852-0.4375-3.2656-0.29297-0.48828-0.8125-0.73438-1.5625-0.73438-0.9375 0-1.6641 0.38672-2.1719 1.1562-0.51172 0.76172-0.76562 1.8594-0.76562 3.2969v7.5312h-4.9219v-15.312h4.9219v2.2344c0.60156-0.86328 1.2891-1.5156 2.0625-1.9531 0.78125-0.4375 1.6406-0.65625 2.5781-0.65625 1.0625 0 2 0.25781 2.8125 0.76562 0.8125 0.51172 1.4258 1.2305 1.8438 2.1562z"
         id="path2547" />
    </symbol>
    <symbol
       id="p"
       overflow="visible">
      <path
         d="m17.75-9.3281v9.3281h-4.9219v-7.1094c0-1.3438-0.03125-2.2656-0.09375-2.7656s-0.16797-0.86719-0.3125-1.1094c-0.1875-0.3125-0.44922-0.55469-0.78125-0.73438-0.32422-0.17578-0.69531-0.26562-1.1094-0.26562-1.0234 0-1.8242 0.39844-2.4062 1.1875-0.58594 0.78125-0.875 1.8711-0.875 3.2656v7.5312h-4.8906v-21.281h4.8906v8.2031c0.73828-0.88281 1.5195-1.5391 2.3438-1.9688 0.83203-0.42578 1.75-0.64062 2.75-0.64062 1.7695 0 3.1133 0.54688 4.0312 1.6406 0.91406 1.0859 1.375 2.6562 1.375 4.7188z"
         id="path2550" />
    </symbol>
    <symbol
       id="o"
       overflow="visible">
      <path
         d="m2.5781-20.406h5.875l7.4219 14v-14h4.9844v20.406h-5.875l-7.4219-14v14h-4.9844z"
         id="path2553" />
    </symbol>
    <symbol
       id="n"
       overflow="visible">
      <path
         d="m2.1875-5.9688v-9.3438h4.9219v1.5312c0 0.83594-0.007813 1.875-0.015625 3.125-0.011719 1.25-0.015625 2.0859-0.015625 2.5 0 1.2422 0.03125 2.1328 0.09375 2.6719 0.070313 0.54297 0.17969 0.93359 0.32812 1.1719 0.20703 0.32422 0.47266 0.57422 0.79688 0.75 0.32031 0.16797 0.69141 0.25 1.1094 0.25 1.0195 0 1.8203-0.39062 2.4062-1.1719 0.58203-0.78125 0.875-1.8672 0.875-3.2656v-7.5625h4.8906v15.312h-4.8906v-2.2188c-0.74219 0.89844-1.5234 1.5586-2.3438 1.9844-0.82422 0.41406-1.7344 0.625-2.7344 0.625-1.7617 0-3.1055-0.53906-4.0312-1.625-0.92969-1.082-1.3906-2.6602-1.3906-4.7344z"
         id="path2556" />
    </symbol>
    <symbol
       id="m"
       overflow="visible">
      <path
         d="m17.75-9.3281v9.3281h-4.9219v-7.1406c0-1.3203-0.03125-2.2344-0.09375-2.7344s-0.16797-0.86719-0.3125-1.1094c-0.1875-0.3125-0.44922-0.55469-0.78125-0.73438-0.32422-0.17578-0.69531-0.26562-1.1094-0.26562-1.0234 0-1.8242 0.39844-2.4062 1.1875-0.58594 0.78125-0.875 1.8711-0.875 3.2656v7.5312h-4.8906v-15.312h4.8906v2.2344c0.73828-0.88281 1.5195-1.5391 2.3438-1.9688 0.83203-0.42578 1.75-0.64062 2.75-0.64062 1.7695 0 3.1133 0.54688 4.0312 1.6406 0.91406 1.0859 1.375 2.6562 1.375 4.7188z"
         id="path2559" />
    </symbol>
    <symbol
       id="l"
       overflow="visible">
      <path
         d="m2.5781-20.406h8.7344c2.5938 0 4.582 0.57812 5.9688 1.7344 1.3945 1.1484 2.0938 2.7891 2.0938 4.9219 0 2.1367-0.69922 3.7812-2.0938 4.9375-1.3867 1.1562-3.375 1.7344-5.9688 1.7344h-3.4844v7.0781h-5.25zm5.25 3.8125v5.7031h2.9219c1.0195 0 1.8047-0.25 2.3594-0.75 0.5625-0.5 0.84375-1.2031 0.84375-2.1094 0-0.91406-0.28125-1.6172-0.84375-2.1094-0.55469-0.48828-1.3398-0.73438-2.3594-0.73438z"
         id="path2562" />
    </symbol>
    <symbol
       id="k"
       overflow="visible">
      <path
         d="m2.3594-15.312h4.8906v15.031c0 2.0508-0.49609 3.6172-1.4844 4.7031-0.98047 1.082-2.4062 1.625-4.2812 1.625h-2.4219v-3.2188h0.85938c0.92578 0 1.5625-0.21094 1.9062-0.625 0.35156-0.41797 0.53125-1.2461 0.53125-2.4844zm0-5.9688h4.8906v4h-4.8906z"
         id="path2565" />
    </symbol>
    <symbol
       id="j"
       overflow="visible">
      <path
         d="m14.719-14.828v3.9844c-0.65625-0.45703-1.3242-0.79688-2-1.0156-0.66797-0.21875-1.3594-0.32812-2.0781-0.32812-1.3672 0-2.4336 0.40234-3.2031 1.2031-0.76172 0.79297-1.1406 1.9062-1.1406 3.3438 0 1.4297 0.37891 2.543 1.1406 3.3438 0.76953 0.79297 1.8359 1.1875 3.2031 1.1875 0.75781 0 1.4844-0.10938 2.1719-0.32812 0.6875-0.22656 1.3203-0.56641 1.9062-1.0156v4c-0.76172 0.28125-1.5391 0.48828-2.3281 0.625-0.78125 0.14453-1.5742 0.21875-2.375 0.21875-2.7617 0-4.9219-0.70703-6.4844-2.125-1.5547-1.4141-2.3281-3.3828-2.3281-5.9062 0-2.5312 0.77344-4.5039 2.3281-5.9219 1.5625-1.4141 3.7227-2.125 6.4844-2.125 0.80078 0 1.5938 0.074219 2.375 0.21875 0.78125 0.13672 1.5547 0.35156 2.3281 0.64062z"
         id="path2568" />
    </symbol>
  </defs>
  <g
     id="g4227"
     transform="matrix(2.2377542,0,0,2.2377542,-433.22093,-268.26789)"
     style="fill:#e2e2e2;fill-opacity:1">
    <path
       d="m 438.22,266.21 c 3.9023,-18.246 -5.6016,-44.195 -10.664,-56.164 -0.74609,-1.7539 -2.3086,-3.0977 -4.2891,-3.6836 -2.1719,-0.64453 -4.5625,-0.29688 -6.4023,0.93359 -2.2734,1.5273 -5.0078,3.4336 -7.957,5.582 -6.5,-12.152 -15.523,-23.57 -21.09,-30.117 -2.6328,-3.0977 -8.3477,-3.1094 -11.016,-0.0352 -6.4727,-11.906 -15.262,-23.031 -20.727,-29.461 -1.3203,-1.5586 -3.3359,-2.4531 -5.5312,-2.4531 -2.1953,0 -4.2109,0.89062 -5.5312,2.4531 -5.4609,6.4219 -14.254,17.551 -20.719,29.449 -1.3203,-1.5273 -3.3164,-2.4062 -5.4883,-2.4062 -2.1953,0 -4.207,0.89453 -5.5273,2.4531 -5.3945,6.3398 -14.023,17.266 -20.469,28.996 -1.9375,-1.5742 -3.7578,-3.0117 -5.332,-4.2188 -1.7148,-1.3164 -4.043,-1.8047 -6.2383,-1.3164 -2.043,0.46094 -3.7227,1.707 -4.6094,3.4219 -6.6797,12.977 -20.137,42.844 -13.664,61.32 -5.3984,16.609 -9.1719,37.453 0.24219,49.062 4.6211,5.6992 11.82,8.5586 21.5,8.5586 1.1328,0 2.3867,-0.14453 3.5859,-0.22266 0.41016,4.75 1.6641,9.1055 4.1992,12.691 4.582,6.4727 12.512,9.7344 23.656,9.7344 1.7734,0 3.6328,-0.0859 5.5781,-0.25391 l -0.0273,0.0664 c 13.777,5.4141 20.766,18.277 20.766,38.23 v 12.938 h 17.242 v -12.938 c 0,-20.52 6.4453,-33.023 19.699,-38.23 l -0.10156,-0.25781 c 1.8477,0.12891 3.7422,0.30078 5.4492,0.30078 12.859,0 21.629,-3.6719 26.129,-10.965 1.9805,-3.2148 2.957,-6.9648 3.2266,-11.008 0.4375,0.0117 0.89062,0.0625 1.3164,0.0625 8.1133,0 14.508,-2.3789 19.098,-7.1328 11.926,-12.375 8.25,-37.754 3.6953,-55.391 z m -29.676,61.977 c -0.21875,3.1797 -0.93359,6.1094 -2.4414,8.5586 -4.1992,6.8086 -14.039,9.4375 -29.25,7.8672 -10.793,-1.125 -18.262,-3.7578 -22.379,-7.8242 -0.72266,-0.71094 -1.3438,-1.4609 -1.8594,-2.2617 -0.54297,-0.84375 -0.99219,-1.7305 -1.3008,-2.6719 -0.0898,-0.27344 -0.11328,-0.58203 -0.17969,-0.86719 -0.58984,-2.3672 -0.55859,-5 0.0781,-7.8672 0.33594,-1.5117 0.875,-3.0977 1.5078,-4.7148 0.23438,-0.60547 0.44141,-1.1992 0.71875,-1.8203 0.23438,-0.53125 0.52734,-1.082 0.78906,-1.625 0.19531,-0.40234 0.37891,-0.80078 0.59375,-1.2109 0.49219,-0.95312 1.0312,-1.9141 1.5977,-2.8828 2.1992,-3.7812 4.9219,-7.6836 8.0234,-11.613 0.61719,-0.78516 1.25,-1.5664 1.8945,-2.3516 0.64844,-0.78906 1.293,-1.5781 1.9727,-2.3633 2.9961,-3.4961 6.2227,-6.957 9.5586,-10.309 0.72656,-0.73438 1.4609,-1.4609 2.1992,-2.1836 0.71875,-0.70703 1.4375,-1.4062 2.1602,-2.1016 0.27344,-0.26172 0.54688,-0.51562 0.82422,-0.77734 0.72656,-0.68359 1.457,-1.3594 2.1914,-2.0273 0.35156,-0.32422 0.70703,-0.66016 1.0586,-0.98047 0.28125,-0.25781 0.71875,-0.40234 1.1797,-0.40234 0.10156,0 0.20312,0.004 0.30078,0.0156 0.37109,0.0508 0.65625,0.20312 0.85547,0.38672 0.0508,0.043 0.12891,0.0859 0.16406,0.13281 0.41016,0.63672 0.86719,1.3672 1.3789,2.1836 0.14453,0.23047 0.3125,0.51563 0.46094,0.75781 0.33984,0.55469 0.68359,1.1094 1.0547,1.7266 0.34766,0.57812 0.71875,1.2148 1.0859,1.8477 1.8555,3.1602 3.9258,6.9102 5.9805,11.027 0.42188,0.84375 0.83984,1.6914 1.2539,2.5586 0.39062,0.82422 0.77734,1.6641 1.1602,2.5039 3.5117,7.7266 6.4844,16.121 7.2812,23.613 0.10547,0.98438 0.15625,1.9492 0.17969,2.8945 0.0195,0.95703 -0.0273,1.8672 -0.0937,2.7812 z m -54.449,60.645 v 7.3359 h -6.043 v -7.3359 c 0,-18.57 -5.9766,-32.043 -17.242,-39.633 1.8438,-0.35938 3.5938,-0.76172 5.2539,-1.2109 6.2891,-1.7031 11.266,-4.0273 14.773,-7.0234 3.1992,3.0312 7.668,5.3945 13.508,7.0234 1.8125,0.50391 3.7305,0.95703 5.7969,1.3281 -10.723,7.4023 -16.047,20.363 -16.047,39.516 z m -60.324,-61.043 c -0.0781,-0.89062 -0.0859,-1.8203 -0.0898,-2.75 -0.004,-0.94141 0.0117,-1.8867 0.0742,-2.8672 0.48827,-7.4766 2.86329,-15.793 5.73439,-23.426 0.32032,-0.85156 0.63282,-1.7031 0.96484,-2.5352 0.35156,-0.89453 0.71875,-1.7656 1.082,-2.625 1.4453,-3.457 2.9102,-6.6523 4.2656,-9.4414 0.57031,-1.1719 1.1094,-2.25 1.61721,-3.2578 0.14452,-0.28125 0.28125,-0.54688 0.42187,-0.8125 0.49219,-0.95703 0.94531,-1.8242 1.3555,-2.5859 0.0273,-0.0117 0.0625,-0.0156 0.0898,-0.0273 -0.0156,-0.0156 -0.0352,-0.0352 -0.0508,-0.0547 0.12891,-0.23438 0.27344,-0.51953 0.39062,-0.73828 0.12891,-0.23438 0.46875,-0.4375 0.89062,-0.51953 0.14453,-0.0273 0.29688,-0.043 0.44141,-0.043 0.42969,0 0.83984,0.125 1.1367,0.35938 0.004,0.004 0.0117,0.004 0.0117,0.0117 0.0273,0.0234 0.0508,0.043 0.0781,0.0625 0.8125,0.64453 1.6172,1.3164 2.4258,1.9766 0.80078,0.65625 1.5977,1.3164 2.3984,1.9883 0.42188,0.35156 0.83984,0.71875 1.2617,1.0742 0.75781,0.64844 1.5195,1.293 2.2695,1.9492 0.76172,0.66797 1.5117,1.3438 2.2617,2.0234 3.293,2.9688 6.4688,6.0156 9.4531,9.0938 0.75781,0.77734 1.5,1.5586 2.2305,2.3398 0.71094,0.76562 1.3945,1.5352 2.0781,2.3008 3.5,3.9375 6.5859,7.8555 9.043,11.652 0.62109,0.96484 1.1914,1.9102 1.7305,2.8555 0.24219,0.42188 0.50781,0.84375 0.73437,1.2617 -0.21094,0.50781 -0.44922,1.0195 -0.64453,1.5273 -2.3086,6.0273 -3.1211,11.867 -1.4336,17.02 0.33984,1.043 0.80469,2.0273 1.332,2.9805 -4.0391,3.5742 -10.793,6.1602 -20.332,7.6758 -15.141,2.4062 -25.211,0.24219 -29.934,-6.4219 -1.9609,-2.7812 -2.957,-6.2266 -3.2891,-10.047 z m -26.219,-11.277 c -7.043,-8.6914 -4.7891,-24.809 -0.77344,-38.797 0.3125,-1.0938 0.62891,-2.1719 0.95703,-3.2305 0.37891,-1.2266 0.77344,-2.4414 1.1719,-3.6172 2.3242,-6.8594 4.7891,-12.672 6.2891,-16.016 0.0898,-0.20703 0.38672,-0.41016 0.75781,-0.50781 0.19141,-0.0508 0.39062,-0.0781 0.58203,-0.0781 0.39844,0 0.77734,0.11328 1.0742,0.3125 3.4883,2.4375 6.9844,5.0234 10.41,7.6953 0.76172,0.59375 1.5234,1.1797 2.2734,1.7812 0.75781,0.60547 1.4961,1.2227 2.2383,1.8359 3.9609,3.2578 7.7266,6.6016 11.176,9.9727 -0.55469,1.0469 -1.1328,2.1719 -1.7422,3.375 -0.50391,0.99609 -1.0195,2.0508 -1.5469,3.1406 -0.46875,0.97266 -0.94141,1.9766 -1.4219,3.0117 -0.85156,1.8477 -1.707,3.7734 -2.5469,5.7891 -0.36328,0.86719 -0.72266,1.7539 -1.0742,2.6445 -0.34766,0.875 -0.69531,1.7422 -1.0312,2.6367 -3.2188,8.5469 -5.7773,17.875 -6.1484,26.395 -9.7031,0.70312 -16.641,-1.4023 -20.645,-6.3438 z m 15.395,-104.87 c 0.42188,0 0.82422,0.11719 1.1211,0.34766 2.043,1.5664 4.082,3.2031 6.1094,4.8672 0.73828,0.60547 1.4766,1.2031 2.207,1.8203 0.73438,0.61719 1.457,1.25 2.1797,1.875 4.1992,3.6289 8.2422,7.3867 11.938,11.184 -3.8906,5.0625 -8.1719,11.09 -11.938,17.5 -0.47656,0.8125 -0.92969,1.6367 -1.3906,2.457 -0.46094,0.81641 -0.90625,1.6367 -1.3438,2.4648 -0.5,0.95312 -0.98047,1.9023 -1.4453,2.8555 -3.5859,-2.7539 -6.8867,-5.1523 -9.5664,-7.0234 -1.7969,-1.2539 -4.1719,-1.6367 -6.3633,-1.043 -2,0.55469 -3.5938,1.8711 -4.375,3.6172 -0.98047,2.1836 -2.1289,4.8828 -3.3086,7.875 -0.29688,-17.062 10.641,-40.078 14.828,-48.215 0.11719,-0.23047 0.44922,-0.42969 0.85156,-0.51953 0.17188,-0.043 0.33203,-0.0625 0.49609,-0.0625 z m 138.72,0.0859 c 0.35938,0.10547 0.64453,0.30078 0.72656,0.50391 2.9297,6.9102 9.6641,24.277 10.961,39.715 -0.71875,-0.81641 -1.5859,-1.5117 -2.6836,-1.9258 -2.1406,-0.80469 -4.582,-0.60938 -6.5312,0.52734 -3.4648,2.0273 -7.9258,4.7539 -12.73,7.9414 -0.67188,-1.457 -1.3945,-2.9023 -2.1562,-4.3438 -0.4375,-0.82813 -0.88672,-1.6445 -1.3438,-2.4648 -0.46094,-0.82422 -0.91406,-1.6445 -1.3906,-2.457 -3.7695,-6.4062 -8.043,-12.438 -11.934,-17.5 3.8203,-3.5156 7.9922,-7.0039 12.332,-10.367 0.73828,-0.57031 1.4961,-1.1328 2.2461,-1.6953 0.75781,-0.57031 1.5,-1.1406 2.2617,-1.7031 2.8281,-2.0781 5.6992,-4.0938 8.5586,-6.0195 0.29688,-0.20312 0.67188,-0.30078 1.0586,-0.30078 0.21094,0 0.42578,0.0352 0.625,0.0898 z m -109.52,21.867 c 0.59766,-0.76172 1.1875,-1.5195 1.7344,-2.1992 1.4102,-1.7578 2.6641,-3.2656 3.6523,-4.418 0.24609,-0.29688 0.73438,-0.47656 1.2656,-0.47656 0.53122,0 1.0195,0.17969 1.2695,0.47656 0.75781,0.89062 1.707,2.0391 2.7344,3.293 0.59766,0.73437 1.2266,1.5195 1.8984,2.3633 0.61719,0.77734 1.25,1.5859 1.9102,2.4453 3.1016,4.0391 6.6211,8.9023 9.8906,14.125 -1.1211,1.4961 -2.2461,3.0586 -3.3867,4.6758 -0.75,1.0703 -1.4961,2.1562 -2.2383,3.2695 -0.26953,0.40234 -0.54297,0.80469 -0.8125,1.2227 -0.41406,0.63281 -0.82422,1.2539 -1.2305,1.8984 -0.39844,0.62109 -0.77734,1.2617 -1.1719,1.8945 -0.45312,0.74609 -0.91406,1.4766 -1.3594,2.2344 -0.47656,0.8125 -0.92969,1.6367 -1.3906,2.457 -0.46094,0.81641 -0.90625,1.6367 -1.3438,2.4648 -1.0078,1.9141 -1.9258,3.8477 -2.7812,5.7773 -0.13281,0.30859 -0.26953,0.61719 -0.40234,0.91797 -0.14453,-0.125 -0.29297,-0.24609 -0.4375,-0.36328 -0.77344,-0.64844 -1.5234,-1.2695 -2.2383,-1.8555 -0.72656,-0.59375 -1.4609,-1.1914 -2.1211,-1.7188 -1.6758,-1.3398 -3.9805,-1.8633 -6.1836,-1.4297 -0.76562,0.15625 -1.4219,0.51953 -2.0703,0.88672 -4.0703,-3.9609 -8.3711,-7.6836 -12.488,-11.016 0.55469,-1.1719 1.125,-2.3359 1.7422,-3.5 0.42969,-0.8125 0.875,-1.625 1.3281,-2.4375 0.46484,-0.82422 0.93359,-1.6367 1.418,-2.4531 3.5391,-5.9766 7.5195,-11.613 11.059,-16.262 0.60156,-0.78906 1.1836,-1.543 1.7539,-2.2734 z m 76.621,-0.21875 c 0.56641,0.72266 1.1484,1.4727 1.7461,2.2617 3.5781,4.6875 7.6328,10.422 11.227,16.492 0.48047,0.81641 0.95312,1.6289 1.418,2.4531 0.45312,0.80469 0.89453,1.6172 1.3281,2.4375 0.8125,1.5391 1.5781,3.0859 2.2852,4.625 -4.6992,3.2812 -9.5312,6.9336 -14.066,10.84 -1.082,-1.1641 -2.4805,-2.043 -4.1875,-2.2695 -2.2383,-0.30859 -4.4141,0.35156 -5.9883,1.7852 -0.11328,0.10156 -0.24609,0.23047 -0.35938,0.33203 -0.66797,0.60547 -1.3594,1.2422 -2.0938,1.9336 -0.0352,0.0351 -0.0664,0.0625 -0.10156,0.0937 -0.0391,-0.0859 -0.0742,-0.16797 -0.11328,-0.25391 -0.73438,-1.6016 -1.5195,-3.2031 -2.3516,-4.793 -0.4375,-0.82812 -0.88672,-1.6445 -1.3438,-2.4648 -0.46094,-0.82422 -0.91406,-1.6445 -1.3906,-2.457 -0.77734,-1.3281 -1.5859,-2.625 -2.4023,-3.9219 -0.043,-0.0664 -0.0859,-0.14062 -0.12891,-0.20703 -0.67188,-1.0586 -1.3555,-2.0898 -2.043,-3.1211 -0.0508,-0.0742 -0.0937,-0.14453 -0.14453,-0.21875 -0.69922,-1.043 -1.3945,-2.0547 -2.0938,-3.0586 -1.1367,-1.625 -2.2695,-3.1797 -3.3867,-4.6797 3.2773,-5.2266 6.7891,-10.086 9.8906,-14.125 0.66797,-0.86328 1.293,-1.668 1.9102,-2.4453 0.67188,-0.84375 1.3008,-1.6289 1.8984,-2.3633 1.0234,-1.2539 1.9766,-2.4023 2.7344,-3.293 0.25391,-0.29688 0.73438,-0.47656 1.2656,-0.47656 0.53122,0 1.0195,0.17969 1.2695,0.47656 0.94141,1.1094 2.1445,2.5547 3.4883,4.2227 0.55078,0.69531 1.1406,1.4414 1.7344,2.1953 z m -28.051,61.512 c -0.57812,0.71875 -1.1367,1.4492 -1.6953,2.1797 -2.9961,3.8906 -5.7617,7.918 -8.0234,11.969 -2.5078,-4.0586 -5.5625,-8.0938 -8.9141,-11.973 -0.60938,-0.71094 -1.2148,-1.4219 -1.8438,-2.1172 -0.66797,-0.74609 -1.3477,-1.4688 -2.0312,-2.1953 -4.457,-4.7539 -9.1211,-9.1719 -13.406,-12.945 1.0117,-2.5273 2.1992,-5.0664 3.5391,-7.6055 0.42969,-0.8125 0.875,-1.625 1.3281,-2.4375 0.46484,-0.82422 0.93359,-1.6406 1.418,-2.4531 1.7695,-2.9922 3.6406,-5.8867 5.5312,-8.6289 0.94531,-1.3789 1.8828,-2.7031 2.8164,-3.9805 0.0859,-0.0352 0.17188,-0.0664 0.25391,-0.10547 -0.0273,-0.043 -0.0508,-0.0937 -0.0781,-0.14062 0.61719,-0.84375 1.2227,-1.6641 1.8125,-2.457 0.61719,-0.81641 1.2305,-1.6406 1.8242,-2.4023 1.9531,-2.5273 3.6797,-4.6328 5.0781,-6.3047 0.32031,-0.38672 0.67188,-0.80469 0.95312,-1.1367 0.19531,-0.23438 0.56641,-0.37109 0.96875,-0.42578 0.10156,-0.0156 0.19531,-0.0508 0.30078,-0.0508 0.10547,0 0.19531,0.0391 0.30078,0.0508 0.40234,0.0547 0.76563,0.19141 0.96484,0.42578 0.28125,0.33203 0.63281,0.75 0.95312,1.1367 1.3984,1.6758 3.125,3.7812 5.0781,6.3047 0.58984,0.76172 1.2031,1.5781 1.8242,2.4023 0.59766,0.79688 1.1992,1.6133 1.8125,2.4531 0.0625,0.0859 0.11719,0.16406 0.17969,0.24609 0.92969,1.2812 1.8633,2.6094 2.8164,3.9805 1.8867,2.7422 3.7578,5.6406 5.5312,8.6289 0.48047,0.81641 0.95703,1.6289 1.418,2.4531 0.45312,0.80469 0.89453,1.6172 1.3281,2.4375 1.0977,2.082 2.0938,4.168 2.9844,6.2422 -4.1211,4.0469 -8.7344,8.8945 -13.145,14.172 -0.63672,0.75391 -1.2617,1.5039 -1.8789,2.2773 z m -1.0547,-83.48 c 0.59766,0.79688 1.1992,1.6133 1.8125,2.457 2.1562,2.957 4.3867,6.1836 6.5312,9.5742 0.50781,0.80469 0.99609,1.625 1.4883,2.4453 0.48047,0.80078 0.97266,1.5977 1.4375,2.4062 0.24609,0.42578 0.46484,0.86328 0.70703,1.293 -3.3594,4.2578 -7.1328,9.3594 -10.684,14.891 -1.7852,-2.2578 -3.457,-4.2734 -4.8828,-5.957 -0.71094,-0.83984 -1.6367,-1.4609 -2.6641,-1.8828 -0.0625,-0.0273 -0.13281,-0.0391 -0.20312,-0.0625 -0.8125,-0.30078 -1.6758,-0.48828 -2.5859,-0.5 -0.0273,0 -0.0508,-0.004 -0.0781,-0.004 -0.0273,0 -0.0508,0.004 -0.0781,0.004 -0.91406,0.0117 -1.7734,0.19531 -2.5859,0.5 -0.0664,0.0234 -0.13281,0.0391 -0.19531,0.0625 -1.0352,0.42188 -1.9531,1.043 -2.6719,1.8828 -1.4336,1.6875 -3.0977,3.7031 -4.8828,5.957 -3.5508,-5.5312 -7.332,-10.633 -10.684,-14.891 0.24219,-0.42969 0.46094,-0.86328 0.70703,-1.293 0.46484,-0.8125 0.95312,-1.6055 1.4375,-2.4062 0.49219,-0.82422 0.98438,-1.6406 1.4961,-2.4453 2.1445,-3.3945 4.375,-6.6211 6.5312,-9.5742 0.61719,-0.84375 1.2227,-1.6641 1.8125,-2.457 0.61719,-0.81641 1.2305,-1.6406 1.8203,-2.3984 2.4023,-3.1016 4.5234,-5.6719 6.0312,-7.4414 0.24609,-0.29687 0.73438,-0.47656 1.2695,-0.47656 0.53125,0 1.0195,0.18359 1.2656,0.47656 1.5078,1.7734 3.6289,4.3398 6.0352,7.4414 0.58203,0.75391 1.1992,1.5781 1.8125,2.3984 z m 46.648,85.266 c -0.38672,-0.85156 -0.77344,-1.6914 -1.1719,-2.5273 -0.39844,-0.83984 -0.79688,-1.6797 -1.1992,-2.5039 -1.2383,-2.5039 -2.5039,-4.8828 -3.7461,-7.1406 -0.59766,-1.0938 -1.1914,-2.1328 -1.7734,-3.1523 -0.67578,-1.1758 -1.332,-2.2891 -1.9727,-3.3555 -0.17969,-0.30078 -0.36328,-0.60547 -0.54297,-0.89453 3.9648,-3.4375 8.3828,-6.8477 13.035,-10.148 0.76562,-0.54297 1.5586,-1.082 2.3359,-1.6172 0.77344,-0.53125 1.5469,-1.0703 2.3281,-1.5977 4.375,-2.9336 8.8828,-5.75 13.355,-8.3594 0.28516,-0.16797 0.63672,-0.25391 0.99609,-0.25391 0.25391,0 0.50391,0.0391 0.73828,0.12891 0.30859,0.11719 0.54688,0.30078 0.59766,0.47656 0.80469,2.4258 1.9648,6.1484 3.1367,10.562 0.41406,1.5508 0.82422,3.1797 1.2266,4.8945 0.3125,1.332 0.60938,2.6992 0.90234,4.0977 3.1016,15.004 4.5469,33.477 -4.0781,42.414 -3.7305,3.8633 -9.2383,5.6602 -16.438,5.3984 -0.67969,-8.4883 -3.8594,-17.832 -7.7305,-26.422 z m -28.723,-106.14 c 0.69922,-0.86719 1.3555,-1.668 1.9609,-2.3984 0.52734,-0.63281 1.0352,-1.2422 1.4688,-1.7539 0.25391,-0.29688 0.73438,-0.47656 1.2656,-0.47656 0.53122,0 1.0195,0.17969 1.2695,0.47656 4.4336,5.2188 14.168,17.293 20.836,29.863 -4.3164,3.2969 -8.8867,7.0391 -13.281,11.066 -1.1758,-1.4453 -2.2969,-2.8125 -3.2891,-3.9766 -1.5977,-1.8828 -4.3047,-2.4883 -6.8086,-2.0938 -1.6406,0.25781 -3.207,0.86328 -4.2578,2.0938 -0.41406,0.48828 -0.88672,1.0547 -1.332,1.5977 -0.29297,-0.50781 -0.57031,-1.0312 -0.86719,-1.5391 -0.48828,-0.81641 -0.99609,-1.6133 -1.4961,-2.418 -2.7422,-4.4258 -5.6562,-8.6055 -8.4688,-12.359 3.6953,-5.9023 7.6953,-11.336 11.066,-15.637 0.66797,-0.85547 1.3203,-1.6836 1.9336,-2.4453 z m -28.316,-33.645 c 0.25391,-0.29688 0.73437,-0.47656 1.2695,-0.47656 0.53125,0 1.0117,0.17969 1.2656,0.47656 4.5078,5.3047 14.488,17.672 21.164,30.453 -3.668,4.5547 -7.9727,10.266 -12.012,16.547 -1.7852,-2.2578 -3.457,-4.2773 -4.8906,-5.957 -1.3203,-1.5586 -3.3359,-2.4453 -5.5273,-2.4531 -2.1953,0 -4.2109,0.89062 -5.5312,2.4531 -1.4336,1.6875 -3.0977,3.7031 -4.8828,5.957 -4.0312,-6.2812 -8.3438,-11.996 -12.008,-16.547 6.6641,-12.777 16.648,-25.148 21.152,-30.453 z m -31.738,29.5 c 0.24609,-0.29688 0.73438,-0.47656 1.2656,-0.47656 0.53122,0 1.0195,0.17969 1.2695,0.47656 0.42969,0.50781 0.94141,1.1211 1.4688,1.7539 0.59766,0.72266 1.2539,1.5234 1.9531,2.3984 0.61719,0.76172 1.2656,1.5898 1.9375,2.4453 3.3711,4.3047 7.3633,9.7383 11.066,15.637 -2.8047,3.7578 -5.7188,7.9336 -8.4609,12.359 -0.5,0.80469 -1.0078,1.6016 -1.4961,2.418 -0.30078,0.50781 -0.57812,1.0234 -0.86719,1.5391 -0.45312,-0.54297 -0.91797,-1.1094 -1.332,-1.5977 -1.1094,-1.3047 -2.7109,-2.1055 -4.4844,-2.3398 -0.34766,-0.043 -0.6875,-0.10547 -1.0469,-0.10547 -2.1953,0 -4.207,0.89453 -5.5273,2.4531 -0.98047,1.1523 -2.1016,2.5078 -3.2656,3.9414 -4.2852,-4.3555 -8.7344,-8.4102 -12.836,-11.906 6.6367,-12.258 16.023,-23.898 20.355,-28.996 z"
       id="path2573"
       style="fill:#e2e2e2;fill-opacity:1" />
    <path
       d="m 400.96,324.89 c 0,2.0156 -3.0234,2.0156 -3.0234,0 0,-2.0156 3.0234,-2.0156 3.0234,0"
       id="path2575"
       style="fill:#e2e2e2;fill-opacity:1" />
    <path
       d="m 402.47,312.87 c 0,2.0156 -3.0234,2.0156 -3.0234,0 0,-2.0156 3.0234,-2.0156 3.0234,0"
       id="path2577"
       style="fill:#e2e2e2;fill-opacity:1" />
    <path
       d="m 382.37,311.36 c 0,2.0156 -3.0234,2.0156 -3.0234,0 0,-2.0156 3.0234,-2.0156 3.0234,0"
       id="path2579"
       style="fill:#e2e2e2;fill-opacity:1" />
    <path
       d="m 401.73,340.36 c 0,2.0156 -3.0273,2.0156 -3.0273,0 0,-2.0156 3.0273,-2.0156 3.0273,0"
       id="path2581"
       style="fill:#e2e2e2;fill-opacity:1" />
    <path
       d="m 407.01,321.44 c 0,2.0156 -3.0234,2.0156 -3.0234,0 0,-2.0156 3.0234,-2.0156 3.0234,0"
       id="path2583"
       style="fill:#e2e2e2;fill-opacity:1" />
    <path
       d="m 403.98,329.35 c 0,2.0156 -3.0234,2.0156 -3.0234,0 0,-2.0156 3.0234,-2.0156 3.0234,0"
       id="path2585"
       style="fill:#e2e2e2;fill-opacity:1" />
    <path
       d="m 406.43,335.11 c 0,2.0156 -3.0234,2.0156 -3.0234,0 0,-2.0156 3.0234,-2.0156 3.0234,0"
       id="path2587"
       style="fill:#e2e2e2;fill-opacity:1" />
    <path
       d="m 402.47,320.43 c 0,2.0156 -3.0234,2.0156 -3.0234,0 0,-2.0195 3.0234,-2.0195 3.0234,0"
       id="path2589"
       style="fill:#e2e2e2;fill-opacity:1" />
    <path
       d="m 406.43,315.89 c 0,2.0156 -3.0234,2.0156 -3.0234,0 0,-2.0156 3.0234,-2.0156 3.0234,0"
       id="path2591"
       style="fill:#e2e2e2;fill-opacity:1" />
    <path
       d="m 407.94,327.34 c 0,2.0156 -3.0234,2.0156 -3.0234,0 0,-2.0156 3.0234,-2.0156 3.0234,0"
       id="path2593"
       style="fill:#e2e2e2;fill-opacity:1" />
    <path
       d="m 391.3,341.88 c 0,2.0156 -3.0234,2.0156 -3.0234,0 0,-2.0156 3.0234,-2.0156 3.0234,0"
       id="path2595"
       style="fill:#e2e2e2;fill-opacity:1" />
    <path
       d="m 400.96,335.24 c 0,2.0195 -3.0234,2.0195 -3.0234,0 0,-2.0156 3.0234,-2.0156 3.0234,0"
       id="path2597"
       style="fill:#e2e2e2;fill-opacity:1" />
    <path
       d="m 396.11,338.27 c 0,2.0156 -3.0234,2.0156 -3.0234,0 0,-2.0156 3.0234,-2.0156 3.0234,0"
       id="path2599"
       style="fill:#e2e2e2;fill-opacity:1" />
    <path
       d="m 398.71,329.35 c 0,2.0156 -3.0234,2.0156 -3.0234,0 0,-2.0156 3.0234,-2.0156 3.0234,0"
       id="path2601"
       style="fill:#e2e2e2;fill-opacity:1" />
    <path
       d="m 391.84,325.31 c 0,2.0156 -3.0234,2.0156 -3.0234,0 0,-2.0156 3.0234,-2.0156 3.0234,0"
       id="path2603"
       style="fill:#e2e2e2;fill-opacity:1" />
    <path
       d="m 376,338.29 c 0,2.0156 -3.0234,2.0156 -3.0234,0 0,-2.0156 3.0234,-2.0156 3.0234,0"
       id="path2605"
       style="fill:#e2e2e2;fill-opacity:1" />
    <path
       d="m 390.33,336.76 c 0,2.0156 -3.0234,2.0156 -3.0234,0 0,-2.0195 3.0234,-2.0195 3.0234,0"
       id="path2607"
       style="fill:#e2e2e2;fill-opacity:1" />
    <path
       d="m 391.84,299.99 c 0,2.0156 -3.0234,2.0156 -3.0234,0 0,-2.0156 3.0234,-2.0156 3.0234,0"
       id="path2609"
       style="fill:#e2e2e2;fill-opacity:1" />
    <path
       d="m 391.3,287.62 c 0,2.0156 -3.0234,2.0156 -3.0234,0 0,-2.0156 3.0234,-2.0156 3.0234,0"
       id="path2611"
       style="fill:#e2e2e2;fill-opacity:1" />
    <path
       d="m 394.32,333.73 c 0,2.0156 -3.0234,2.0156 -3.0234,0 0,-2.0156 3.0234,-2.0156 3.0234,0"
       id="path2613"
       style="fill:#e2e2e2;fill-opacity:1" />
    <path
       d="m 383.88,341.88 c 0,2.0156 -3.0234,2.0156 -3.0234,0 0,-2.0156 3.0234,-2.0156 3.0234,0"
       id="path2615"
       style="fill:#e2e2e2;fill-opacity:1" />
    <path
       d="m 378.76,329.35 c 0,2.0156 -3.0273,2.0156 -3.0273,0 0,-2.0156 3.0273,-2.0156 3.0273,0"
       id="path2617"
       style="fill:#e2e2e2;fill-opacity:1" />
    <path
       d="m 367.61,336.81 c 0,2.0156 -3.0234,2.0156 -3.0234,0 0,-2.0156 3.0234,-2.0156 3.0234,0"
       id="path2619"
       style="fill:#e2e2e2;fill-opacity:1" />
    <path
       d="m 382.37,336.76 c 0,2.0156 -3.0234,2.0156 -3.0234,0 0,-2.0195 3.0234,-2.0195 3.0234,0"
       id="path2621"
       style="fill:#e2e2e2;fill-opacity:1" />
    <path
       d="m 391.3,315.89 c 0,2.0156 -3.0234,2.0156 -3.0234,0 0,-2.0156 3.0234,-2.0156 3.0234,0"
       id="path2623"
       style="fill:#e2e2e2;fill-opacity:1" />
    <path
       d="m 387.2,331.63 c 0,2.0156 -3.0234,2.0156 -3.0234,0 0,-2.0156 3.0234,-2.0156 3.0234,0"
       id="path2625"
       style="fill:#e2e2e2;fill-opacity:1" />
    <path
       d="m 426.56,247.77 c 0,2.0156 -3.0234,2.0156 -3.0234,0 0,-2.0156 3.0234,-2.0156 3.0234,0"
       id="path2627"
       style="fill:#e2e2e2;fill-opacity:1" />
    <path
       d="m 427.64,234.18 c 0,2.0156 -3.0234,2.0156 -3.0234,0 0,-2.0156 3.0234,-2.0156 3.0234,0"
       id="path2629"
       style="fill:#e2e2e2;fill-opacity:1" />
    <path
       d="m 434.5,286.11 c 0,2.0156 -3.0273,2.0156 -3.0273,0 0,-2.0156 3.0273,-2.0156 3.0273,0"
       id="path2631"
       style="fill:#e2e2e2;fill-opacity:1" />
    <path
       d="m 433.17,309.42 c 0,2.0156 -3.0234,2.0156 -3.0234,0 0,-2.0156 3.0234,-2.0156 3.0234,0"
       id="path2633"
       style="fill:#e2e2e2;fill-opacity:1" />
    <path
       d="m 428.11,240.97 c 0,2.0156 -3.0234,2.0156 -3.0234,0 0,-2.0156 3.0234,-2.0156 3.0234,0"
       id="path2635"
       style="fill:#e2e2e2;fill-opacity:1" />
    <path
       d="m 427.25,299.86 c 0,2.0156 -3.0273,2.0156 -3.0273,0 0,-2.0156 3.0273,-2.0156 3.0273,0"
       id="path2637"
       style="fill:#e2e2e2;fill-opacity:1" />
    <path
       d="m 432.98,302.38 c 0,2.0156 -3.0234,2.0156 -3.0234,0 0,-2.0156 3.0234,-2.0156 3.0234,0"
       id="path2639"
       style="fill:#e2e2e2;fill-opacity:1" />
    <path
       d="m 424.3,243.63 c 0,2.0156 -3.0273,2.0156 -3.0273,0 0,-2.0156 3.0273,-2.0156 3.0273,0"
       id="path2641"
       style="fill:#e2e2e2;fill-opacity:1" />
    <path
       d="m 423.62,237.65 c 0,2.0156 -3.0273,2.0156 -3.0273,0 0,-2.0156 3.0273,-2.0156 3.0273,0"
       id="path2643"
       style="fill:#e2e2e2;fill-opacity:1" />
    <path
       d="m 428.75,295.68 c 0,2.0156 -3.0234,2.0156 -3.0234,0 0,-2.0156 3.0234,-2.0156 3.0234,0"
       id="path2645"
       style="fill:#e2e2e2;fill-opacity:1" />
    <path
       d="m 426.62,317.68 c 0,2.0156 -3.0234,2.0156 -3.0234,0 0,-2.0156 3.0234,-2.0156 3.0234,0"
       id="path2647"
       style="fill:#e2e2e2;fill-opacity:1" />
    <path
       d="m 429.09,306.23 c 0,2.0156 -3.0234,2.0156 -3.0234,0 0,-2.0195 3.0234,-2.0195 3.0234,0"
       id="path2649"
       style="fill:#e2e2e2;fill-opacity:1" />
    <path
       d="m 427.64,311.76 c 0,2.0156 -3.0234,2.0156 -3.0234,0 0,-2.0156 3.0234,-2.0156 3.0234,0"
       id="path2651"
       style="fill:#e2e2e2;fill-opacity:1" />
    <path
       d="m 423.41,303.49 c 0,2.0156 -3.0234,2.0156 -3.0234,0 0,-2.0195 3.0234,-2.0195 3.0234,0"
       id="path2653"
       style="fill:#e2e2e2;fill-opacity:1" />
    <path
       d="m 417.95,252.64 c 0,2.0156 -3.0234,2.0156 -3.0234,0 0,-2.0156 3.0234,-2.0156 3.0234,0"
       id="path2655"
       style="fill:#e2e2e2;fill-opacity:1" />
    <path
       d="m 435.21,294.17 c 0,2.0156 -3.0234,2.0156 -3.0234,0 0,-2.0156 3.0234,-2.0156 3.0234,0"
       id="path2657"
       style="fill:#e2e2e2;fill-opacity:1" />
    <path
       d="m 422.4,314.62 c 0,2.0156 -3.0234,2.0156 -3.0234,0 0,-2.0156 3.0234,-2.0156 3.0234,0"
       id="path2659"
       style="fill:#e2e2e2;fill-opacity:1" />
    <path
       d="m 421.9,249.62 c 0,2.0156 -3.0234,2.0156 -3.0234,0 0,-2.0156 3.0234,-2.0156 3.0234,0"
       id="path2661"
       style="fill:#e2e2e2;fill-opacity:1" />
    <path
       d="m 422.11,225.69 c 0,2.0156 -3.0234,2.0156 -3.0234,0 0,-2.0195 3.0234,-2.0195 3.0234,0"
       id="path2663"
       style="fill:#e2e2e2;fill-opacity:1" />
    <path
       d="m 423.23,309.68 c 0,2.0156 -3.0234,2.0156 -3.0234,0 0,-2.0156 3.0234,-2.0156 3.0234,0"
       id="path2665"
       style="fill:#e2e2e2;fill-opacity:1" />
    <path
       d="m 417.95,242.12 c 0,2.0156 -3.0234,2.0156 -3.0234,0 0,-2.0156 3.0234,-2.0156 3.0234,0"
       id="path2667"
       style="fill:#e2e2e2;fill-opacity:1" />
    <path
       d="m 415.09,293.57 c 0,2.0156 -3.0234,2.0156 -3.0234,0 0,-2.0156 3.0234,-2.0156 3.0234,0"
       id="path2669"
       style="fill:#e2e2e2;fill-opacity:1" />
    <path
       d="m 420.89,318.97 c 0,2.0195 -3.0234,2.0195 -3.0234,0 0,-2.0156 3.0234,-2.0156 3.0234,0"
       id="path2671"
       style="fill:#e2e2e2;fill-opacity:1" />
    <path
       d="m 430.61,246.8 c 0,2.0156 -3.0234,2.0156 -3.0234,0 0,-2.0156 3.0234,-2.0156 3.0234,0"
       id="path2673"
       style="fill:#e2e2e2;fill-opacity:1" />
    <path
       d="m 426.13,286.11 c 0,2.0156 -3.0234,2.0156 -3.0234,0 0,-2.0156 3.0234,-2.0156 3.0234,0"
       id="path2675"
       style="fill:#e2e2e2;fill-opacity:1" />
    <path
       d="m 416.61,313.05 c 0,2.0156 -3.0234,2.0156 -3.0234,0 0,-2.0156 3.0234,-2.0156 3.0234,0"
       id="path2677"
       style="fill:#e2e2e2;fill-opacity:1" />
    <path
       d="m 304.21,322.2 c 0,2.0156 -3.0234,2.0156 -3.0234,0 0,-2.0156 3.0234,-2.0156 3.0234,0"
       id="path2679"
       style="fill:#e2e2e2;fill-opacity:1" />
    <path
       d="m 302.7,310.17 c 0,2.0156 -3.0234,2.0156 -3.0234,0 0,-2.0156 3.0234,-2.0156 3.0234,0"
       id="path2681"
       style="fill:#e2e2e2;fill-opacity:1" />
    <path
       d="m 321.29,317.4 c 0,2.0156 -3.0234,2.0156 -3.0234,0 0,-2.0156 3.0234,-2.0156 3.0234,0"
       id="path2683"
       style="fill:#e2e2e2;fill-opacity:1" />
    <path
       d="m 303.44,337.67 c 0,2.0156 -3.0234,2.0156 -3.0234,0 0,-2.0156 3.0234,-2.0156 3.0234,0"
       id="path2685"
       style="fill:#e2e2e2;fill-opacity:1" />
    <path
       d="m 298.17,318.75 c 0,2.0156 -3.0273,2.0156 -3.0273,0 0,-2.0156 3.0273,-2.0156 3.0273,0"
       id="path2687"
       style="fill:#e2e2e2;fill-opacity:1" />
    <path
       d="m 301.19,326.65 c 0,2.0156 -3.0234,2.0156 -3.0234,0 0,-2.0156 3.0234,-2.0156 3.0234,0"
       id="path2689"
       style="fill:#e2e2e2;fill-opacity:1" />
    <path
       d="m 298.75,332.41 c 0,2.0195 -3.0234,2.0195 -3.0234,0 0,-2.0156 3.0234,-2.0156 3.0234,0"
       id="path2691"
       style="fill:#e2e2e2;fill-opacity:1" />
    <path
       d="m 302.7,317.74 c 0,2.0156 -3.0234,2.0156 -3.0234,0 0,-2.0156 3.0234,-2.0156 3.0234,0"
       id="path2693"
       style="fill:#e2e2e2;fill-opacity:1" />
    <path
       d="m 298.75,313.2 c 0,2.0156 -3.0234,2.0156 -3.0234,0 0,-2.0156 3.0234,-2.0156 3.0234,0"
       id="path2695"
       style="fill:#e2e2e2;fill-opacity:1" />
    <path
       d="m 297.23,324.64 c 0,2.0156 -3.0234,2.0156 -3.0234,0 0,-2.0156 3.0234,-2.0156 3.0234,0"
       id="path2697"
       style="fill:#e2e2e2;fill-opacity:1" />
    <path
       d="m 313.33,341.88 c 0,2.0156 -3.0234,2.0156 -3.0234,0 0,-2.0156 3.0234,-2.0156 3.0234,0"
       id="path2699"
       style="fill:#e2e2e2;fill-opacity:1" />
    <path
       d="m 304.21,332.55 c 0,2.0156 -3.0234,2.0156 -3.0234,0 0,-2.0156 3.0234,-2.0156 3.0234,0"
       id="path2701"
       style="fill:#e2e2e2;fill-opacity:1" />
    <path
       d="m 308.01,339.18 c 0,2.0156 -3.0234,2.0156 -3.0234,0 0,-2.0156 3.0234,-2.0156 3.0234,0"
       id="path2703"
       style="fill:#e2e2e2;fill-opacity:1" />
    <path
       d="m 309.06,327.34 c 0,2.0156 -3.0234,2.0156 -3.0234,0 0,-2.0156 3.0234,-2.0156 3.0234,0"
       id="path2705"
       style="fill:#e2e2e2;fill-opacity:1" />
    <path
       d="m 313.33,322.62 c 0,2.0156 -3.0234,2.0156 -3.0234,0 0,-2.0156 3.0234,-2.0156 3.0234,0"
       id="path2707"
       style="fill:#e2e2e2;fill-opacity:1" />
    <path
       d="m 330.19,337.09 c 0,2.0156 -3.0234,2.0156 -3.0234,0 0,-2.0156 3.0234,-2.0156 3.0234,0"
       id="path2709"
       style="fill:#e2e2e2;fill-opacity:1" />
    <path
       d="m 317.19,337.09 c 0,2.0156 -3.0273,2.0156 -3.0273,0 0,-2.0156 3.0273,-2.0156 3.0273,0"
       id="path2711"
       style="fill:#e2e2e2;fill-opacity:1" />
    <path
       d="m 307.55,299.99 c 0,2.0156 -3.0234,2.0156 -3.0234,0 0,-2.0156 3.0234,-2.0156 3.0234,0"
       id="path2713"
       style="fill:#e2e2e2;fill-opacity:1" />
    <path
       d="m 314.85,295.66 c 0,2.0156 -3.0234,2.0156 -3.0234,0 0,-2.0156 3.0234,-2.0156 3.0234,0"
       id="path2715"
       style="fill:#e2e2e2;fill-opacity:1" />
    <path
       d="m 311.82,333.15 c 0,2.0156 -3.0234,2.0156 -3.0234,0 0,-2.0156 3.0234,-2.0156 3.0234,0"
       id="path2717"
       style="fill:#e2e2e2;fill-opacity:1" />
    <path
       d="m 322.39,341.88 c 0,2.0156 -3.0234,2.0156 -3.0234,0 0,-2.0156 3.0234,-2.0156 3.0234,0"
       id="path2719"
       style="fill:#e2e2e2;fill-opacity:1" />
    <path
       d="m 332.33,326.4 c 0,2.0156 -3.0273,2.0156 -3.0273,0 0,-2.0156 3.0273,-2.0156 3.0273,0"
       id="path2721"
       style="fill:#e2e2e2;fill-opacity:1" />
    <path
       d="m 337.56,334.12 c 0,2.0156 -3.0234,2.0156 -3.0234,0 0,-2.0156 3.0234,-2.0156 3.0234,0"
       id="path2723"
       style="fill:#e2e2e2;fill-opacity:1" />
    <path
       d="m 322.8,334.06 c 0,2.0156 -3.0234,2.0156 -3.0234,0 0,-2.0156 3.0234,-2.0156 3.0234,0"
       id="path2725"
       style="fill:#e2e2e2;fill-opacity:1" />
    <path
       d="m 310.58,314.38 c 0,2.0156 -3.0234,2.0156 -3.0234,0 0,-2.0156 3.0234,-2.0156 3.0234,0"
       id="path2727"
       style="fill:#e2e2e2;fill-opacity:1" />
    <path
       d="m 317.98,328.94 c 0,2.0156 -3.0234,2.0156 -3.0234,0 0,-2.0156 3.0234,-2.0156 3.0234,0"
       id="path2729"
       style="fill:#e2e2e2;fill-opacity:1" />
    <path
       d="m 275.63,243.02 c 0,2.0156 -3.0234,2.0156 -3.0234,0 0,-2.0156 3.0234,-2.0156 3.0234,0"
       id="path2731"
       style="fill:#e2e2e2;fill-opacity:1" />
    <path
       d="m 284.79,218.32 c 0,2.0156 -3.0234,2.0156 -3.0234,0 0,-2.0156 3.0234,-2.0156 3.0234,0"
       id="path2733"
       style="fill:#e2e2e2;fill-opacity:1" />
    <path
       d="m 269.27,285.54 c 0,2.0156 -3.0234,2.0156 -3.0234,0 0,-2.0156 3.0234,-2.0156 3.0234,0"
       id="path2735"
       style="fill:#e2e2e2;fill-opacity:1" />
    <path
       d="m 270.59,308.85 c 0,2.0156 -3.0273,2.0156 -3.0273,0 0,-2.0156 3.0273,-2.0156 3.0273,0"
       id="path2737"
       style="fill:#e2e2e2;fill-opacity:1" />
    <path
       d="m 277.07,238.27 c 0,2.0156 -3.0234,2.0156 -3.0234,0 0,-2.0156 3.0234,-2.0156 3.0234,0"
       id="path2739"
       style="fill:#e2e2e2;fill-opacity:1" />
    <path
       d="m 276.52,299.3 c 0,2.0156 -3.0234,2.0156 -3.0234,0 0,-2.0156 3.0234,-2.0156 3.0234,0"
       id="path2741"
       style="fill:#e2e2e2;fill-opacity:1" />
    <path
       d="m 270.78,301.8 c 0,2.0195 -3.0234,2.0195 -3.0234,0 0,-2.0156 3.0234,-2.0156 3.0234,0"
       id="path2743"
       style="fill:#e2e2e2;fill-opacity:1" />
    <path
       d="m 283.28,240.97 c 0,2.0156 -3.0234,2.0156 -3.0234,0 0,-2.0156 3.0234,-2.0156 3.0234,0"
       id="path2745"
       style="fill:#e2e2e2;fill-opacity:1" />
    <path
       d="m 281.77,234.18 c 0,2.0156 -3.0273,2.0156 -3.0273,0 0,-2.0156 3.0273,-2.0156 3.0273,0"
       id="path2747"
       style="fill:#e2e2e2;fill-opacity:1" />
    <path
       d="m 275.02,295.11 c 0,2.0156 -3.0273,2.0156 -3.0273,0 0,-2.0156 3.0273,-2.0156 3.0273,0"
       id="path2749"
       style="fill:#e2e2e2;fill-opacity:1" />
    <path
       d="m 277.14,317.11 c 0,2.0195 -3.0234,2.0195 -3.0234,0 0,-2.0156 3.0234,-2.0156 3.0234,0"
       id="path2751"
       style="fill:#e2e2e2;fill-opacity:1" />
    <path
       d="m 274.68,305.66 c 0,2.0156 -3.0234,2.0156 -3.0234,0 0,-2.0156 3.0234,-2.0156 3.0234,0"
       id="path2753"
       style="fill:#e2e2e2;fill-opacity:1" />
    <path
       d="m 276.12,311.19 c 0,2.0156 -3.0273,2.0156 -3.0273,0 0,-2.0156 3.0273,-2.0156 3.0273,0"
       id="path2755"
       style="fill:#e2e2e2;fill-opacity:1" />
    <path
       d="m 280.35,302.91 c 0,2.0156 -3.0234,2.0156 -3.0234,0 0,-2.0156 3.0234,-2.0156 3.0234,0"
       id="path2757"
       style="fill:#e2e2e2;fill-opacity:1" />
    <path
       d="m 288.68,250.43 c 0,2.0156 -3.0234,2.0156 -3.0234,0 0,-2.0195 3.0234,-2.0195 3.0234,0"
       id="path2759"
       style="fill:#e2e2e2;fill-opacity:1" />
    <path
       d="m 268.56,293.6 c 0,2.0156 -3.0234,2.0156 -3.0234,0 0,-2.0156 3.0234,-2.0156 3.0234,0"
       id="path2761"
       style="fill:#e2e2e2;fill-opacity:1" />
    <path
       d="m 281.37,314.05 c 0,2.0156 -3.0234,2.0156 -3.0234,0 0,-2.0156 3.0234,-2.0156 3.0234,0"
       id="path2763"
       style="fill:#e2e2e2;fill-opacity:1" />
    <path
       d="m 283.28,246.93 c 0,2.0156 -3.0234,2.0156 -3.0234,0 0,-2.0156 3.0234,-2.0156 3.0234,0"
       id="path2765"
       style="fill:#e2e2e2;fill-opacity:1" />
    <path
       d="m 289.66,227.33 c 0,2.0156 -3.0234,2.0156 -3.0234,0 0,-2.0195 3.0234,-2.0195 3.0234,0"
       id="path2767"
       style="fill:#e2e2e2;fill-opacity:1" />
    <path
       d="m 302.2,215.35 c 0,2.0156 -3.0234,2.0156 -3.0234,0 0,-2.0156 3.0234,-2.0156 3.0234,0"
       id="path2769"
       style="fill:#e2e2e2;fill-opacity:1" />
    <path
       d="m 310.31,219.83 c 0,2.0156 -3.0273,2.0156 -3.0273,0 0,-2.0156 3.0273,-2.0156 3.0273,0"
       id="path2771"
       style="fill:#e2e2e2;fill-opacity:1" />
    <path
       d="m 307.55,213.84 c 0,2.0156 -3.0234,2.0156 -3.0234,0 0,-2.0156 3.0234,-2.0156 3.0234,0"
       id="path2773"
       style="fill:#e2e2e2;fill-opacity:1" />
    <path
       d="m 307.55,207.84 c 0,2.0156 -3.0234,2.0156 -3.0234,0 0,-2.0156 3.0234,-2.0156 3.0234,0"
       id="path2775"
       style="fill:#e2e2e2;fill-opacity:1" />
    <path
       d="m 313.77,215.3 c 0,2.0156 -3.0273,2.0156 -3.0273,0 0,-2.0156 3.0273,-2.0156 3.0273,0"
       id="path2777"
       style="fill:#e2e2e2;fill-opacity:1" />
    <path
       d="m 280.54,309.11 c 0,2.0156 -3.0273,2.0156 -3.0273,0 0,-2.0156 3.0273,-2.0156 3.0273,0"
       id="path2779"
       style="fill:#e2e2e2;fill-opacity:1" />
    <path
       d="m 288.15,242.34 c 0,2.0156 -3.0234,2.0156 -3.0234,0 0,-2.0156 3.0234,-2.0156 3.0234,0"
       id="path2781"
       style="fill:#e2e2e2;fill-opacity:1" />
    <path
       d="m 285.71,298.48 c 0,2.0156 -3.0234,2.0156 -3.0234,0 0,-2.0156 3.0234,-2.0156 3.0234,0"
       id="path2783"
       style="fill:#e2e2e2;fill-opacity:1" />
    <path
       d="m 282.88,318.41 c 0,2.0156 -3.0234,2.0156 -3.0234,0 0,-2.0156 3.0234,-2.0156 3.0234,0"
       id="path2785"
       style="fill:#e2e2e2;fill-opacity:1" />
    <path
       d="m 273.51,247.77 c 0,2.0156 -3.0234,2.0156 -3.0234,0 0,-2.0156 3.0234,-2.0156 3.0234,0"
       id="path2787"
       style="fill:#e2e2e2;fill-opacity:1" />
    <path
       d="m 278.03,278.89 c 0,2.0156 -3.0234,2.0156 -3.0234,0 0,-2.0156 3.0234,-2.0156 3.0234,0"
       id="path2789"
       style="fill:#e2e2e2;fill-opacity:1" />
    <path
       d="m 287.16,312.48 c 0,2.0156 -3.0234,2.0156 -3.0234,0 0,-2.0156 3.0234,-2.0156 3.0234,0"
       id="path2791"
       style="fill:#e2e2e2;fill-opacity:1" />
    <path
       d="m 326.3,255.46 c 0,2.0156 -3.0234,2.0156 -3.0234,0 0,-2.0156 3.0234,-2.0156 3.0234,0"
       id="path2793"
       style="fill:#e2e2e2;fill-opacity:1" />
    <path
       d="m 362.21,229.45 c 0,2.0156 -3.0234,2.0156 -3.0234,0 0,-2.0156 3.0234,-2.0156 3.0234,0"
       id="path2795"
       style="fill:#e2e2e2;fill-opacity:1" />
    <path
       d="m 397.41,208.14 c 0,2.0156 -3.0234,2.0156 -3.0234,0 0,-2.0156 3.0234,-2.0156 3.0234,0"
       id="path2797"
       style="fill:#e2e2e2;fill-opacity:1" />
    <path
       d="m 400.96,213.84 c 0,2.0156 -3.0234,2.0156 -3.0234,0 0,-2.0156 3.0234,-2.0156 3.0234,0"
       id="path2799"
       style="fill:#e2e2e2;fill-opacity:1" />
    <path
       d="m 396.1,216.81 c 0,2.0156 -3.0234,2.0156 -3.0234,0 0,-2.0156 3.0234,-2.0156 3.0234,0"
       id="path2801"
       style="fill:#e2e2e2;fill-opacity:1" />
    <path
       d="m 400.22,217.62 c 0,2.0156 -3.0273,2.0156 -3.0273,0 0,-2.0156 3.0273,-2.0156 3.0273,0"
       id="path2803"
       style="fill:#e2e2e2;fill-opacity:1" />
    <path
       d="m 391.3,209.65 c 0,2.0156 -3.0234,2.0156 -3.0234,0 0,-2.0156 3.0234,-2.0156 3.0234,0"
       id="path2805"
       style="fill:#e2e2e2;fill-opacity:1" />
    <path
       d="m 360.7,238.27 c 0,2.0156 -3.0234,2.0156 -3.0234,0 0,-2.0156 3.0234,-2.0156 3.0234,0"
       id="path2807"
       style="fill:#e2e2e2;fill-opacity:1" />
    <path
       d="m 342.61,236.04 c 0,2.0156 -3.0234,2.0156 -3.0234,0 0,-2.0156 3.0234,-2.0156 3.0234,0"
       id="path2809"
       style="fill:#e2e2e2;fill-opacity:1" />
    <path
       d="m 349.58,230.74 c 0,2.0156 -3.0234,2.0156 -3.0234,0 0,-2.0156 3.0234,-2.0156 3.0234,0"
       id="path2811"
       style="fill:#e2e2e2;fill-opacity:1" />
    <path
       d="m 341.88,196.57 c 0,2.0156 -3.0234,2.0156 -3.0234,0 0,-2.0156 3.0234,-2.0156 3.0234,0"
       id="path2813"
       style="fill:#e2e2e2;fill-opacity:1" />
    <path
       d="m 341.88,189.17 c 0,2.0156 -3.0234,2.0156 -3.0234,0 0,-2.0156 3.0234,-2.0156 3.0234,0"
       id="path2815"
       style="fill:#e2e2e2;fill-opacity:1" />
    <path
       d="m 346.98,193.54 c 0,2.0156 -3.0234,2.0156 -3.0234,0 0,-2.0156 3.0234,-2.0156 3.0234,0"
       id="path2817"
       style="fill:#e2e2e2;fill-opacity:1" />
    <path
       d="m 360,195.05 c 0,2.0156 -3.0234,2.0156 -3.0234,0 0,-2.0156 3.0234,-2.0156 3.0234,0"
       id="path2819"
       style="fill:#e2e2e2;fill-opacity:1" />
    <path
       d="m 366.1,191.43 c 0,2.0156 -3.0273,2.0156 -3.0273,0 0,-2.0156 3.0273,-2.0156 3.0273,0"
       id="path2821"
       style="fill:#e2e2e2;fill-opacity:1" />
    <path
       d="m 365.5,235.69 c 0,2.0156 -3.0234,2.0156 -3.0234,0 0,-2.0156 3.0234,-2.0156 3.0234,0"
       id="path2823"
       style="fill:#e2e2e2;fill-opacity:1" />
    <path
       d="m 355.25,191 c 0,2.0156 -3.0234,2.0156 -3.0234,0 0,-2.0156 3.0234,-2.0156 3.0234,0"
       id="path2825"
       style="fill:#e2e2e2;fill-opacity:1" />
    <path
       d="m 360.7,187.66 c 0,2.0156 -3.0234,2.0156 -3.0234,0 0,-2.0156 3.0234,-2.0156 3.0234,0"
       id="path2827"
       style="fill:#e2e2e2;fill-opacity:1" />
    <path
       d="m 353.02,234.53 c 0,2.0156 -3.0234,2.0156 -3.0234,0 0,-2.0156 3.0234,-2.0156 3.0234,0"
       id="path2829"
       style="fill:#e2e2e2;fill-opacity:1" />
    <path
       d="m 336.87,190.68 c 0,2.0156 -3.0234,2.0156 -3.0234,0 0,-2.0156 3.0234,-2.0156 3.0234,0"
       id="path2831"
       style="fill:#e2e2e2;fill-opacity:1" />
    <path
       d="m 344.9,229.45 c 0,2.0156 -3.0234,2.0156 -3.0234,0 0,-2.0156 3.0234,-2.0156 3.0234,0"
       id="path2833"
       style="fill:#e2e2e2;fill-opacity:1" />
    <path
       d="m 394.32,221.34 c 0,2.0195 -3.0234,2.0195 -3.0234,0 0,-2.0156 3.0234,-2.0156 3.0234,0"
       id="path2835"
       style="fill:#e2e2e2;fill-opacity:1" />
    <path
       d="m 366.1,271.68 c 0,2.0156 -3.0273,2.0156 -3.0273,0 0,-2.0156 3.0273,-2.0156 3.0273,0"
       id="path2837"
       style="fill:#e2e2e2;fill-opacity:1" />
    <path
       d="m 352.22,303.49 c 0,2.0156 -3.0234,2.0156 -3.0234,0 0,-2.0195 3.0234,-2.0195 3.0234,0"
       id="path2839"
       style="fill:#e2e2e2;fill-opacity:1" />
    <path
       d="m 341.1,286.16 c 0,2.0156 -3.0273,2.0156 -3.0273,0 0,-2.0156 3.0273,-2.0156 3.0273,0"
       id="path2841"
       style="fill:#e2e2e2;fill-opacity:1" />
    <path
       d="m 343.39,292.22 c 0,2.0156 -3.0234,2.0156 -3.0234,0 0,-2.0156 3.0234,-2.0156 3.0234,0"
       id="path2843"
       style="fill:#e2e2e2;fill-opacity:1" />
    <path
       d="m 348.49,298.35 c 0,2.0156 -3.0234,2.0156 -3.0234,0 0,-2.0156 3.0234,-2.0156 3.0234,0"
       id="path2845"
       style="fill:#e2e2e2;fill-opacity:1" />
    <path
       d="m 318.7,268.66 c 0,2.0156 -3.0273,2.0156 -3.0273,0 0,-2.0156 3.0273,-2.0156 3.0273,0"
       id="path2847"
       style="fill:#e2e2e2;fill-opacity:1" />
    <path
       d="m 310.31,265.64 c 0,2.0156 -3.0273,2.0156 -3.0273,0 0,-2.0156 3.0273,-2.0156 3.0273,0"
       id="path2849"
       style="fill:#e2e2e2;fill-opacity:1" />
    <path
       d="m 356.97,293.55 c 0,2.0156 -3.0234,2.0156 -3.0234,0 0,-2.0156 3.0234,-2.0156 3.0234,0"
       id="path2851"
       style="fill:#e2e2e2;fill-opacity:1" />
    <path
       d="m 355.46,298.71 c 0,2.0156 -3.0234,2.0156 -3.0234,0 0,-2.0156 3.0234,-2.0156 3.0234,0"
       id="path2853"
       style="fill:#e2e2e2;fill-opacity:1" />
    <path
       d="m 352.22,293.6 c 0,2.0156 -3.0234,2.0156 -3.0234,0 0,-2.0156 3.0234,-2.0156 3.0234,0"
       id="path2855"
       style="fill:#e2e2e2;fill-opacity:1" />
    <path
       d="m 348.49,290.14 c 0,2.0156 -3.0234,2.0156 -3.0234,0 0,-2.0156 3.0234,-2.0156 3.0234,0"
       id="path2857"
       style="fill:#e2e2e2;fill-opacity:1" />
    <path
       d="m 317.98,264.12 c 0,2.0156 -3.0234,2.0156 -3.0234,0 0,-2.0156 3.0234,-2.0156 3.0234,0"
       id="path2859"
       style="fill:#e2e2e2;fill-opacity:1" />
    <path
       d="m 315.05,257.86 c 0,2.0156 -3.0234,2.0156 -3.0234,0 0,-2.0156 3.0234,-2.0156 3.0234,0"
       id="path2861"
       style="fill:#e2e2e2;fill-opacity:1" />
    <path
       d="m 359.18,278.89 c 0,2.0156 -3.0234,2.0156 -3.0234,0 0,-2.0156 3.0234,-2.0156 3.0234,0"
       id="path2863"
       style="fill:#e2e2e2;fill-opacity:1" />
    <path
       d="m 402.47,260.43 c 0,2.0156 -3.0234,2.0156 -3.0234,0 0,-2.0156 3.0234,-2.0156 3.0234,0"
       id="path2865"
       style="fill:#e2e2e2;fill-opacity:1" />
    <path
       d="m 403.58,255.46 c 0,2.0156 -3.0234,2.0156 -3.0234,0 0,-2.0156 3.0234,-2.0156 3.0234,0"
       id="path2867"
       style="fill:#e2e2e2;fill-opacity:1" />
    <path
       d="m 398.71,265.63 c 0,2.0156 -3.0234,2.0156 -3.0234,0 0,-2.0156 3.0234,-2.0156 3.0234,0"
       id="path2869"
       style="fill:#e2e2e2;fill-opacity:1" />
    <path
       d="m 393.36,264.12 c 0,2.0156 -3.0234,2.0156 -3.0234,0 0,-2.0156 3.0234,-2.0156 3.0234,0"
       id="path2871"
       style="fill:#e2e2e2;fill-opacity:1" />
    <path
       d="m 385.68,262.61 c 0,2.0156 -3.0234,2.0156 -3.0234,0 0,-2.0156 3.0234,-2.0156 3.0234,0"
       id="path2873"
       style="fill:#e2e2e2;fill-opacity:1" />
    <path
       d="m 394.32,257.86 c 0,2.0156 -3.0234,2.0156 -3.0234,0 0,-2.0156 3.0234,-2.0156 3.0234,0"
       id="path2875"
       style="fill:#e2e2e2;fill-opacity:1" />
    <path
       d="m 391.84,255.14 c 0,2.0156 -3.0234,2.0156 -3.0234,0 0,-2.0156 3.0234,-2.0156 3.0234,0"
       id="path2877"
       style="fill:#e2e2e2;fill-opacity:1" />
    <path
       d="m 397.41,251.13 c 0,2.0156 -3.0234,2.0156 -3.0234,0 0,-2.0156 3.0234,-2.0156 3.0234,0"
       id="path2879"
       style="fill:#e2e2e2;fill-opacity:1" />
    <path
       d="m 394.32,245.41 c 0,2.0156 -3.0234,2.0156 -3.0234,0 0,-2.0156 3.0234,-2.0156 3.0234,0"
       id="path2881"
       style="fill:#e2e2e2;fill-opacity:1" />
    <path
       d="m 387.2,267.15 c 0,2.0156 -3.0234,2.0156 -3.0234,0 0,-2.0156 3.0234,-2.0156 3.0234,0"
       id="path2883"
       style="fill:#e2e2e2;fill-opacity:1" />
    <path
       d="m 382.7,268.78 c 0,2.0195 -3.0234,2.0195 -3.0234,0 0,-2.0156 3.0234,-2.0156 3.0234,0"
       id="path2885"
       style="fill:#e2e2e2;fill-opacity:1" />
    <path
       d="m 365.5,285.5 c 0,2.0156 -3.0234,2.0156 -3.0234,0 0,-2.0156 3.0234,-2.0156 3.0234,0"
       id="path2887"
       style="fill:#e2e2e2;fill-opacity:1" />
    <path
       d="m 309.06,256.98 c 0,2.0195 -3.0234,2.0195 -3.0234,0 0,-2.0156 3.0234,-2.0156 3.0234,0"
       id="path2889"
       style="fill:#e2e2e2;fill-opacity:1" />
    <path
       d="m 353.73,287.02 c 0,2.0156 -3.0234,2.0156 -3.0234,0 0,-2.0156 3.0234,-2.0156 3.0234,0"
       id="path2891"
       style="fill:#e2e2e2;fill-opacity:1" />
    <path
       d="m 333.84,279.33 c 0,2.0156 -3.0273,2.0156 -3.0273,0 0,-2.0156 3.0273,-2.0156 3.0273,0"
       id="path2893"
       style="fill:#e2e2e2;fill-opacity:1" />
    <path
       d="m 360.7,288.62 c 0,2.0156 -3.0234,2.0156 -3.0234,0 0,-2.0156 3.0234,-2.0156 3.0234,0"
       id="path2895"
       style="fill:#e2e2e2;fill-opacity:1" />
    <path
       d="m 305.23,262.61 c 0,2.0156 -3.0234,2.0156 -3.0234,0 0,-2.0156 3.0234,-2.0156 3.0234,0"
       id="path2897"
       style="fill:#e2e2e2;fill-opacity:1" />
  </g>
</svg>
