<?xml version="1.0" encoding="UTF-8" standalone="no"?>
<svg
   width="35px"
   height="35px"
   viewBox="0 0 35 35"
   data-name="Layer 2"
   id="e1c043b0-44b4-451c-80e1-98e21b9b3b3c"
   version="1.1"
   sodipodi:docname="delete.svg"
   inkscape:version="1.2.1 (9c6d41e410, 2022-07-14, custom)"
   xmlns:inkscape="http://www.inkscape.org/namespaces/inkscape"
   xmlns:sodipodi="http://sodipodi.sourceforge.net/DTD/sodipodi-0.dtd"
   xmlns="http://www.w3.org/2000/svg"
   xmlns:svg="http://www.w3.org/2000/svg">
  <defs
     id="defs11" />
  <sodipodi:namedview
     id="namedview9"
     pagecolor="#ffffff"
     bordercolor="#000000"
     borderopacity="0.25"
     inkscape:showpageshadow="2"
     inkscape:pageopacity="0.0"
     inkscape:pagecheckerboard="0"
     inkscape:deskcolor="#d1d1d1"
     showgrid="false"
     inkscape:zoom="7.6829228"
     inkscape:cx="-10.607942"
     inkscape:cy="29.806365"
     inkscape:window-width="1920"
     inkscape:window-height="1021"
     inkscape:window-x="0"
     inkscape:window-y="30"
     inkscape:window-maximized="1"
     inkscape:current-layer="e1c043b0-44b4-451c-80e1-98e21b9b3b3c" />
  <path
     d="M 25.757151,32.674191 H 9.2428494 A 2.9423851,2.9423851 0 0 1 6.1359722,30.15843 c 0,-0.02991 0,-0.05982 0,-0.08796 V 8.421725 a 1.099546,1.099546 0 0 1 2.199092,0 v 21.583648 a 0.92185936,0.92185936 0 0 0 0.9113037,0.469726 H 25.757151 a 0.92185936,0.92185936 0 0 0 0.911303,-0.469726 V 8.2308438 a 1.099546,1.099546 0 0 1 2.199092,0 V 30.069587 c 0,0.02903 0,0.05894 0,0.08796 a 2.9423851,2.9423851 0 0 1 -3.110395,2.516641 z"
     id="path2"
     style="fill:#e2e2e2;fill-opacity:1;stroke-width:0.879637" />
  <path
     d="M 31.23201,9.3303898 H 3.76799 a 1.099546,1.099546 0 0 1 0,-2.199092 h 27.46402 a 1.099546,1.099546 0 0 1 0,2.199092 z"
     id="path4"
     style="fill:#e2e2e2;fill-opacity:1;stroke-width:0.879637" />
  <path
     d="M 22.662588,9.3303898 A 1.099546,1.099546 0 0 1 21.563042,8.2308438 V 5.1072535 a 0.57528247,0.57528247 0 0 0 -0.58144,-0.5814399 h -6.963204 a 0.57528247,0.57528247 0 0 0 -0.58144,0.5814399 v 3.1235903 a 1.099546,1.099546 0 0 1 -2.199092,0 V 5.1072535 a 2.7840505,2.7840505 0 0 1 2.780532,-2.7805319 h 6.963204 a 2.7840505,2.7840505 0 0 1 2.780532,2.7805319 v 3.1235903 a 1.099546,1.099546 0 0 1 -1.099546,1.099546 z"
     id="path6"
     style="fill:#e2e2e2;fill-opacity:1;stroke-width:0.879637" />
</svg>
