<?xml version="1.0" encoding="UTF-8" standalone="no"?>
<!-- Generator: Adobe Illustrator 19.0.0, SVG Export Plug-In . SVG Version: 6.00 Build 0)  -->

<svg
   version="1.1"
   id="Layer_1"
   x="0px"
   y="0px"
   viewBox="0 0 512 512"
   style="enable-background:new 0 0 512 512;"
   xml:space="preserve"
   sodipodi:docname="dollar.svg"
   inkscape:version="1.2.1 (9c6d41e410, 2022-07-14, custom)"
   xmlns:inkscape="http://www.inkscape.org/namespaces/inkscape"
   xmlns:sodipodi="http://sodipodi.sourceforge.net/DTD/sodipodi-0.dtd"
   xmlns="http://www.w3.org/2000/svg"
   xmlns:svg="http://www.w3.org/2000/svg"><defs
   id="defs37" /><sodipodi:namedview
   id="namedview35"
   pagecolor="#ffffff"
   bordercolor="#000000"
   borderopacity="0.25"
   inkscape:showpageshadow="2"
   inkscape:pageopacity="0.0"
   inkscape:pagecheckerboard="0"
   inkscape:deskcolor="#d1d1d1"
   showgrid="false"
   inkscape:zoom="0.84171854"
   inkscape:cx="-67.124576"
   inkscape:cy="279.19071"
   inkscape:window-width="1920"
   inkscape:window-height="1021"
   inkscape:window-x="0"
   inkscape:window-y="30"
   inkscape:window-maximized="1"
   inkscape:current-layer="Layer_1" />
<path
   style="fill:#e2e2e2;fill-opacity:1;stroke-width:0.866257"
   d="m 227.19869,477.76179 v -51.6012 c -36.42438,-1.63549 -71.73994,-11.42073 -92.41923,-23.36815 l 16.32721,-63.60405 c 22.84147,12.48796 54.88605,23.89483 90.24319,23.89483 30.97735,0 52.18332,-11.94741 52.18332,-33.68007 0,-20.66543 -17.39444,-33.72165 -57.63034,-47.31842 -58.15703,-19.55662 -97.85239,-46.7363 -97.85239,-99.4463 0,-47.84511 33.72165,-85.336708 91.87868,-96.75744 V 34.238214 h 53.25055 v 47.845105 c 36.42437,1.635493 60.90133,9.203114 78.82245,17.921121 l -15.75894,61.42802 c -14.12346,-5.97371 -39.1271,-18.50325 -78.29577,-18.50325 -35.31557,0 -46.7363,15.2184 -46.7363,30.45066 0,17.92113 19.02993,29.34186 65.23955,46.7363 64.65742,22.84146 90.76987,52.71001 90.76987,101.66392 0,48.37179 -34.2622,89.67492 -96.75744,100.55511 v 55.42659 z"
   id="path2" />
<g
   id="g4"
   style="fill:#e2e2e2;fill-opacity:1"
   transform="matrix(0.86625698,0,0,0.86625698,34.238214,34.238214)">
</g>
<g
   id="g6"
   style="fill:#e2e2e2;fill-opacity:1"
   transform="matrix(0.86625698,0,0,0.86625698,34.238214,34.238214)">
</g>
<g
   id="g8"
   style="fill:#e2e2e2;fill-opacity:1"
   transform="matrix(0.86625698,0,0,0.86625698,34.238214,34.238214)">
</g>
<g
   id="g10"
   style="fill:#e2e2e2;fill-opacity:1"
   transform="matrix(0.86625698,0,0,0.86625698,34.238214,34.238214)">
</g>
<g
   id="g12"
   style="fill:#e2e2e2;fill-opacity:1"
   transform="matrix(0.86625698,0,0,0.86625698,34.238214,34.238214)">
</g>
<g
   id="g14"
   style="fill:#e2e2e2;fill-opacity:1"
   transform="matrix(0.86625698,0,0,0.86625698,34.238214,34.238214)">
</g>
<g
   id="g16"
   style="fill:#e2e2e2;fill-opacity:1"
   transform="matrix(0.86625698,0,0,0.86625698,34.238214,34.238214)">
</g>
<g
   id="g18"
   style="fill:#e2e2e2;fill-opacity:1"
   transform="matrix(0.86625698,0,0,0.86625698,34.238214,34.238214)">
</g>
<g
   id="g20"
   style="fill:#e2e2e2;fill-opacity:1"
   transform="matrix(0.86625698,0,0,0.86625698,34.238214,34.238214)">
</g>
<g
   id="g22"
   style="fill:#e2e2e2;fill-opacity:1"
   transform="matrix(0.86625698,0,0,0.86625698,34.238214,34.238214)">
</g>
<g
   id="g24"
   style="fill:#e2e2e2;fill-opacity:1"
   transform="matrix(0.86625698,0,0,0.86625698,34.238214,34.238214)">
</g>
<g
   id="g26"
   style="fill:#e2e2e2;fill-opacity:1"
   transform="matrix(0.86625698,0,0,0.86625698,34.238214,34.238214)">
</g>
<g
   id="g28"
   style="fill:#e2e2e2;fill-opacity:1"
   transform="matrix(0.86625698,0,0,0.86625698,34.238214,34.238214)">
</g>
<g
   id="g30"
   style="fill:#e2e2e2;fill-opacity:1"
   transform="matrix(0.86625698,0,0,0.86625698,34.238214,34.238214)">
</g>
<g
   id="g32"
   style="fill:#e2e2e2;fill-opacity:1"
   transform="matrix(0.86625698,0,0,0.86625698,34.238214,34.238214)">
</g>
</svg>
