<?xml version="1.0" encoding="UTF-8" standalone="no"?>
<!-- Generator: Adobe Illustrator 19.0.0, SVG Export Plug-In . SVG Version: 6.00 Build 0)  -->

<svg
   version="1.1"
   id="Capa_1"
   x="0px"
   y="0px"
   viewBox="0 0 490.337 490.337"
   style="enable-background:new 0 0 490.337 490.337;"
   xml:space="preserve"
   sodipodi:docname="edit.svg"
   inkscape:version="1.2.1 (9c6d41e410, 2022-07-14, custom)"
   xmlns:inkscape="http://www.inkscape.org/namespaces/inkscape"
   xmlns:sodipodi="http://sodipodi.sourceforge.net/DTD/sodipodi-0.dtd"
   xmlns="http://www.w3.org/2000/svg"
   xmlns:svg="http://www.w3.org/2000/svg"><defs
   id="defs43" /><sodipodi:namedview
   id="namedview41"
   pagecolor="#ffffff"
   bordercolor="#000000"
   borderopacity="0.25"
   inkscape:showpageshadow="2"
   inkscape:pageopacity="0.0"
   inkscape:pagecheckerboard="0"
   inkscape:deskcolor="#d1d1d1"
   showgrid="false"
   inkscape:zoom="1.0765485"
   inkscape:cx="44.12249"
   inkscape:cy="291.67288"
   inkscape:window-width="1920"
   inkscape:window-height="1021"
   inkscape:window-x="0"
   inkscape:window-y="30"
   inkscape:window-maximized="1"
   inkscape:current-layer="Capa_1" />
<g
   id="g8"
   style="fill:#e2e2e2;fill-opacity:1"
   transform="matrix(0.87905752,0,0,0.87905752,29.651318,29.651281)">
	<g
   id="g6"
   style="fill:#e2e2e2;fill-opacity:1">
		<path
   d="m 229.9,145.379 -47.5,47.5 c -17.5,17.5 -35.1,35 -52.5,52.7 -4.1,4.2 -7.2,9.8 -8.4,15.3 -6.3,28.9 -12.4,57.8 -18.5,86.7 l -3.4,16 c -1.6,7.8 0.5,15.6 5.8,20.9 4.1,4.1 9.8,6.4 15.8,6.4 1.7,0 3.4,-0.2 5.1,-0.5 l 17.6,-3.7 c 28,-5.9 56.1,-11.9 84.1,-17.7 6.5,-1.4 12,-4.3 16.7,-9 78.6,-78.7 157.2,-157.3 235.8,-235.8 5.8,-5.8 9,-12.7 9.8,-21.2 0.1,-1.4 0,-2.8 -0.3,-4.1 -0.5,-2 -0.9,-4.1 -1.4,-6.1 -1.1,-5.1 -2.3,-10.9 -4.7,-16.5 v 0 c -14.7,-33.6 -39.1,-57.6 -72.5,-71.1 -6.7,-2.7 -13.8,-3.6 -20,-4.4 l -1.7,-0.2 c -9,-1.1 -17.2,1.9 -24.3,9.1 -45,45.2 -90.3,90.5 -135.5,135.7 z m 156.5,-120.7 c 0.2,0 0.3,0 0.5,0 l 1.7,0.2 c 5.2,0.6 10,1.2 13.8,2.8 27.2,11 47.2,30.6 59.3,58.2 1.4,3.2 2.3,7.3 3.2,11.6 0.3,1.6 0.7,3.2 1,4.8 -0.4,1.8 -1.1,3 -2.5,4.3 -78.7,78.5 -157.3,157.2 -235.9,235.8 -1.3,1.3 -2.5,1.9 -4.3,2.3 -28.1,5.9 -56.1,11.8 -84.2,17.7 l -14.8,3.1 2.8,-13.1 c 6.1,-28.8 12.2,-57.7 18.4,-86.5 0.2,-0.9 1,-2.3 1.9,-3.3 17.4,-17.6 34.8,-35.1 52.3,-52.5 l 47.5,-47.5 c 45.3,-45.3 90.6,-90.6 135.8,-136 1.9,-1.6 2.8,-1.9 3.5,-1.9 z"
   id="path2"
   style="fill:#e2e2e2;fill-opacity:1" />
		<path
   d="m 38.9,109.379 h 174.6 c 6.8,0 12.3,-5.5 12.3,-12.3 0,-6.8 -5.5,-12.3 -12.3,-12.3 H 38.9 c -21.5,0 -38.9,17.5 -38.9,38.9 v 327.4 c 0,21.5 17.5,38.9 38.9,38.9 h 327.3 c 21.5,0 38.9,-17.5 38.9,-38.9 v -167.5 c 0,-6.8 -5.5,-12.3 -12.3,-12.3 -6.8,0 -12.3,5.5 -12.3,12.3 v 167.5 c 0,7.9 -6.5,14.4 -14.4,14.4 H 38.9 c -7.9,0 -14.4,-6.5 -14.4,-14.4 v -327.3 c 0,-7.9 6.5,-14.4 14.4,-14.4 z"
   id="path4"
   style="fill:#e2e2e2;fill-opacity:1" />
	</g>
</g>
<g
   id="g10"
   style="fill:#e2e2e2;fill-opacity:1"
   transform="matrix(0.87905752,0,0,0.87905752,29.651318,29.651281)">
</g>
<g
   id="g12"
   style="fill:#e2e2e2;fill-opacity:1"
   transform="matrix(0.87905752,0,0,0.87905752,29.651318,29.651281)">
</g>
<g
   id="g14"
   style="fill:#e2e2e2;fill-opacity:1"
   transform="matrix(0.87905752,0,0,0.87905752,29.651318,29.651281)">
</g>
<g
   id="g16"
   style="fill:#e2e2e2;fill-opacity:1"
   transform="matrix(0.87905752,0,0,0.87905752,29.651318,29.651281)">
</g>
<g
   id="g18"
   style="fill:#e2e2e2;fill-opacity:1"
   transform="matrix(0.87905752,0,0,0.87905752,29.651318,29.651281)">
</g>
<g
   id="g20"
   style="fill:#e2e2e2;fill-opacity:1"
   transform="matrix(0.87905752,0,0,0.87905752,29.651318,29.651281)">
</g>
<g
   id="g22"
   style="fill:#e2e2e2;fill-opacity:1"
   transform="matrix(0.87905752,0,0,0.87905752,29.651318,29.651281)">
</g>
<g
   id="g24"
   style="fill:#e2e2e2;fill-opacity:1"
   transform="matrix(0.87905752,0,0,0.87905752,29.651318,29.651281)">
</g>
<g
   id="g26"
   style="fill:#e2e2e2;fill-opacity:1"
   transform="matrix(0.87905752,0,0,0.87905752,29.651318,29.651281)">
</g>
<g
   id="g28"
   style="fill:#e2e2e2;fill-opacity:1"
   transform="matrix(0.87905752,0,0,0.87905752,29.651318,29.651281)">
</g>
<g
   id="g30"
   style="fill:#e2e2e2;fill-opacity:1"
   transform="matrix(0.87905752,0,0,0.87905752,29.651318,29.651281)">
</g>
<g
   id="g32"
   style="fill:#e2e2e2;fill-opacity:1"
   transform="matrix(0.87905752,0,0,0.87905752,29.651318,29.651281)">
</g>
<g
   id="g34"
   style="fill:#e2e2e2;fill-opacity:1"
   transform="matrix(0.87905752,0,0,0.87905752,29.651318,29.651281)">
</g>
<g
   id="g36"
   style="fill:#e2e2e2;fill-opacity:1"
   transform="matrix(0.87905752,0,0,0.87905752,29.651318,29.651281)">
</g>
<g
   id="g38"
   style="fill:#e2e2e2;fill-opacity:1"
   transform="matrix(0.87905752,0,0,0.87905752,29.651318,29.651281)">
</g>
</svg>
