<?xml version="1.0" encoding="UTF-8" standalone="no"?>
<!-- Generator: Adobe Illustrator 18.0.0, SVG Export Plug-In . SVG Version: 6.00 Build 0)  -->

<svg
   version="1.1"
   id="Capa_1"
   x="0px"
   y="0px"
   viewBox="0 0 60 60"
   style="enable-background:new 0 0 60 60;"
   xml:space="preserve"
   sodipodi:docname="food.svg"
   inkscape:version="1.2.1 (9c6d41e410, 2022-07-14, custom)"
   xmlns:inkscape="http://www.inkscape.org/namespaces/inkscape"
   xmlns:sodipodi="http://sodipodi.sourceforge.net/DTD/sodipodi-0.dtd"
   xmlns="http://www.w3.org/2000/svg"
   xmlns:svg="http://www.w3.org/2000/svg"><defs
   id="defs49" /><sodipodi:namedview
   id="namedview47"
   pagecolor="#ffffff"
   bordercolor="#000000"
   borderopacity="0.25"
   inkscape:showpageshadow="2"
   inkscape:pageopacity="0.0"
   inkscape:pagecheckerboard="0"
   inkscape:deskcolor="#d1d1d1"
   showgrid="false"
   inkscape:zoom="14.016667"
   inkscape:cx="29.357907"
   inkscape:cy="30.035672"
   inkscape:window-width="1920"
   inkscape:window-height="1021"
   inkscape:window-x="0"
   inkscape:window-y="30"
   inkscape:window-maximized="1"
   inkscape:current-layer="Capa_1" />
<g
   id="g14"
   style="fill:#e2e2e2;fill-opacity:1"
   transform="matrix(0.84257603,0,0,0.84257603,4.722719,4.7226993)">
	<path
   d="m 18.35,20.805 c 0.195,0.195 0.451,0.293 0.707,0.293 0.256,0 0.512,-0.098 0.707,-0.293 0.391,-0.391 0.391,-1.023 0,-1.414 -1.015,-1.016 -1.015,-2.668 0,-3.684 0.87,-0.87 1.35,-2.026 1.35,-3.256 0,-1.23 -0.479,-2.386 -1.35,-3.256 -0.391,-0.391 -1.023,-0.391 -1.414,0 -0.391,0.391 -0.391,1.023 0,1.414 0.492,0.492 0.764,1.146 0.764,1.842 0,0.696 -0.271,1.35 -0.764,1.842 -1.795,1.795 -1.795,4.717 0,6.512 z"
   id="path2"
   style="fill:#e2e2e2;fill-opacity:1" />
	<path
   d="m 40.35,20.805 c 0.195,0.195 0.451,0.293 0.707,0.293 0.256,0 0.512,-0.098 0.707,-0.293 0.391,-0.391 0.391,-1.023 0,-1.414 -1.015,-1.016 -1.015,-2.668 0,-3.684 0.87,-0.87 1.35,-2.026 1.35,-3.256 0,-1.23 -0.479,-2.386 -1.35,-3.256 -0.391,-0.391 -1.023,-0.391 -1.414,0 -0.391,0.391 -0.391,1.023 0,1.414 0.492,0.492 0.764,1.146 0.764,1.842 0,0.696 -0.271,1.35 -0.764,1.842 -1.795,1.795 -1.795,4.717 0,6.512 z"
   id="path4"
   style="fill:#e2e2e2;fill-opacity:1" />
	<path
   d="m 29.35,14.805 c 0.195,0.195 0.451,0.293 0.707,0.293 0.256,0 0.512,-0.098 0.707,-0.293 0.391,-0.391 0.391,-1.023 0,-1.414 -1.015,-1.016 -1.015,-2.668 0,-3.684 0.87,-0.87 1.35,-2.026 1.35,-3.256 0,-1.23 -0.479,-2.386 -1.35,-3.256 -0.391,-0.391 -1.023,-0.391 -1.414,0 -0.391,0.391 -0.391,1.023 0,1.414 0.492,0.492 0.764,1.146 0.764,1.842 0,0.696 -0.271,1.35 -0.764,1.842 -1.795,1.795 -1.795,4.717 0,6.512 z"
   id="path6"
   style="fill:#e2e2e2;fill-opacity:1" />
	<path
   d="m 25.345,28.61 c 0.073,0 0.147,-0.008 0.221,-0.024 1.438,-0.324 2.925,-0.488 4.421,-0.488 0.004,0 0.008,0 0.013,0 v 0 c 0.552,0 1,-0.447 1,-0.999 0,-0.553 -0.447,-1.001 -1,-1.001 -0.004,0 -0.009,0 -0.014,0 -1.643,0 -3.278,0.181 -4.86,0.537 -0.539,0.121 -0.877,0.656 -0.756,1.195 0.106,0.465 0.518,0.78 0.975,0.78 z"
   id="path8"
   style="fill:#e2e2e2;fill-opacity:1" />
	<path
   d="m 9.821,45.081 c 0.061,0.012 0.121,0.017 0.18,0.017 0.474,0 0.895,-0.338 0.983,-0.82 1.039,-5.698 4.473,-10.768 9.186,-13.56 0.475,-0.281 0.632,-0.895 0.351,-1.37 -0.282,-0.475 -0.895,-0.632 -1.37,-0.351 -5.204,3.083 -8.992,8.661 -10.134,14.921 -0.1,0.544 0.26,1.064 0.804,1.163 z"
   id="path10"
   style="fill:#e2e2e2;fill-opacity:1" />
	<path
   d="M 55.624,43.721 C 53.812,33.08 45.517,24.625 34.957,22.577 34.974,22.417 35,22.256 35,22.097 c 0,-2.757 -2.243,-5 -5,-5 -2.757,0 -5,2.243 -5,5 0,0.159 0.025,0.32 0.043,0.48 C 14.483,24.625 6.188,33.08 4.376,43.721 2.286,44.904 0,46.645 0,48.598 c 0,5.085 15.512,8.5 30,8.5 14.488,0 30,-3.415 30,-8.5 0,-1.953 -2.286,-3.694 -4.376,-4.877 z M 27.006,22.27 C 27.002,22.212 27,22.154 27,22.098 c 0,-1.654 1.346,-3 3,-3 1.654,0 3,1.346 3,3 0,0.057 -0.002,0.114 -0.006,0.172 -0.047,-0.005 -0.094,-0.007 -0.14,-0.012 -0.344,-0.038 -0.69,-0.065 -1.038,-0.089 -0.128,-0.009 -0.255,-0.022 -0.383,-0.029 -0.474,-0.026 -0.951,-0.041 -1.432,-0.041 -0.481,0 -0.958,0.015 -1.432,0.041 -0.128,0.007 -0.255,0.02 -0.383,0.029 -0.348,0.024 -0.694,0.052 -1.038,0.089 -0.048,0.005 -0.095,0.006 -0.142,0.012 z m -0.607,2.098 c 0.537,-0.08 1.077,-0.138 1.619,-0.182 0.111,-0.009 0.222,-0.017 0.333,-0.025 1.098,-0.074 2.201,-0.074 3.299,0 0.111,0.008 0.222,0.016 0.333,0.025 0.542,0.044 1.082,0.102 1.619,0.182 10.418,1.575 18.657,9.872 20.152,20.316 0.046,0.321 0.083,0.643 0.116,0.965 0.011,0.111 0.026,0.221 0.036,0.332 0.039,0.443 0.068,0.886 0.082,1.329 -15.71,3.641 -32.264,3.641 -47.974,0 C 6.029,46.867 6.057,46.424 6.096,45.981 6.106,45.87 6.12,45.76 6.132,45.649 6.165,45.326 6.202,45.004 6.248,44.684 7.742,34.24 15.981,25.942 26.399,24.368 Z M 30,55.098 C 12.904,55.098 2,50.829 2,48.598 2,48.215 2.474,47.371 4.064,46.27 4.06,46.327 4.062,46.383 4.058,46.44 4.024,46.988 4,47.54 4,48.098 v 0.788 l 0.767,0.185 c 8.254,1.98 16.744,2.972 25.233,2.972 8.489,0 16.979,-0.991 25.233,-2.972 L 56,48.886 V 48.098 C 56,47.54 55.976,46.989 55.942,46.44 55.938,46.383 55.94,46.327 55.936,46.27 57.526,47.371 58,48.215 58,48.598 c 0,2.231 -10.904,6.5 -28,6.5 z"
   id="path12"
   style="fill:#e2e2e2;fill-opacity:1" />
</g>
<g
   id="g16"
   style="fill:#e2e2e2;fill-opacity:1"
   transform="matrix(0.84257603,0,0,0.84257603,4.722719,4.7226993)">
</g>
<g
   id="g18"
   style="fill:#e2e2e2;fill-opacity:1"
   transform="matrix(0.84257603,0,0,0.84257603,4.722719,4.7226993)">
</g>
<g
   id="g20"
   style="fill:#e2e2e2;fill-opacity:1"
   transform="matrix(0.84257603,0,0,0.84257603,4.722719,4.7226993)">
</g>
<g
   id="g22"
   style="fill:#e2e2e2;fill-opacity:1"
   transform="matrix(0.84257603,0,0,0.84257603,4.722719,4.7226993)">
</g>
<g
   id="g24"
   style="fill:#e2e2e2;fill-opacity:1"
   transform="matrix(0.84257603,0,0,0.84257603,4.722719,4.7226993)">
</g>
<g
   id="g26"
   style="fill:#e2e2e2;fill-opacity:1"
   transform="matrix(0.84257603,0,0,0.84257603,4.722719,4.7226993)">
</g>
<g
   id="g28"
   style="fill:#e2e2e2;fill-opacity:1"
   transform="matrix(0.84257603,0,0,0.84257603,4.722719,4.7226993)">
</g>
<g
   id="g30"
   style="fill:#e2e2e2;fill-opacity:1"
   transform="matrix(0.84257603,0,0,0.84257603,4.722719,4.7226993)">
</g>
<g
   id="g32"
   style="fill:#e2e2e2;fill-opacity:1"
   transform="matrix(0.84257603,0,0,0.84257603,4.722719,4.7226993)">
</g>
<g
   id="g34"
   style="fill:#e2e2e2;fill-opacity:1"
   transform="matrix(0.84257603,0,0,0.84257603,4.722719,4.7226993)">
</g>
<g
   id="g36"
   style="fill:#e2e2e2;fill-opacity:1"
   transform="matrix(0.84257603,0,0,0.84257603,4.722719,4.7226993)">
</g>
<g
   id="g38"
   style="fill:#e2e2e2;fill-opacity:1"
   transform="matrix(0.84257603,0,0,0.84257603,4.722719,4.7226993)">
</g>
<g
   id="g40"
   style="fill:#e2e2e2;fill-opacity:1"
   transform="matrix(0.84257603,0,0,0.84257603,4.722719,4.7226993)">
</g>
<g
   id="g42"
   style="fill:#e2e2e2;fill-opacity:1"
   transform="matrix(0.84257603,0,0,0.84257603,4.722719,4.7226993)">
</g>
<g
   id="g44"
   style="fill:#e2e2e2;fill-opacity:1"
   transform="matrix(0.84257603,0,0,0.84257603,4.722719,4.7226993)">
</g>
</svg>
