<?xml version="1.0" encoding="UTF-8" standalone="no"?>
<svg
   version="1.1"
   viewBox="0 0 463 463"
   enable-background="new 0 0 463 463"
   id="svg4"
   sodipodi:docname="forest.svg"
   inkscape:version="1.2.1 (9c6d41e410, 2022-07-14, custom)"
   xmlns:inkscape="http://www.inkscape.org/namespaces/inkscape"
   xmlns:sodipodi="http://sodipodi.sourceforge.net/DTD/sodipodi-0.dtd"
   xmlns="http://www.w3.org/2000/svg"
   xmlns:svg="http://www.w3.org/2000/svg">
  <defs
     id="defs8" />
  <sodipodi:namedview
     id="namedview6"
     pagecolor="#ffffff"
     bordercolor="#000000"
     borderopacity="0.25"
     inkscape:showpageshadow="2"
     inkscape:pageopacity="0.0"
     inkscape:pagecheckerboard="0"
     inkscape:deskcolor="#d1d1d1"
     showgrid="false"
     inkscape:zoom="1.0378308"
     inkscape:cx="79.492726"
     inkscape:cy="231.25157"
     inkscape:window-width="1920"
     inkscape:window-height="1021"
     inkscape:window-x="0"
     inkscape:window-y="30"
     inkscape:window-maximized="1"
     inkscape:current-layer="svg4" />
  <path
     d="m 422.07371,385.06498 h -75.29363 v -21.26939 h 48.06882 c 2.06568,0 4.00375,-0.99966 5.20079,-2.68335 1.19704,-1.68368 1.50502,-3.84295 0.8261,-5.79378 L 346.42616,198.77577 c -0.89161,-2.56509 -3.31037,-4.2845 -6.02604,-4.2845 -2.71568,0 -5.13444,1.71941 -6.02605,4.2845 l -4.98214,14.32281 -23.66347,-88.73929 c -0.74443,-2.7931 -3.27463,-4.73627 -6.16557,-4.73627 -2.89093,0 -5.42029,1.94317 -6.16557,4.73627 L 281.5256,168.87527 258.12757,70.083215 c -0.68147,-2.877323 -3.25166,-4.909826 -6.20896,-4.909826 -2.95729,0 -5.52749,2.032503 -6.20896,4.909826 l -26.45656,111.706825 -8.85232,-30.34801 c -0.79463,-2.72249 -3.28995,-4.59419 -6.12559,-4.59419 -2.83563,0 -5.33181,1.8717 -6.12558,4.59419 L 161.88444,275.77861 128.76631,151.5841 c -0.74443,-2.79309 -3.27464,-4.73626 -6.16557,-4.73626 -2.89094,0 -5.42029,1.94317 -6.16557,4.73626 L 61.985534,355.77023 c -0.511317,1.91509 -0.102944,3.9595 1.105157,5.53174 1.208101,1.57223 3.078106,2.49362 5.060413,2.49362 h 48.068816 v 21.26939 H 40.926288 c -3.523913,0 -6.380817,2.8569 -6.380817,6.38081 0,3.52392 2.856904,6.38082 6.380817,6.38082 H 422.07371 c 3.52391,0 6.38082,-2.8569 6.38082,-6.38082 0,-3.52391 -2.85691,-6.38081 -6.38082,-6.38081 z m -88.05526,0 h -28.07559 v -21.26939 h 28.07559 z M 245.5378,336.57077 v 48.49421 H 210.656 v -48.49421 z m 12.76163,0 h 28.1445 l -6.52119,18.74769 c -0.67892,1.95083 -0.37094,4.1101 0.8261,5.79378 1.19704,1.68369 3.13511,2.68335 5.20079,2.68335 h 7.23159 v 21.26939 h -34.88179 z m 82.09983,-116.27548 45.47481,130.73867 h -39.09399 v -11.39529 l 11.74325,-11.74325 c 2.49193,-2.49192 2.49193,-6.53226 0,-9.02333 -2.49192,-2.49192 -6.53225,-2.49192 -9.02332,0 l -2.71993,2.71993 v -11.82067 c 0,-3.52392 -2.8569,-6.38082 -6.38082,-6.38082 -3.52391,0 -6.38081,2.8569 -6.38081,6.38082 v 27.22311 c 0,8.5e-4 0,0.003 0,0.004 v 14.03525 h -39.09399 l 5.03064,-14.46319 h 13.21935 c 1.95083,0 3.79446,-0.89246 5.00511,-2.423 1.2098,-1.53055 1.65391,-3.52987 1.2047,-5.4288 l -6.76367,-28.55798 z m -40.83722,-69.52708 22.35328,83.82351 -14.76862,42.45965 -19.40789,-81.94584 z M 251.91861,99.240993 305.10569,323.80914 h -46.80626 v -14.03609 c 0,-8.5e-4 0,-0.003 0,-0.004 V 291.9955 l 18.54946,-18.54946 c 2.49192,-2.49192 2.49192,-6.53225 0,-9.02332 -2.49192,-2.49192 -6.53226,-2.49192 -9.02333,0 l -9.52613,9.52613 v -25.43308 c 0,-3.52391 -2.85691,-6.38082 -6.38082,-6.38082 -3.52391,0 -6.38081,2.85691 -6.38081,6.38082 v 40.83552 c 0,8.5e-4 0,0.003 0,0.004 v 5.01191 l -16.33234,-16.33233 c -2.49192,-2.49192 -6.53226,-2.49192 -9.02333,0 -2.49192,2.49192 -2.49192,6.53225 0,9.02332 l 25.35567,25.35566 v 11.39529 h -46.80627 z m -47.64343,76.776537 8.98845,30.81934 c 0.009,0.0332 0.0238,0.0638 0.034,0.097 l -24.45725,103.26287 h -17.7778 l -2.82883,-10.60832 z M 76.456374,351.03396 122.60074,177.99303 168.7451,351.03396 h -39.76355 v -14.0361 c 0,-8.5e-4 0,-0.003 0,-0.004 v -34.02847 c 0,-3.52391 -2.8569,-6.38081 -6.38081,-6.38081 -3.52392,0 -6.38082,2.8569 -6.38082,6.38081 v 18.62688 l -9.52613,-9.52613 c -2.49193,-2.49192 -6.53226,-2.49192 -9.023329,0 -2.491921,2.49192 -2.491921,6.53225 0,9.02332 l 18.549459,18.54946 v 11.39529 z m 52.525176,12.76163 h 48.06882 c 1.9823,0 3.85231,-0.92139 5.05956,-2.49362 1.2081,-1.57224 1.61647,-3.6158 1.10516,-5.53174 l -8.74938,-32.81186 h 11.3519 l -1.36464,5.7606 c -0.44921,1.89808 -0.006,3.89825 1.20469,5.4288 1.20981,1.52969 3.05429,2.423 5.00512,2.423 h 7.23159 v 48.49421 h -68.91282 z"
     id="path2"
     style="fill:#e2e2e2;fill-opacity:1;stroke-width:0.850775" />
</svg>
