<?xml version="1.0" encoding="UTF-8" standalone="no"?>
<svg
   inkscape:version="1.2.2 (b0a8486541, 2022-12-01)"
   sodipodi:docname="hide.svg"
   id="svg12"
   preserveAspectRatio="xMidYMid meet"
   version="1.1"
   viewBox="0 0 36 36"
   height="36px"
   width="36px"
   xmlns:inkscape="http://www.inkscape.org/namespaces/inkscape"
   xmlns:sodipodi="http://sodipodi.sourceforge.net/DTD/sodipodi-0.dtd"
   xmlns="http://www.w3.org/2000/svg"
   xmlns:svg="http://www.w3.org/2000/svg"
   xmlns:rdf="http://www.w3.org/1999/02/22-rdf-syntax-ns#"
   xmlns:cc="http://creativecommons.org/ns#"
   xmlns:dc="http://purl.org/dc/elements/1.1/">
  <metadata
     id="metadata18">
    <rdf:RDF>
      <cc:Work
         rdf:about="">
        <dc:format>image/svg+xml</dc:format>
        <dc:type
           rdf:resource="http://purl.org/dc/dcmitype/StillImage" />
      </cc:Work>
    </rdf:RDF>
  </metadata>
  <defs
     id="defs16" />
  <sodipodi:namedview
     inkscape:current-layer="svg12"
     inkscape:window-maximized="1"
     inkscape:window-y="30"
     inkscape:window-x="0"
     inkscape:cy="27.972876"
     inkscape:cx="30.474515"
     inkscape:zoom="13.19135"
     showgrid="false"
     id="namedview14"
     inkscape:window-height="1021"
     inkscape:window-width="1920"
     inkscape:pageshadow="2"
     inkscape:pageopacity="0"
     guidetolerance="10"
     gridtolerance="10"
     objecttolerance="10"
     borderopacity="1"
     bordercolor="#666666"
     pagecolor="#ffffff"
     inkscape:showpageshadow="2"
     inkscape:pagecheckerboard="0"
     inkscape:deskcolor="#d1d1d1" />
  <title
     id="title2">eye-hide-line</title>
  <g
     id="g240"
     transform="matrix(0.88940053,0,0,0.88940053,1.9948536,1.9583047)">
    <path
       style="fill:#e2e2e2;fill-opacity:1"
       id="path4"
       class="clr-i-outline clr-i-outline-path-1"
       d="m 24.746737,20.066275 a 6.78,6.78 0 0 0 0.43,-2.4 6.86,6.86 0 0 0 -6.86,-6.86 6.79,6.79 0 0 0 -2.37,0.43 l 1.61,1.66 a 4.78,4.78 0 0 1 0.74,-0.06 4.87,4.87 0 0 1 4.88,4.83 4.79,4.79 0 0 1 -0.06,0.74 z" />
    <path
       style="fill:#e2e2e2;fill-opacity:1;stroke-width:1;stroke-miterlimit:4;stroke-dasharray:none"
       id="path6"
       class="clr-i-outline clr-i-outline-path-2"
       d="m 33.846737,17.196275 c -3.37,-6.23 -9.28,-10 -15.82,-10 a 16.82,16.82 0 0 0 -5.24,0.85 l 1.61,1.62 a 14.78,14.78 0 0 1 3.63,-0.47 c 5.63,0 10.75,3.14 13.8,8.43 a 17.75,17.75 0 0 1 -4.37,5.1 l 1.42,1.42 a 19.93,19.93 0 0 0 5,-6 l 0.26,-0.48 z" />
    <path
       style="fill:#e2e2e2;fill-opacity:1"
       id="path8"
       class="clr-i-outline clr-i-outline-path-3"
       d="m 4.4267375,5.446275 4.46,4.46 a 19.52,19.52 0 0 0 -6.69,7.29 l -0.26,0.47 0.26,0.48 c 3.37,6.23 9.2799995,10 15.8199995,10 a 16.93,16.93 0 0 0 7.37,-1.69 l 5,5 1.75,-1.5 -25.9999995,-26 z m 9.7499995,9.75 6.65,6.65 a 4.81,4.81 0 0 1 -2.5,0.72 4.87,4.87 0 0 1 -4.87,-4.9 4.81,4.81 0 0 1 0.72,-2.47 z m -1.45,-1.45 a 6.85,6.85 0 0 0 9.55,9.55 l 1.6,1.6 a 14.91,14.91 0 0 1 -5.86,1.2 c -5.63,0 -10.7499995,-3.14 -13.7999995,-8.43 a 17.29,17.29 0 0 1 6.1199995,-6.3 z" />
  </g>
</svg>
