<?xml version="1.0" encoding="UTF-8" standalone="no"?>
<svg
   version="1.1"
   viewBox="0 0 463 463"
   enable-background="new 0 0 463 463"
   id="svg4"
   sodipodi:docname="hyper.svg"
   inkscape:version="1.2.1 (9c6d41e410, 2022-07-14, custom)"
   xmlns:inkscape="http://www.inkscape.org/namespaces/inkscape"
   xmlns:sodipodi="http://sodipodi.sourceforge.net/DTD/sodipodi-0.dtd"
   xmlns="http://www.w3.org/2000/svg"
   xmlns:svg="http://www.w3.org/2000/svg">
  <defs
     id="defs8" />
  <sodipodi:namedview
     id="namedview6"
     pagecolor="#ffffff"
     bordercolor="#000000"
     borderopacity="0.25"
     inkscape:showpageshadow="2"
     inkscape:pageopacity="0.0"
     inkscape:pagecheckerboard="0"
     inkscape:deskcolor="#d1d1d1"
     showgrid="false"
     inkscape:zoom="1.8164147"
     inkscape:cx="227.09572"
     inkscape:cy="231.77527"
     inkscape:window-width="1920"
     inkscape:window-height="1021"
     inkscape:window-x="0"
     inkscape:window-y="30"
     inkscape:window-maximized="1"
     inkscape:current-layer="svg4" />
  <path
     d="m 425.82166,322.15453 h -7.37381 V 238.0063 h 0.43376 c 3.59407,0 6.5063,-2.91221 6.5063,-6.5063 0,-3.59409 -2.91223,-6.5063 -6.5063,-6.5063 h -97.5946 v -28.62775 h 0.43376 c 3.59409,0 6.50631,-2.91222 6.50631,-6.5063 0,-3.59409 -2.91222,-6.50631 -6.50631,-6.50631 h -35.13405 v -15.81813 c 8.05914,-2.72224 13.88012,-10.34936 13.88012,-19.31592 0,-11.24116 -9.14527,-20.38643 -20.38642,-20.38643 h -97.16084 c -11.24115,0 -20.38642,9.14527 -20.38642,20.38643 0,8.96656 5.82098,16.59368 13.88012,19.31592 v 15.81813 h -35.13405 c -3.59409,0 -6.50631,2.91222 -6.50631,6.50631 0,3.59408 2.91222,6.5063 6.50631,6.5063 h 0.43376 V 224.9937 H 44.1184 c -3.594084,0 -6.506306,2.91221 -6.506306,6.5063 0,3.59409 2.912222,6.5063 6.506306,6.5063 h 0.433753 v 84.14823 H 37.17834 c -3.594082,0 -6.506306,2.91222 -6.506306,6.5063 0,3.59408 2.912224,6.50631 6.506306,6.50631 h 388.64332 c 3.59408,0 6.5063,-2.91223 6.5063,-6.50631 0,-3.59408 -2.91222,-6.5063 -6.5063,-6.5063 z M 238.0063,265.76654 h 42.50786 v 56.38799 H 238.0063 Z m -13.0126,56.38799 h -42.50786 v -56.38799 h 42.50786 z m 62.02678,-69.4006 H 175.97953 c -3.59408,0 -6.50631,2.91222 -6.50631,6.50631 v 62.89429 H 154.7256 v -98.02834 h 153.5488 v 98.02834 h -14.74762 v -62.89429 c 0,-3.59409 -2.91223,-6.50631 -6.5063,-6.50631 z m -145.30749,13.01261 v 56.38799 h -35.56781 v -56.38799 z m 179.57402,0 h 35.56781 v 56.38799 h -35.56781 z m 48.58042,0 h 35.56781 v 56.38799 h -35.56781 z m 35.56781,-27.76024 v 14.74763 H 321.28701 V 238.0063 Z M 182.91958,140.84547 h 97.16084 c 4.066,0 7.37381,3.30782 7.37381,7.37382 0,4.06601 -3.30781,7.37381 -7.37381,7.37381 h -97.16084 c -4.066,0 -7.37381,-3.3078 -7.37381,-7.37381 0,-4.066 3.30781,-7.37382 7.37381,-7.37382 z m 6.50631,27.76024 h 84.14822 v 14.74763 h -84.14822 z m 118.84851,27.76024 v 14.74763 H 154.7256 V 196.36595 Z M 141.71299,238.0063 v 14.74763 H 57.564765 V 238.0063 Z m -84.148225,27.76024 h 35.567804 v 56.38799 H 57.564765 Z"
     id="path2"
     style="fill:#e2e2e2;fill-opacity:1;stroke-width:0.867507" />
</svg>
