<?xml version="1.0" encoding="UTF-8" standalone="no"?>
<!-- Generator: Adobe Illustrator 18.1.1, SVG Export Plug-In . SVG Version: 6.00 Build 0)  -->

<svg
   xmlns:dc="http://purl.org/dc/elements/1.1/"
   xmlns:cc="http://creativecommons.org/ns#"
   xmlns:rdf="http://www.w3.org/1999/02/22-rdf-syntax-ns#"
   xmlns:svg="http://www.w3.org/2000/svg"
   xmlns="http://www.w3.org/2000/svg"
   xmlns:sodipodi="http://sodipodi.sourceforge.net/DTD/sodipodi-0.dtd"
   xmlns:inkscape="http://www.inkscape.org/namespaces/inkscape"
   version="1.1"
   id="Capa_1"
   x="0px"
   y="0px"
   viewBox="0 0 389.157 389.157"
   style="enable-background:new 0 0 389.157 389.157;"
   xml:space="preserve"
   sodipodi:docname="label.svg"
   inkscape:version="0.92.1 r15371"><metadata
   id="metadata45"><rdf:RDF><cc:Work
       rdf:about=""><dc:format>image/svg+xml</dc:format><dc:type
         rdf:resource="http://purl.org/dc/dcmitype/StillImage" /></cc:Work></rdf:RDF></metadata><defs
   id="defs43">
	
	
	















</defs><sodipodi:namedview
   pagecolor="#ffffff"
   bordercolor="#666666"
   borderopacity="1"
   objecttolerance="10"
   gridtolerance="10"
   guidetolerance="10"
   inkscape:pageopacity="0"
   inkscape:pageshadow="2"
   inkscape:window-width="1920"
   inkscape:window-height="1017"
   id="namedview41"
   showgrid="false"
   inkscape:zoom="1.7152686"
   inkscape:cx="377.17167"
   inkscape:cy="324.76918"
   inkscape:window-x="-8"
   inkscape:window-y="-8"
   inkscape:window-maximized="1"
   inkscape:current-layer="Capa_1" />
<path
   inkscape:connector-curvature="0"
   id="path2"
   d="m 0.081,232.699 c -0.431,4.373 0.862,8.641 3.65,12.038 L 99.77,361.65 c 2.788,3.39 6.73,5.495 11.096,5.926 0.545,0.057 1.097,0.081 1.634,0.081 3.796,0 7.438,-1.301 10.405,-3.739 L 349.839,177.489 c 7.015,-5.747 21.825,-65.248 22.711,-74.376 0.317,-3.235 0.293,-6.625 -2.008,-9.421 l -8.925,-10.86 c -2.845,-3.471 -7.966,-3.983 -11.437,-1.122 -3.471,2.853 -3.967,7.966 -1.122,11.437 l 7.299,8.893 c -1.138,11.209 -13.875,55.64 -17.785,63.663 L 112.345,351.335 16.347,234.186 242.321,48.546 c 8.633,-2.276 54.697,-6.194 65.906,-5.097 l 7.299,8.885 c 2.837,3.471 7.966,3.983 11.437,1.122 3.471,-2.853 3.967,-7.966 1.122,-11.437 l -8.925,-10.86 c -2.3,-2.804 -5.617,-3.487 -8.844,-3.796 -9.137,-0.951 -70.369,2.081 -77.376,7.844 L 6.031,221.619 c -3.397,2.78 -5.511,6.723 -5.95,11.08 z"
   style="fill:#b3b3b3" /><path
   inkscape:connector-curvature="0"
   id="path4"
   d="m 387.31,24.469 c -2.845,-3.455 -7.958,-3.983 -11.437,-1.122 l -87.927,72.239 c -3.471,2.853 -3.967,7.974 -1.122,11.437 1.601,1.951 3.934,2.967 6.283,2.967 1.813,0 3.633,-0.602 5.154,-1.853 l 87.927,-72.239 c 3.471,-2.845 3.967,-7.966 1.122,-11.429 z"
   style="fill:#999999" /><path
   inkscape:connector-curvature="0"
   id="path6"
   d="m 274.575,87.27 c 3.56,-2.926 7.868,-4.698 12.437,-5.137 4.471,-0.423 7.755,-4.381 7.324,-8.852 -0.423,-4.471 -4.3,-7.877 -8.852,-7.324 -7.82,0.732 -15.16,3.764 -21.232,8.754 -8.112,6.665 -13.136,16.086 -14.16,26.532 -1.024,10.445 2.081,20.663 8.746,28.767 7.755,9.437 19.029,14.331 30.385,14.331 8.771,0 17.607,-2.918 24.898,-8.917 8.104,-6.649 13.136,-16.078 14.16,-26.515 0.439,-4.471 -2.829,-8.446 -7.291,-8.885 -4.544,-0.406 -8.446,2.829 -8.885,7.291 -0.602,6.121 -3.552,11.64 -8.307,15.542 -4.755,3.902 -10.77,5.747 -16.859,5.121 -6.121,-0.593 -11.648,-3.544 -15.55,-8.299 -3.91,-4.755 -5.723,-10.738 -5.129,-16.859 0.617,-6.121 3.56,-11.64 8.315,-15.55 z"
   style="fill:#808080" />















</svg>