<?xml version="1.0" encoding="UTF-8" standalone="no"?>
<!-- Uploaded to: SVG Repo, www.svgrepo.com, Generator: SVG Repo Mixer Tools -->

<svg
   width="800px"
   height="800px"
   viewBox="0 -31.5 1087 1087"
   fill="#000000"
   class="icon"
   version="1.1"
   id="svg4"
   sodipodi:docname="lake.svg"
   inkscape:version="1.2.2 (b0a8486541, 2022-12-01)"
   xmlns:inkscape="http://www.inkscape.org/namespaces/inkscape"
   xmlns:sodipodi="http://sodipodi.sourceforge.net/DTD/sodipodi-0.dtd"
   xmlns="http://www.w3.org/2000/svg"
   xmlns:svg="http://www.w3.org/2000/svg">
  <defs
     id="defs8" />
  <sodipodi:namedview
     id="namedview6"
     pagecolor="#ffffff"
     bordercolor="#000000"
     borderopacity="0.25"
     inkscape:showpageshadow="2"
     inkscape:pageopacity="0.0"
     inkscape:pagecheckerboard="0"
     inkscape:deskcolor="#d1d1d1"
     showgrid="false"
     inkscape:zoom="1.085"
     inkscape:cx="391.24424"
     inkscape:cy="400"
     inkscape:window-width="1920"
     inkscape:window-height="1021"
     inkscape:window-x="1920"
     inkscape:window-y="30"
     inkscape:window-maximized="1"
     inkscape:current-layer="svg4" />
  <g
     id="g861">
    <g
       id="g855">
      <g
         id="g850">
        <g
           id="g846">
          <path
             d="m 645.08262,937.93762 c -126.02037,0 -241.68907,-43.65706 -309.53755,-116.9064 -42.30684,-45.68239 -62.56011,-98.67846 -58.39694,-153.3623 4.16318,-54.68384 35.10568,-94.40276 75.04964,-139.7476 27.67947,-31.28005 33.75546,-52.32096 30.60495,-61.54745 -4.16318,-11.25182 -26.5543,-20.36579 -38.9313,-22.50364 -86.97656,-0.6751 -162.36375,-28.57962 -202.53275,-75.04963 a 109.03013,109.03013 0 0 1 -27.56695,-89.33945 c 12.60203,-81.12561 119.83187,-142.33551 249.34031,-142.33551 132.09636,0 232.68763,63.23523 234.03784,146.94876 a 116.45633,116.45633 0 0 1 -31.05502,81.35065 c -24.41645,26.77933 -28.24206,45.00728 -26.21674,49.17045 0,0 9.11398,19.46565 88.66434,21.71602 191.95604,5.51339 345.65589,101.94148 365.34657,229.19955 a 190.04323,190.04323 0 0 1 -47.82023,155.8377 C 883.50867,894.16804 770.87796,937.93762 645.08262,937.93762 Z M 363.78714,204.20648 c -99.91615,0 -176.42852,45.00728 -182.61703,85.17628 a 42.531877,42.531877 0 0 0 12.03945,35.10567 c 26.44178,31.28006 86.86405,51.53333 153.13726,51.53333 h 5.28836 c 7.65123,1.2377 74.8246,13.27715 94.17772,67.51092 13.50219,37.58108 -1.12518,81.0131 -43.54454,129.05837 -33.75545,38.03115 -56.25909,65.5981 -58.39694,100.14119 a 137.38471,137.38471 0 0 0 40.61907,102.27904 c 55.35895,59.63464 152.57467,95.30291 260.02954,95.30291 107.45488,0 199.94483,-34.99316 250.12794,-93.50262 A 125.90786,125.90786 0 0 0 927.05321,675.54519 C 912.53837,581.93006 783.36748,508.0056 626.4046,503.50488 543.14114,501.14199 494.42076,481.00124 477.54303,440.60721 462.80315,405.9516 476.30533,363.19469 515.46167,320.32526 a 49.282968,49.282968 0 0 0 13.95225,-35.44323 C 529.3014,246.62584 460.77782,204.20648 363.44959,204.20648 Z M 819.9359,214.44564 765.81464,86.062381 717.99441,214.44564 h 34.20553 v 40.39403 h 33.64294 V 214.44564 Z M 947.53153,400.10066 873.04448,223.55961 807.33386,400.10066 h 46.92008 v 55.58398 h 46.24498 V 400.10066 Z M 231.57827,648.09075 157.20374,471.66223 91.380597,648.09075 H 138.4132 v 55.69651 h 46.13246 v -55.69651 z m 58.1719,224.92387 -60.42227,-143.23566 -53.33362,143.23566 h 38.14367 V 918.0219 H 251.6065 V 873.01462 Z M 717.99441,351.60532 668.59893,234.36136 624.82935,351.60532 h 31.28006 v 37.01848 h 30.60494 v -37.01848 z m -45.34483,483.15312 a 28.12955,28.12955 0 1 1 0,-56.2591 c 85.28879,0 160.11339,-41.40669 160.11339,-88.55182 a 54.458805,54.458805 0 0 0 -13.27715,-33.75546 28.142204,28.142204 0 1 1 43.99462,-35.10567 110.7179,110.7179 0 0 1 25.54162,69.19869 c -0.11251,80.78806 -95.07787,144.47336 -216.37248,144.47336 z"
             id="path2"
             style="fill:#e2e2e2;fill-opacity:1;stroke:none;stroke-width:0.831909;stroke-opacity:1" />
        </g>
      </g>
    </g>
  </g>
</svg>
