<?xml version="1.0" encoding="UTF-8" standalone="no"?>
<!-- Generator: Adobe Illustrator 19.0.0, SVG Export Plug-In . SVG Version: 6.00 Build 0)  -->

<svg
   version="1.1"
   id="Layer_1"
   x="0px"
   y="0px"
   viewBox="0 0 512.005 512.005"
   style="enable-background:new 0 0 512.005 512.005;"
   xml:space="preserve"
   sodipodi:docname="mountain.svg"
   inkscape:version="1.2.1 (9c6d41e410, 2022-07-14, custom)"
   xmlns:inkscape="http://www.inkscape.org/namespaces/inkscape"
   xmlns:sodipodi="http://sodipodi.sourceforge.net/DTD/sodipodi-0.dtd"
   xmlns="http://www.w3.org/2000/svg"
   xmlns:svg="http://www.w3.org/2000/svg"><defs
   id="defs51" /><sodipodi:namedview
   id="namedview49"
   pagecolor="#ffffff"
   bordercolor="#000000"
   borderopacity="0.25"
   inkscape:showpageshadow="2"
   inkscape:pageopacity="0.0"
   inkscape:pagecheckerboard="0"
   inkscape:deskcolor="#d1d1d1"
   showgrid="false"
   inkscape:zoom="0.85149785"
   inkscape:cx="52.260848"
   inkscape:cy="252.49623"
   inkscape:window-width="1920"
   inkscape:window-height="1021"
   inkscape:window-x="0"
   inkscape:window-y="30"
   inkscape:window-maximized="1"
   inkscape:current-layer="Layer_1" />
<g
   id="g16"
   style="fill:#e2e2e2;fill-opacity:1"
   transform="matrix(0.83755973,0,0,0.83755973,41.585128,41.585116)">
	<g
   id="g14"
   style="fill:#e2e2e2;fill-opacity:1">
		<g
   id="g12"
   style="fill:#e2e2e2;fill-opacity:1">
			<path
   d="m 4.475,425.637 c 1.289,0.7 2.679,1.033 4.053,1.033 3.029,0 5.965,-1.613 7.509,-4.471 L 127.192,216.964 c 0.239,-0.495 5.973,-12.16 17.877,-12.16 1.69,0 3.593,0.853 5.47,2.005 L 77.879,337.18 c -2.295,4.122 -0.811,9.318 3.302,11.614 1.314,0.725 2.739,1.075 4.147,1.075 2.995,0 5.897,-1.579 7.467,-4.378 l 71.552,-128.401 26.803,20.139 c 3.396,2.56 8.149,2.21 11.153,-0.794 l 45.167,-45.167 28.1,28.1 c 3.337,3.337 8.73,3.337 12.066,0 l 25.6,-25.6 c 3.337,-3.337 3.337,-8.73 0,-12.066 -3.337,-3.336 -8.73,-3.337 -12.066,0 l -19.567,19.567 -28.1,-28.1 c -3.337,-3.337 -8.73,-3.337 -12.066,0 l -45.969,45.969 -28.058,-21.043 -0.99,-0.785 c -4.489,-3.584 -12.006,-9.574 -21.35,-9.574 -22.929,0 -32.93,21.129 -33.101,21.538 L 1.036,414.074 c -2.253,4.139 -0.708,9.318 3.439,11.563 z"
   id="path2"
   style="fill:#e2e2e2;fill-opacity:1" />
			<path
   d="M 110.937,443.736 H 8.537 c -4.71,0 -8.533,3.823 -8.533,8.533 0,4.71 3.823,8.533 8.533,8.533 h 102.4 c 4.71,0 8.533,-3.823 8.533,-8.533 0,-4.71 -3.823,-8.533 -8.533,-8.533 z"
   id="path4"
   style="fill:#e2e2e2;fill-opacity:1" />
			<path
   d="m 173.281,182.582 c 4.147,2.244 9.318,0.691 11.563,-3.456 l 53.282,-98.697 c 0.239,-0.495 5.973,-12.16 17.877,-12.16 11.904,0 17.638,11.665 18.108,12.621 L 418.41,345.449 c 1.553,2.842 4.48,4.446 7.501,4.446 1.382,0 2.782,-0.333 4.079,-1.041 4.139,-2.261 5.666,-7.441 3.405,-11.58 L 394.44,265.867 c 2.099,-0.87 4.318,-1.331 6.63,-1.331 11.904,0 17.638,11.665 18.057,12.518 l 76.8,145.075 c 1.536,2.893 4.489,4.54 7.552,4.54 1.348,0 2.714,-0.316 3.985,-0.99 4.164,-2.21 5.751,-7.373 3.55,-11.537 L 434.419,269.493 c -0.418,-0.896 -10.419,-22.025 -33.348,-22.025 -5.197,0 -10.146,1.271 -14.771,3.473 L 289.352,73.227 c -0.418,-0.896 -10.419,-22.025 -33.348,-22.025 -22.938,0 -32.93,21.129 -33.109,21.547 l -53.069,98.27 c -2.236,4.139 -0.692,9.318 3.455,11.563 z"
   id="path6"
   style="fill:#e2e2e2;fill-opacity:1" />
			<path
   d="m 452.27,443.736 h -93.867 v -17.067 h 17.067 0.171 c 4.71,0 8.533,-3.823 8.533,-8.533 0,-1.647 -0.469,-3.183 -1.271,-4.48 l -25.037,-66.782 c -1.254,-3.328 -4.437,-5.538 -7.996,-5.538 -3.559,0 -6.741,2.21 -7.996,5.538 l -25.6,68.267 c -0.973,2.62 -0.614,5.555 0.981,7.859 1.596,2.295 4.215,3.669 7.014,3.669 h 17.067 v 17.067 h -34.133 v -25.6 c 0,-4.71 -3.823,-8.533 -8.533,-8.533 h -13.286 l 13.431,-35.823 1.86,4.779 c 1.715,4.395 6.656,6.562 11.042,4.864 4.395,-1.707 6.571,-6.656 4.864,-11.042 l -9.958,-25.6 c -1.28,-3.285 -4.437,-5.444 -7.953,-5.444 h -0.051 c -3.541,0.017 -6.699,2.227 -7.945,5.538 l -25.6,68.267 c -0.973,2.62 -0.614,5.555 0.981,7.859 1.596,2.295 4.215,3.669 7.014,3.669 h 17.067 v 17.067 H 153.603 V 426.67 h 17.067 0.171 c 4.71,0 8.533,-3.823 8.533,-8.533 0,-1.647 -0.469,-3.183 -1.271,-4.48 l -25.037,-66.782 c -1.254,-3.328 -4.437,-5.538 -7.996,-5.538 -3.558,0 -6.741,2.21 -7.996,5.538 l -25.591,68.267 c -0.981,2.62 -0.623,5.555 0.973,7.859 1.596,2.295 4.215,3.669 7.014,3.669 h 17.067 v 25.6 c 0,4.71 3.823,8.533 8.533,8.533 h 307.2 c 4.71,0 8.533,-3.823 8.533,-8.533 0,-4.71 -3.822,-8.534 -8.533,-8.534 z m -320.486,-34.133 13.286,-35.43 13.286,35.43 z m 204.8,0 13.286,-35.43 13.286,35.43 z"
   id="path8"
   style="fill:#e2e2e2;fill-opacity:1" />
			<path
   d="m 503.47,443.736 h -17.067 c -4.71,0 -8.533,3.823 -8.533,8.533 0,4.71 3.823,8.533 8.533,8.533 h 17.067 c 4.71,0 8.533,-3.823 8.533,-8.533 0,-4.71 -3.822,-8.533 -8.533,-8.533 z"
   id="path10"
   style="fill:#e2e2e2;fill-opacity:1" />
		</g>
	</g>
</g>
<g
   id="g18"
   style="fill:#e2e2e2;fill-opacity:1"
   transform="matrix(0.83755973,0,0,0.83755973,41.585128,41.585116)">
</g>
<g
   id="g20"
   style="fill:#e2e2e2;fill-opacity:1"
   transform="matrix(0.83755973,0,0,0.83755973,41.585128,41.585116)">
</g>
<g
   id="g22"
   style="fill:#e2e2e2;fill-opacity:1"
   transform="matrix(0.83755973,0,0,0.83755973,41.585128,41.585116)">
</g>
<g
   id="g24"
   style="fill:#e2e2e2;fill-opacity:1"
   transform="matrix(0.83755973,0,0,0.83755973,41.585128,41.585116)">
</g>
<g
   id="g26"
   style="fill:#e2e2e2;fill-opacity:1"
   transform="matrix(0.83755973,0,0,0.83755973,41.585128,41.585116)">
</g>
<g
   id="g28"
   style="fill:#e2e2e2;fill-opacity:1"
   transform="matrix(0.83755973,0,0,0.83755973,41.585128,41.585116)">
</g>
<g
   id="g30"
   style="fill:#e2e2e2;fill-opacity:1"
   transform="matrix(0.83755973,0,0,0.83755973,41.585128,41.585116)">
</g>
<g
   id="g32"
   style="fill:#e2e2e2;fill-opacity:1"
   transform="matrix(0.83755973,0,0,0.83755973,41.585128,41.585116)">
</g>
<g
   id="g34"
   style="fill:#e2e2e2;fill-opacity:1"
   transform="matrix(0.83755973,0,0,0.83755973,41.585128,41.585116)">
</g>
<g
   id="g36"
   style="fill:#e2e2e2;fill-opacity:1"
   transform="matrix(0.83755973,0,0,0.83755973,41.585128,41.585116)">
</g>
<g
   id="g38"
   style="fill:#e2e2e2;fill-opacity:1"
   transform="matrix(0.83755973,0,0,0.83755973,41.585128,41.585116)">
</g>
<g
   id="g40"
   style="fill:#e2e2e2;fill-opacity:1"
   transform="matrix(0.83755973,0,0,0.83755973,41.585128,41.585116)">
</g>
<g
   id="g42"
   style="fill:#e2e2e2;fill-opacity:1"
   transform="matrix(0.83755973,0,0,0.83755973,41.585128,41.585116)">
</g>
<g
   id="g44"
   style="fill:#e2e2e2;fill-opacity:1"
   transform="matrix(0.83755973,0,0,0.83755973,41.585128,41.585116)">
</g>
<g
   id="g46"
   style="fill:#e2e2e2;fill-opacity:1"
   transform="matrix(0.83755973,0,0,0.83755973,41.585128,41.585116)">
</g>
</svg>
