<?xml version="1.0" encoding="UTF-8" standalone="no"?>
<!-- Generator: Adobe Illustrator 19.0.0, SVG Export Plug-In . SVG Version: 6.00 Build 0)  -->

<svg
   version="1.1"
   id="Layer_1"
   x="0px"
   y="0px"
   viewBox="0 0 512 512"
   style="enable-background:new 0 0 512 512;"
   xml:space="preserve"
   sodipodi:docname="outdoor.svg"
   inkscape:version="1.2.1 (9c6d41e410, 2022-07-14, custom)"
   xmlns:inkscape="http://www.inkscape.org/namespaces/inkscape"
   xmlns:sodipodi="http://sodipodi.sourceforge.net/DTD/sodipodi-0.dtd"
   xmlns="http://www.w3.org/2000/svg"
   xmlns:svg="http://www.w3.org/2000/svg"><defs
   id="defs47">
	

		
	</defs><sodipodi:namedview
   id="namedview45"
   pagecolor="#ffffff"
   bordercolor="#000000"
   borderopacity="0.25"
   inkscape:showpageshadow="2"
   inkscape:pageopacity="0.0"
   inkscape:pagecheckerboard="0"
   inkscape:deskcolor="#d1d1d1"
   showgrid="false"
   inkscape:zoom="1.6425781"
   inkscape:cx="250.52081"
   inkscape:cy="255.6956"
   inkscape:window-width="1920"
   inkscape:window-height="1021"
   inkscape:window-x="0"
   inkscape:window-y="30"
   inkscape:window-maximized="1"
   inkscape:current-layer="Layer_1" />
<path
   d="m 475.78049,244.44116 v -60.47873 c 0,-4.98094 -4.03834,-9.0184 -9.0184,-9.0184 -4.98006,0 -9.01841,4.03746 -9.01841,9.0184 v 60.13742 h -62.35863 l -25.41582,-60.99779 h 16.52298 c 4.98006,0 9.0184,-4.03746 9.0184,-9.0184 v -33.75512 c 0,-4.98095 -4.03834,-9.0184 -9.0184,-9.0184 H 125.50944 c -4.98094,0 -9.0184,4.03745 -9.0184,9.0184 v 33.75512 c 0,4.98094 4.03746,9.0184 9.0184,9.0184 h 16.5221 l -25.41582,60.99779 H 54.257081 v -30.48696 c 0,-4.98094 -4.037457,-9.0184 -9.018402,-9.0184 -4.980945,0 -9.018401,4.03746 -9.018401,9.0184 v 30.82827 c -3.797827,1.06198 -6.586732,4.5406 -6.586732,8.67709 v 33.75512 c 0,4.98094 4.037457,9.0184 9.018402,9.0184 h 56.382033 l -30.130605,72.3108 c -1.160128,2.78272 -0.851527,5.96246 0.821462,8.47105 1.672105,2.5086 4.488421,4.01624 7.503692,4.01624 h 39.51774 c 3.64043,0 6.92451,-2.1885 8.32515,-5.5504 l 33.01943,-79.24857 h 203.81376 l 33.02031,79.24857 c 1.40065,3.36101 4.68296,5.5504 8.32427,5.5504 h 39.51774 c 3.01616,0 5.83159,-1.50675 7.50369,-4.01624 1.67211,-2.50859 1.98071,-5.68833 0.82058,-8.47105 l -30.12884,-72.3108 h 56.38469 c 4.98006,0 9.0184,-4.03746 9.0184,-9.0184 v -33.75512 c 8.9e-4,-4.13649 -2.78802,-7.61422 -6.58496,-8.67709 z M 134.52784,165.06349 v -15.71743 h 242.94508 v 15.71743 z m 176.38275,18.03769 25.41582,60.99778 H 175.67347 l 25.41582,-60.99778 z M 47.67035,277.85497 v -15.71744 h 61.42841 l -6.54959,15.71744 z m 59.06571,84.79809 H 86.758344 L 161.57155,183.10118 h 19.97684 z m 54.87263,-84.79809 6.54959,-15.71744 h 175.68509 l 6.54959,15.71744 z m 263.63285,84.79809 H 405.2647 L 330.45061,183.10118 h 19.97683 z m 39.08799,-84.79809 h -54.8797 l -6.54959,-15.71744 h 61.42929 z"
   id="path2"
   style="fill:#e2e2e2;fill-opacity:1;stroke-width:0.884244" />

<g
   id="g14"
   style="fill:#e2e2e2;fill-opacity:1">
</g>
<g
   id="g16"
   style="fill:#e2e2e2;fill-opacity:1">
</g>
<g
   id="g18"
   style="fill:#e2e2e2;fill-opacity:1">
</g>
<g
   id="g20"
   style="fill:#e2e2e2;fill-opacity:1">
</g>
<g
   id="g22"
   style="fill:#e2e2e2;fill-opacity:1">
</g>
<g
   id="g24"
   style="fill:#e2e2e2;fill-opacity:1">
</g>
<g
   id="g26"
   style="fill:#e2e2e2;fill-opacity:1">
</g>
<g
   id="g28"
   style="fill:#e2e2e2;fill-opacity:1">
</g>
<g
   id="g30"
   style="fill:#e2e2e2;fill-opacity:1">
</g>
<g
   id="g32"
   style="fill:#e2e2e2;fill-opacity:1">
</g>
<g
   id="g34"
   style="fill:#e2e2e2;fill-opacity:1">
</g>
<g
   id="g36"
   style="fill:#e2e2e2;fill-opacity:1">
</g>
<g
   id="g38"
   style="fill:#e2e2e2;fill-opacity:1">
</g>
<g
   id="g40"
   style="fill:#e2e2e2;fill-opacity:1">
</g>
<g
   id="g42"
   style="fill:#e2e2e2;fill-opacity:1">
</g>
</svg>
