<?xml version="1.0" encoding="UTF-8" standalone="no"?>
<!-- Generator: Adobe Illustrator 19.0.0, SVG Export Plug-In . SVG Version: 6.00 Build 0)  -->

<svg
   version="1.1"
   id="Layer_1"
   x="0px"
   y="0px"
   viewBox="0 0 512 512"
   style="enable-background:new 0 0 512 512;"
   xml:space="preserve"
   sodipodi:docname="parking.svg"
   inkscape:version="1.2.1 (9c6d41e410, 2022-07-14, custom)"
   xmlns:inkscape="http://www.inkscape.org/namespaces/inkscape"
   xmlns:sodipodi="http://sodipodi.sourceforge.net/DTD/sodipodi-0.dtd"
   xmlns="http://www.w3.org/2000/svg"
   xmlns:svg="http://www.w3.org/2000/svg"><defs
   id="defs47" /><sodipodi:namedview
   id="namedview45"
   pagecolor="#ffffff"
   bordercolor="#000000"
   borderopacity="0.25"
   inkscape:showpageshadow="2"
   inkscape:pageopacity="0.0"
   inkscape:pagecheckerboard="0"
   inkscape:deskcolor="#d1d1d1"
   showgrid="false"
   inkscape:zoom="0.7753378"
   inkscape:cx="-105.11547"
   inkscape:cy="283.74729"
   inkscape:window-width="1920"
   inkscape:window-height="1021"
   inkscape:window-x="0"
   inkscape:window-y="30"
   inkscape:window-maximized="1"
   inkscape:current-layer="Layer_1" />
<g
   id="g6"
   style="fill:#e2e2e2;fill-opacity:1"
   transform="matrix(0.75785719,0,0,0.75785719,61.988559,61.988559)">
	<g
   id="g4"
   style="fill:#e2e2e2;fill-opacity:1">
		<path
   d="m 277.347,79.644 h -108 c -6.283,0 -10.058,4.993 -10.058,11.276 v 147.911 c 0,6.283 3.775,11.479 10.058,11.479 h 108 c 47.1,0 85.422,-38.278 85.422,-85.333 0,-47.055 -38.322,-85.333 -85.422,-85.333 z m 0,147.912 H 182.044 V 102.4 h 95.303 c 34.555,0 62.667,28.072 62.667,62.578 0,34.506 -28.111,62.578 -62.667,62.578 z"
   id="path2"
   style="fill:#e2e2e2;fill-opacity:1" />
	</g>
</g>
<g
   id="g12"
   style="fill:#e2e2e2;fill-opacity:1"
   transform="matrix(0.75785719,0,0,0.75785719,61.988559,61.988559)">
	<g
   id="g10"
   style="fill:#e2e2e2;fill-opacity:1">
		<path
   d="M 294.414,0 H 78.325 C 72.042,0 68.267,4.993 68.267,11.276 v 489.245 c 0,6.283 3.775,11.479 10.058,11.479 h 91.022 c 6.283,0 12.697,-5.196 12.697,-11.479 V 329.956 h 112.37 c 81.605,0 149.319,-66.451 149.319,-148.007 V 147.81 C 443.733,66.249 376.019,0 294.414,0 Z m 126.564,181.949 c 0,69.006 -57.503,125.251 -126.564,125.251 H 169.347 c -6.283,0 -10.058,4.993 -10.058,11.276 V 489.244 H 91.022 V 22.756 h 203.392 c 69.061,0 126.564,56.043 126.564,125.054 v 34.139 z"
   id="path8"
   style="fill:#e2e2e2;fill-opacity:1" />
	</g>
</g>
<g
   id="g14"
   style="fill:#e2e2e2;fill-opacity:1"
   transform="matrix(0.75785719,0,0,0.75785719,61.988559,61.988559)">
</g>
<g
   id="g16"
   style="fill:#e2e2e2;fill-opacity:1"
   transform="matrix(0.75785719,0,0,0.75785719,61.988559,61.988559)">
</g>
<g
   id="g18"
   style="fill:#e2e2e2;fill-opacity:1"
   transform="matrix(0.75785719,0,0,0.75785719,61.988559,61.988559)">
</g>
<g
   id="g20"
   style="fill:#e2e2e2;fill-opacity:1"
   transform="matrix(0.75785719,0,0,0.75785719,61.988559,61.988559)">
</g>
<g
   id="g22"
   style="fill:#e2e2e2;fill-opacity:1"
   transform="matrix(0.75785719,0,0,0.75785719,61.988559,61.988559)">
</g>
<g
   id="g24"
   style="fill:#e2e2e2;fill-opacity:1"
   transform="matrix(0.75785719,0,0,0.75785719,61.988559,61.988559)">
</g>
<g
   id="g26"
   style="fill:#e2e2e2;fill-opacity:1"
   transform="matrix(0.75785719,0,0,0.75785719,61.988559,61.988559)">
</g>
<g
   id="g28"
   style="fill:#e2e2e2;fill-opacity:1"
   transform="matrix(0.75785719,0,0,0.75785719,61.988559,61.988559)">
</g>
<g
   id="g30"
   style="fill:#e2e2e2;fill-opacity:1"
   transform="matrix(0.75785719,0,0,0.75785719,61.988559,61.988559)">
</g>
<g
   id="g32"
   style="fill:#e2e2e2;fill-opacity:1"
   transform="matrix(0.75785719,0,0,0.75785719,61.988559,61.988559)">
</g>
<g
   id="g34"
   style="fill:#e2e2e2;fill-opacity:1"
   transform="matrix(0.75785719,0,0,0.75785719,61.988559,61.988559)">
</g>
<g
   id="g36"
   style="fill:#e2e2e2;fill-opacity:1"
   transform="matrix(0.75785719,0,0,0.75785719,61.988559,61.988559)">
</g>
<g
   id="g38"
   style="fill:#e2e2e2;fill-opacity:1"
   transform="matrix(0.75785719,0,0,0.75785719,61.988559,61.988559)">
</g>
<g
   id="g40"
   style="fill:#e2e2e2;fill-opacity:1"
   transform="matrix(0.75785719,0,0,0.75785719,61.988559,61.988559)">
</g>
<g
   id="g42"
   style="fill:#e2e2e2;fill-opacity:1"
   transform="matrix(0.75785719,0,0,0.75785719,61.988559,61.988559)">
</g>
</svg>
