<?xml version="1.0" encoding="UTF-8" standalone="no"?>
<!-- Generator: Adobe Illustrator 19.0.0, SVG Export Plug-In . SVG Version: 6.00 Build 0)  -->

<svg
   version="1.1"
   id="Capa_1"
   x="0px"
   y="0px"
   viewBox="0 0 490 490"
   style="enable-background:new 0 0 490 490;"
   xml:space="preserve"
   sodipodi:docname="photo.svg"
   inkscape:version="1.2.1 (9c6d41e410, 2022-07-14, custom)"
   xmlns:inkscape="http://www.inkscape.org/namespaces/inkscape"
   xmlns:sodipodi="http://sodipodi.sourceforge.net/DTD/sodipodi-0.dtd"
   xmlns="http://www.w3.org/2000/svg"
   xmlns:svg="http://www.w3.org/2000/svg"><defs
   id="defs45" /><sodipodi:namedview
   id="namedview43"
   pagecolor="#ffffff"
   bordercolor="#000000"
   borderopacity="0.25"
   inkscape:showpageshadow="2"
   inkscape:pageopacity="0.0"
   inkscape:pagecheckerboard="0"
   inkscape:deskcolor="#d1d1d1"
   showgrid="false"
   inkscape:zoom="1.1168178"
   inkscape:cx="218.0302"
   inkscape:cy="328.61225"
   inkscape:window-width="1920"
   inkscape:window-height="1021"
   inkscape:window-x="0"
   inkscape:window-y="30"
   inkscape:window-maximized="1"
   inkscape:current-layer="Capa_1" />
<g
   id="g10"
   transform="matrix(0.9092149,0,0,0.9092149,22.24235,22.24235)"
   style="fill:#e2e2e2;fill-opacity:1">
	<g
   id="g8"
   style="fill:#e2e2e2;fill-opacity:1">
		<path
   d="m 0,167.85 v 216.2 c 0,33 26.8,59.8 59.8,59.8 h 370.4 c 33,0 59.8,-26.8 59.8,-59.8 v -216.2 c 0,-31.4 -25.5,-56.9 -56.9,-56.9 h -79.6 l -1.9,-8.3 c -7.7,-33.3 -37,-56.5 -71.2,-56.5 h -70.9 c -34.1,0 -63.4,23.2 -71.2,56.5 l -1.9,8.3 H 56.9 c -31.4,0 -56.9,25.6 -56.9,56.9 z m 146.2,-32.4 c 5.7,0 10.6,-3.9 11.9,-9.5 l 4.1,-17.8 c 5.2,-22.1 24.6,-37.5 47.3,-37.5 h 70.9 c 22.7,0 42.1,15.4 47.3,37.5 l 4.1,17.8 c 1.3,5.5 6.2,9.5 11.9,9.5 H 433 c 17.9,0 32.4,14.5 32.4,32.4 v 216.2 c 0,19.5 -15.8,35.3 -35.3,35.3 H 59.8 c -19.5,0 -35.3,-15.8 -35.3,-35.3 v -216.2 c 0,-17.9 14.5,-32.4 32.4,-32.4 h 89.3 z"
   id="path2"
   style="fill:#e2e2e2;fill-opacity:1" />
		<circle
   cx="82.900002"
   cy="187.75"
   r="16.4"
   id="circle4"
   style="fill:#e2e2e2;fill-opacity:1" />
		<path
   d="m 245,380.95 c 56.7,0 102.9,-46.2 102.9,-102.9 0,-56.7 -46.2,-102.9 -102.9,-102.9 -56.7,0 -102.9,46.1 -102.9,102.9 0,56.8 46.2,102.9 102.9,102.9 z m 0,-181.3 c 43.2,0 78.4,35.2 78.4,78.4 0,43.2 -35.2,78.4 -78.4,78.4 -43.2,0 -78.4,-35.2 -78.4,-78.4 0,-43.2 35.2,-78.4 78.4,-78.4 z"
   id="path6"
   style="fill:#e2e2e2;fill-opacity:1" />
	</g>
</g>
<g
   id="g12">
</g>
<g
   id="g14">
</g>
<g
   id="g16">
</g>
<g
   id="g18">
</g>
<g
   id="g20">
</g>
<g
   id="g22">
</g>
<g
   id="g24">
</g>
<g
   id="g26">
</g>
<g
   id="g28">
</g>
<g
   id="g30">
</g>
<g
   id="g32">
</g>
<g
   id="g34">
</g>
<g
   id="g36">
</g>
<g
   id="g38">
</g>
<g
   id="g40">
</g>
</svg>
