<?xml version="1.0" encoding="UTF-8" standalone="no"?>
<svg
   version="1.0"
   width="1280pt"
   height="1280pt"
   viewBox="0 0 1280 1280"
   preserveAspectRatio="xMidYMid"
   id="svg18"
   sodipodi:docname="pov.svg"
   inkscape:version="1.2.1 (9c6d41e410, 2022-07-14, custom)"
   xmlns:inkscape="http://www.inkscape.org/namespaces/inkscape"
   xmlns:sodipodi="http://sodipodi.sourceforge.net/DTD/sodipodi-0.dtd"
   xmlns="http://www.w3.org/2000/svg"
   xmlns:svg="http://www.w3.org/2000/svg">
  <defs
     id="defs22" />
  <sodipodi:namedview
     id="namedview20"
     pagecolor="#ffffff"
     bordercolor="#000000"
     borderopacity="0.25"
     inkscape:showpageshadow="2"
     inkscape:pageopacity="0.0"
     inkscape:pagecheckerboard="0"
     inkscape:deskcolor="#d1d1d1"
     inkscape:document-units="pt"
     showgrid="false"
     inkscape:zoom="0.33382943"
     inkscape:cx="208.19015"
     inkscape:cy="518.22873"
     inkscape:window-width="1920"
     inkscape:window-height="1021"
     inkscape:window-x="0"
     inkscape:window-y="30"
     inkscape:window-maximized="1"
     inkscape:current-layer="svg18" />
  <metadata
     id="metadata2">
Created by potrace 1.15, written by Peter Selinger 2001-2017
</metadata>
  <g
     id="g2151"
     transform="matrix(1.155183,0,0,1.155183,43.102504,-99.375039)">
    <path
       d="m 529.00333,386.08802 c -102.39934,72.47746 -186.51309,132.23811 -186.92867,132.81992 -0.4987,0.74805 4.32205,9.97397 15.37653,29.17384 8.89345,15.45964 16.54015,28.25956 17.03885,28.50891 0.83116,0.33247 415.41551,-191.1676 416.82849,-192.49746 0.74804,-0.74805 -73.80732,-129.32904 -75.05407,-129.49528 -0.58181,-0.0831 -84.86179,59.09573 -187.26113,131.49007 z"
       id="path6"
       style="fill:#e2e2e2;fill-opacity:1;stroke:none;stroke-width:0.0831164" />
    <path
       d="m 186.56397,529.46372 c -14.46224,1.66233 -30.5037,6.98177 -43.2205,14.2129 -28.01021,16.04145 -47.293202,42.97115 -54.191859,75.55276 -2.077908,9.80773 -2.077908,31.75044 0,41.55817 8.311635,39.48027 35.324449,70.81513 72.311229,83.8644 12.7168,4.48828 22.69076,6.15061 36.73742,6.15061 19.03365,0 33.82836,-3.574 50.61786,-12.13499 27.34528,-13.96355 47.70878,-38.6491 56.10353,-67.90606 3.24154,-11.55317 4.23894,-18.61806 4.23894,-30.75305 0,-12.13498 -0.9974,-19.19987 -4.23894,-30.75304 -9.80773,-34.41017 -36.65431,-62.58661 -70.56578,-74.2229 -14.12978,-4.82075 -33.74523,-7.14801 -47.7919,-5.5688 z"
       id="path8"
       style="fill:#e2e2e2;fill-opacity:1;stroke:none;stroke-width:0.0831164" />
    <path
       d="M 836.11824,572.76734 C 634.89356,587.8114 388.5367,605.93076 385.4614,605.93076 h -3.15843 v 34.0777 34.07771 h 3.15843 c 1.66232,0 79.20988,5.56879 172.21707,12.46745 93.00719,6.89866 218.42977,16.20769 278.68912,20.61285 l 109.46423,8.14541 v -75.46965 c 0,-41.55817 -0.0831,-75.38653 -0.16623,-75.38653 -0.16624,0.0831 -49.45423,3.82336 -109.54735,8.31164 z"
       id="path10"
       style="fill:#e2e2e2;fill-opacity:1;stroke:none;stroke-width:0.0831164" />
    <path
       d="m 370.83292,708.74569 c -23.18946,40.06208 -29.42319,51.3659 -28.75826,52.3633 1.16363,1.74544 373.52487,264.72561 374.43915,264.39311 1.16363,-0.4156 75.46965,-128.99658 74.80472,-129.5784 -0.83117,-0.83116 -415.49863,-192.74681 -416.41291,-192.74681 -0.4987,0 -2.32726,2.49349 -4.0727,5.5688 z"
       id="path12"
       style="fill:#e2e2e2;fill-opacity:1;stroke:none;stroke-width:0.0831164" />
  </g>
</svg>
