<?xml version="1.0" encoding="UTF-8" standalone="no"?>
<svg
   width="32px"
   height="32px"
   viewBox="0 0 32 32"
   id="icon"
   version="1.1"
   sodipodi:docname="precision.svg"
   inkscape:version="1.2.1 (9c6d41e410, 2022-07-14, custom)"
   xmlns:inkscape="http://www.inkscape.org/namespaces/inkscape"
   xmlns:sodipodi="http://sodipodi.sourceforge.net/DTD/sodipodi-0.dtd"
   xmlns="http://www.w3.org/2000/svg"
   xmlns:svg="http://www.w3.org/2000/svg">
  <sodipodi:namedview
     id="namedview18"
     pagecolor="#ffffff"
     bordercolor="#000000"
     borderopacity="0.25"
     inkscape:showpageshadow="2"
     inkscape:pageopacity="0.0"
     inkscape:pagecheckerboard="0"
     inkscape:deskcolor="#d1d1d1"
     showgrid="false"
     inkscape:zoom="26.28125"
     inkscape:cx="16"
     inkscape:cy="15.980975"
     inkscape:window-width="1920"
     inkscape:window-height="1021"
     inkscape:window-x="0"
     inkscape:window-y="30"
     inkscape:window-maximized="1"
     inkscape:current-layer="icon" />
  <defs
     id="defs4">
    <style
       id="style2">.cls-1{fill:none;}</style>
  </defs>
  <title
     id="title6">meter</title>
  <path
     d="M26,16a9.9283,9.9283,0,0,0-1.1392-4.6182l-1.4961,1.4961A7.9483,7.9483,0,0,1,24,16Z"
     id="path8"
     style="fill:#e2e2e2;fill-opacity:1" />
  <path
     d="M23.4141,10,22,8.5859l-4.7147,4.7147A2.9659,2.9659,0,0,0,16,13a3,3,0,1,0,3,3,2.9659,2.9659,0,0,0-.3006-1.2853ZM16,17a1,1,0,1,1,1-1A1.0013,1.0013,0,0,1,16,17Z"
     id="path10"
     style="fill:#e2e2e2;fill-opacity:1" />
  <path
     d="M16,8a7.9515,7.9515,0,0,1,3.1223.6353l1.4961-1.4961A9.9864,9.9864,0,0,0,6,16H8A8.0092,8.0092,0,0,1,16,8Z"
     id="path12"
     style="fill:#e2e2e2;fill-opacity:1" />
  <path
     d="M16,30A14,14,0,1,1,30,16,14.0158,14.0158,0,0,1,16,30ZM16,4A12,12,0,1,0,28,16,12.0137,12.0137,0,0,0,16,4Z"
     id="path14"
     style="fill:#e2e2e2;fill-opacity:1" />
  <rect
     id="_Transparent_Rectangle_"
     data-name="&lt;Transparent Rectangle&gt;"
     class="cls-1"
     width="32"
     height="32" />
</svg>
