<?xml version="1.0" encoding="UTF-8" standalone="no"?>
<!-- Generator: Adobe Illustrator 19.0.0, SVG Export Plug-In . SVG Version: 6.00 Build 0)  -->

<svg
   version="1.1"
   id="Layer_1"
   x="0px"
   y="0px"
   viewBox="0 0 512 512"
   style="enable-background:new 0 0 512 512;"
   xml:space="preserve"
   sodipodi:docname="user-profile.svg"
   inkscape:version="1.2.1 (9c6d41e410, 2022-07-14, custom)"
   xmlns:inkscape="http://www.inkscape.org/namespaces/inkscape"
   xmlns:sodipodi="http://sodipodi.sourceforge.net/DTD/sodipodi-0.dtd"
   xmlns="http://www.w3.org/2000/svg"
   xmlns:svg="http://www.w3.org/2000/svg"><defs
   id="defs53" /><sodipodi:namedview
   id="namedview51"
   pagecolor="#ffffff"
   bordercolor="#000000"
   borderopacity="0.25"
   inkscape:showpageshadow="2"
   inkscape:pageopacity="0.0"
   inkscape:pagecheckerboard="0"
   inkscape:deskcolor="#d1d1d1"
   showgrid="false"
   inkscape:zoom="0.40482745"
   inkscape:cx="-90.16187"
   inkscape:cy="-106.21809"
   inkscape:window-width="1920"
   inkscape:window-height="1021"
   inkscape:window-x="0"
   inkscape:window-y="30"
   inkscape:window-maximized="1"
   inkscape:current-layer="Layer_1" />
<g
   id="g6"
   style="fill:#e2e2e2;fill-opacity:1"
   transform="matrix(0.86928857,0,0,0.86928857,33.462125,33.462125)">
	<g
   id="g4"
   style="fill:#e2e2e2;fill-opacity:1">
		<path
   d="M 256,0 C 114.608,0 0,114.608 0,256 0,397.392 114.608,512 256,512 397.392,512 512,397.392 512,256 512,114.608 397.392,0 256,0 Z m 0,496 C 123.664,496 16,388.336 16,256 16,123.664 123.664,16 256,16 388.336,16 496,123.664 496,256 496,388.336 388.336,496 256,496 Z"
   id="path2"
   style="fill:#e2e2e2;fill-opacity:1" />
	</g>
</g>
<g
   id="g12"
   style="fill:#e2e2e2;fill-opacity:1"
   transform="matrix(0.86928857,0,0,0.86928857,33.462125,33.462125)">
	<g
   id="g10"
   style="fill:#e2e2e2;fill-opacity:1">
		<path
   d="m 257.408,106.256 c -32.704,0 -59.296,26.608 -59.296,59.312 0,32.704 26.592,59.296 59.296,59.296 32.704,0 59.312,-26.592 59.312,-59.296 0,-32.704 -26.608,-59.312 -59.312,-59.312 z m 0,102.608 c -23.872,0 -43.296,-19.424 -43.296,-43.296 0,-23.872 19.424,-43.312 43.296,-43.312 23.872,0 43.312,19.44 43.312,43.312 0,23.872 -19.44,43.296 -43.312,43.296 z"
   id="path8"
   style="fill:#e2e2e2;fill-opacity:1" />
	</g>
</g>
<g
   id="g18"
   style="fill:#e2e2e2;fill-opacity:1"
   transform="matrix(0.86928857,0,0,0.86928857,33.462125,33.462125)">
	<g
   id="g16"
   style="fill:#e2e2e2;fill-opacity:1">
		<path
   d="m 314.112,252.256 -56.704,42.752 -56.704,-42.752 c -69.792,20.944 -68.912,91.6 -68.912,91.6 h 125.616 125.616 c 0,0 0.88,-70.656 -68.912,-91.6 z m -56.72,75.584 H 149.824 c 3.888,-17.408 15.2,-44.688 48.048,-57.68 l 49.904,37.616 c 2.848,2.144 6.24,3.216 9.632,3.216 3.392,0 6.784,-1.072 9.632,-3.216 l 49.904,-37.632 c 33.008,13.024 44.256,40.272 48.096,57.696 H 257.392 Z"
   id="path14"
   style="fill:#e2e2e2;fill-opacity:1" />
	</g>
</g>
<g
   id="g20"
   style="fill:#e2e2e2;fill-opacity:1"
   transform="matrix(0.86928857,0,0,0.86928857,33.462125,33.462125)">
</g>
<g
   id="g22"
   style="fill:#e2e2e2;fill-opacity:1"
   transform="matrix(0.86928857,0,0,0.86928857,33.462125,33.462125)">
</g>
<g
   id="g24"
   style="fill:#e2e2e2;fill-opacity:1"
   transform="matrix(0.86928857,0,0,0.86928857,33.462125,33.462125)">
</g>
<g
   id="g26"
   style="fill:#e2e2e2;fill-opacity:1"
   transform="matrix(0.86928857,0,0,0.86928857,33.462125,33.462125)">
</g>
<g
   id="g28"
   style="fill:#e2e2e2;fill-opacity:1"
   transform="matrix(0.86928857,0,0,0.86928857,33.462125,33.462125)">
</g>
<g
   id="g30"
   style="fill:#e2e2e2;fill-opacity:1"
   transform="matrix(0.86928857,0,0,0.86928857,33.462125,33.462125)">
</g>
<g
   id="g32"
   style="fill:#e2e2e2;fill-opacity:1"
   transform="matrix(0.86928857,0,0,0.86928857,33.462125,33.462125)">
</g>
<g
   id="g34"
   style="fill:#e2e2e2;fill-opacity:1"
   transform="matrix(0.86928857,0,0,0.86928857,33.462125,33.462125)">
</g>
<g
   id="g36"
   style="fill:#e2e2e2;fill-opacity:1"
   transform="matrix(0.86928857,0,0,0.86928857,33.462125,33.462125)">
</g>
<g
   id="g38"
   style="fill:#e2e2e2;fill-opacity:1"
   transform="matrix(0.86928857,0,0,0.86928857,33.462125,33.462125)">
</g>
<g
   id="g40"
   style="fill:#e2e2e2;fill-opacity:1"
   transform="matrix(0.86928857,0,0,0.86928857,33.462125,33.462125)">
</g>
<g
   id="g42"
   style="fill:#e2e2e2;fill-opacity:1"
   transform="matrix(0.86928857,0,0,0.86928857,33.462125,33.462125)">
</g>
<g
   id="g44"
   style="fill:#e2e2e2;fill-opacity:1"
   transform="matrix(0.86928857,0,0,0.86928857,33.462125,33.462125)">
</g>
<g
   id="g46"
   style="fill:#e2e2e2;fill-opacity:1"
   transform="matrix(0.86928857,0,0,0.86928857,33.462125,33.462125)">
</g>
<g
   id="g48"
   style="fill:#e2e2e2;fill-opacity:1"
   transform="matrix(0.86928857,0,0,0.86928857,33.462125,33.462125)">
</g>
</svg>
