<?xml version="1.0" encoding="UTF-8" standalone="no"?>
<svg
   version="1.1"
   viewBox="0 0 470 470"
   enable-background="new 0 0 470 470"
   id="svg16"
   sodipodi:docname="regular.svg"
   inkscape:version="1.2.1 (9c6d41e410, 2022-07-14, custom)"
   xmlns:inkscape="http://www.inkscape.org/namespaces/inkscape"
   xmlns:sodipodi="http://sodipodi.sourceforge.net/DTD/sodipodi-0.dtd"
   xmlns="http://www.w3.org/2000/svg"
   xmlns:svg="http://www.w3.org/2000/svg">
  <defs
     id="defs20" />
  <sodipodi:namedview
     id="namedview18"
     pagecolor="#ffffff"
     bordercolor="#000000"
     borderopacity="0.25"
     inkscape:showpageshadow="2"
     inkscape:pageopacity="0.0"
     inkscape:pagecheckerboard="0"
     inkscape:deskcolor="#d1d1d1"
     showgrid="false"
     inkscape:zoom="1.7893617"
     inkscape:cx="229.97027"
     inkscape:cy="235.27943"
     inkscape:window-width="1920"
     inkscape:window-height="1021"
     inkscape:window-x="0"
     inkscape:window-y="30"
     inkscape:window-maximized="1"
     inkscape:current-layer="svg16" />
  <g
     id="g14"
     style="fill:#e2e2e2;fill-opacity:1"
     transform="matrix(0.90340105,0,0,0.90340105,22.700803,22.700754)">
    <path
       d="m 375.303,160.673 h -31.311 v -2.5 c 0,-4.142 -3.357,-7.5 -7.5,-7.5 -4.143,0 -7.5,3.358 -7.5,7.5 V 327.11 c 0,4.142 3.357,7.5 7.5,7.5 4.143,0 7.5,-3.358 7.5,-7.5 v -2.5 h 31.311 c 19.16,0 34.748,-15.588 34.748,-34.748 v -94.441 c 0,-19.16 -15.588,-34.748 -34.748,-34.748 z m 19.748,129.189 c 0,10.889 -8.859,19.748 -19.748,19.748 H 343.992 V 175.673 h 31.311 c 10.889,0 19.748,8.859 19.748,19.748 z"
       id="path2"
       style="fill:#e2e2e2;fill-opacity:1" />
    <path
       d="M 375.303,120.673 H 343.992 V 87.135 c 0,-4.142 -3.357,-7.5 -7.5,-7.5 h -3.53 c -3.696,-28.793 -28.344,-51.123 -58.126,-51.123 -5.282,0 -10.486,0.702 -15.534,2.091 C 242.709,11.087 218.833,0 192.993,0 c -25.84,0 -49.716,11.087 -66.311,30.604 -5.047,-1.389 -10.252,-2.091 -15.534,-2.091 -29.782,0 -54.43,22.329 -58.126,51.123 h -3.529 c -4.142,0 -7.5,3.358 -7.5,7.5 V 393.24 c -13.375,6.888 -22.044,20.802 -22.044,36.131 0,22.403 18.226,40.629 40.629,40.629 h 264.829 c 22.403,0 40.63,-18.226 40.63,-40.629 0,-15.329 -8.669,-29.243 -22.044,-36.131 v -28.63 h 31.311 c 41.216,0 74.748,-33.532 74.748,-74.748 v -94.441 c -0.001,-41.216 -33.533,-74.748 -74.749,-74.748 z M 111.148,43.513 c 5.318,0 10.527,0.955 15.484,2.838 3.122,1.186 6.653,0.165 8.659,-2.505 C 149.068,25.514 170.1,15 192.993,15 c 22.893,0 43.925,10.514 57.702,28.845 2.006,2.67 5.535,3.692 8.658,2.505 4.957,-1.883 10.167,-2.838 15.484,-2.838 21.495,0 39.396,15.632 42.964,36.123 H 68.184 c 3.568,-20.49 21.469,-36.122 42.964,-36.122 z m 323.903,246.349 c 0,32.945 -26.803,59.748 -59.748,59.748 h -38.811 c -4.143,0 -7.5,3.358 -7.5,7.5 v 41.038 c 0,3.175 1.999,6.005 4.99,7.068 10.2,3.622 17.054,13.329 17.054,24.155 0,14.132 -11.497,25.629 -25.63,25.629 H 60.578 c -14.132,0 -25.629,-11.498 -25.629,-25.629 0,-10.826 6.853,-20.533 17.054,-24.155 2.992,-1.063 4.99,-3.893 4.99,-7.068 V 94.635 h 272 v 33.538 c 0,4.142 3.357,7.5 7.5,7.5 h 38.811 c 32.945,0 59.748,26.803 59.748,59.748 v 94.441 z"
       id="path4"
       style="fill:#e2e2e2;fill-opacity:1" />
    <path
       d="m 216.493,390.648 h -107 c -12.407,0 -22.5,-10.093 -22.5,-22.5 V 258.173 c 0,-4.142 -3.358,-7.5 -7.5,-7.5 -4.142,0 -7.5,3.358 -7.5,7.5 v 109.975 c 0,20.678 16.822,37.5 37.5,37.5 h 107 c 4.142,0 7.5,-3.358 7.5,-7.5 0,-4.142 -3.358,-7.5 -7.5,-7.5 z"
       id="path6"
       style="fill:#e2e2e2;fill-opacity:1" />
    <circle
       cx="268.99301"
       cy="287.18701"
       r="7.5"
       id="circle8"
       style="fill:#e2e2e2;fill-opacity:1" />
    <circle
       cx="268.99301"
       cy="317.18701"
       r="7.5"
       id="circle10"
       style="fill:#e2e2e2;fill-opacity:1" />
    <path
       d="m 306.493,109.635 c -4.143,0 -7.5,3.358 -7.5,7.5 v 73.538 h -212 v -73.538 c 0,-4.142 -3.358,-7.5 -7.5,-7.5 -4.142,0 -7.5,3.358 -7.5,7.5 v 111.038 c 0,4.142 3.358,7.5 7.5,7.5 4.142,0 7.5,-3.358 7.5,-7.5 v -22.5 h 212 v 162.475 c 0,12.407 -10.094,22.5 -22.5,22.5 h -30 c -4.142,0 -7.5,3.358 -7.5,7.5 0,4.142 3.358,7.5 7.5,7.5 h 30 c 20.678,0 37.5,-16.822 37.5,-37.5 V 117.135 c 0,-4.142 -3.358,-7.5 -7.5,-7.5 z"
       id="path12"
       style="fill:#e2e2e2;fill-opacity:1" />
  </g>
</svg>
