<?xml version="1.0" encoding="UTF-8" standalone="no"?>
<svg
   xmlns:dc="http://purl.org/dc/elements/1.1/"
   xmlns:cc="http://creativecommons.org/ns#"
   xmlns:rdf="http://www.w3.org/1999/02/22-rdf-syntax-ns#"
   xmlns:svg="http://www.w3.org/2000/svg"
   xmlns="http://www.w3.org/2000/svg"
   xmlns:sodipodi="http://sodipodi.sourceforge.net/DTD/sodipodi-0.dtd"
   xmlns:inkscape="http://www.inkscape.org/namespaces/inkscape"
   version="1.1"
   viewBox="0 0 470 470"
   enable-background="new 0 0 470 470"
   id="svg16"
   sodipodi:docname="restaurant.svg"
   inkscape:version="0.92.4 (5da689c313, 2019-01-14)">
  <metadata
     id="metadata12">
    <rdf:RDF>
      <cc:Work
         rdf:about="">
        <dc:format>image/svg+xml</dc:format>
        <dc:type
           rdf:resource="http://purl.org/dc/dcmitype/StillImage" />
        <dc:title></dc:title>
      </cc:Work>
    </rdf:RDF>
  </metadata>
  <defs
     id="defs20" />
  <sodipodi:namedview
     id="namedview18"
     pagecolor="#ffffff"
     bordercolor="#000000"
     borderopacity="0.25"
     inkscape:showpageshadow="2"
     inkscape:pageopacity="0.0"
     inkscape:pagecheckerboard="0"
     inkscape:deskcolor="#d1d1d1"
     showgrid="false"
     inkscape:zoom="0.6326349"
     inkscape:cx="-222.72172"
     inkscape:cy="284.15595"
     inkscape:window-width="1920"
     inkscape:window-height="1017"
     inkscape:window-x="-8"
     inkscape:window-y="-8"
     inkscape:window-maximized="1"
     inkscape:current-layer="svg16" />
  <path
     d="M 63.037931,63.122187 374.24402,374.32828 a 31.489735,31.489735 0 0 1 0,44.53162 v 0 a 31.498182,31.498182 0 0 1 -44.53162,0 l -76.02135,-77.33061 a 27.029816,27.029816 0 0 1 -7.77108,-18.94621 v -4.67109 a 27.029816,27.029816 0 0 0 -8.04137,-19.24185 l -9.8152,-9.06344 a 27.029816,27.029816 0 0 0 -25.17151,-6.28443 v 0 A 40.992405,40.992405 0 0 1 163.56351,272.65394 L 91.402344,200.48433 C 48.593873,157.67586 32.840559,93.032368 63.037931,63.122187 Z"
     style="fill:none;fill-opacity:1;stroke:#e2e2e2;stroke-width:27.02981567px;stroke-linejoin:round;stroke-opacity:1"
     id="path4-9"
     inkscape:connector-curvature="0" />
  <path
     d="m 352.34987,49.826897 -65.25166,65.251663 a 54.059631,54.059631 0 0 0 -15.83778,38.2303 v 12.55197 a 13.514908,13.514908 0 0 1 -3.96156,9.56179 l -9.55335,9.55336"
     style="fill:none;fill-opacity:1;stroke:#e2e2e2;stroke-width:27.02981567px;stroke-linecap:round;stroke-linejoin:round;stroke-opacity:1"
     id="path6-6"
     inkscape:connector-curvature="0" />
  <path
     d="m 284.77533,212.00579 9.55336,-9.55335 a 13.514908,13.514908 0 0 1 9.56179,-3.96156 h 12.55197 a 54.059631,54.059631 0 0 0 38.2303,-15.83778 l 65.25166,-65.25166"
     style="fill:none;fill-opacity:1;stroke:#e2e2e2;stroke-width:27.02981567px;stroke-linecap:round;stroke-linejoin:round;stroke-opacity:1"
     id="path8"
     inkscape:connector-curvature="0" />
  <line
     x1="386.13715"
     y1="83.614166"
     x2="318.56259"
     y2="151.18871"
     style="fill:none;fill-opacity:1;stroke:#e2e2e2;stroke-width:27.02981567px;stroke-linecap:round;stroke-linejoin:round;stroke-opacity:1"
     id="line10" />
  <path
     d="m 183.41353,333.63996 -84.231667,84.70469 a 33.78727,33.78727 0 0 1 -47.775199,0 v 0 a 33.78727,33.78727 0 0 1 0,-47.7752 l 71.189776,-70.71676"
     style="fill:none;fill-opacity:1;stroke:#e2e2e2;stroke-width:27.02981567px;stroke-linecap:round;stroke-linejoin:round;stroke-opacity:1"
     id="path12-8"
     inkscape:connector-curvature="0" />
</svg>
