<?xml version="1.0" encoding="UTF-8" standalone="no"?>
<!-- Generator: Adobe Illustrator 18.0.0, SVG Export Plug-In . SVG Version: 6.00 Build 0)  -->

<svg
   version="1.1"
   id="Capa_1"
   x="0px"
   y="0px"
   viewBox="0 0 399.888 399.888"
   style="enable-background:new 0 0 399.888 399.888;"
   xml:space="preserve"
   sodipodi:docname="river-trail-svgrepo-com.svg"
   inkscape:version="1.2.1 (9c6d41e410, 2022-07-14, custom)"
   xmlns:inkscape="http://www.inkscape.org/namespaces/inkscape"
   xmlns:sodipodi="http://sodipodi.sourceforge.net/DTD/sodipodi-0.dtd"
   xmlns="http://www.w3.org/2000/svg"
   xmlns:svg="http://www.w3.org/2000/svg"><defs
   id="defs45" /><sodipodi:namedview
   id="namedview43"
   pagecolor="#ffffff"
   bordercolor="#000000"
   borderopacity="0.25"
   inkscape:showpageshadow="2"
   inkscape:pageopacity="0.0"
   inkscape:pagecheckerboard="0"
   inkscape:deskcolor="#d1d1d1"
   showgrid="false"
   inkscape:zoom="1.182984"
   inkscape:cx="11.411819"
   inkscape:cy="203.72211"
   inkscape:window-width="1920"
   inkscape:window-height="1021"
   inkscape:window-x="0"
   inkscape:window-y="30"
   inkscape:window-maximized="1"
   inkscape:current-layer="Capa_1" />
<g
   id="g10"
   style="fill:#e2e2e2;fill-opacity:1"
   transform="matrix(0.85451294,0,0,0.85451294,29.089308,29.089261)">
	<path
   d="m 322.833,381.871 c -0.258,-0.005 -26.109,-0.57 -53.849,-7.807 -24.776,-6.463 -56.088,-19.696 -64.552,-46.03 -15.083,-46.925 34.861,-113.407 74.992,-166.826 30.772,-40.96 55.077,-73.313 53.277,-95.816 C 331.6,51.627 320.427,38.469 299.493,26.283 283.924,17.22 262.719,8.47 236.467,0.274 c -3.164,-0.987 -6.528,0.776 -7.516,3.939 -0.987,3.163 0.776,6.528 3.939,7.515 74.494,23.257 87.015,44.204 87.848,54.62 1.438,17.972 -23.989,51.819 -50.909,87.652 -43.97,58.529 -93.806,124.867 -76.822,177.705 19.092,59.399 125.096,62.078 129.599,62.163 0.039,0 0.077,0.001 0.115,0.001 3.261,0 5.935,-2.612 5.997,-5.887 0.064,-3.312 -2.572,-6.049 -5.885,-6.111 z"
   id="path2"
   style="fill:#e2e2e2;fill-opacity:1" />
	<path
   d="M 244.412,89.767 C 248.448,77.661 247.278,66 240.936,55.111 219.323,17.997 143.113,2.62 139.879,1.983 c -3.25,-0.642 -6.406,1.477 -7.046,4.728 -0.64,3.251 1.477,6.406 4.729,7.046 0.187,0.037 18.888,3.761 39.875,11.66 27.08,10.192 45.453,22.548 53.131,35.733 4.594,7.889 5.399,16.009 2.461,24.823 -4.137,12.41 -31.346,35.429 -60.153,59.799 -31.966,27.042 -68.196,57.692 -94.246,89.904 -31.357,38.775 -41,71.624 -29.48,100.423 10.19,25.477 26.378,45.971 49.486,62.653 1.063,0.767 2.29,1.136 3.507,1.136 1.861,0 3.697,-0.864 4.87,-2.489 1.939,-2.687 1.334,-6.437 -1.353,-8.376 -21.208,-15.311 -36.049,-34.08 -45.369,-57.381 -22.388,-55.97 60.103,-125.754 120.334,-176.709 32.732,-27.691 58.586,-49.563 63.787,-65.166 z"
   id="path4"
   style="fill:#e2e2e2;fill-opacity:1" />
	<path
   d="m 90.915,128.189 c -2.083,2.578 -1.682,6.355 0.895,8.438 2.577,2.083 6.354,1.682 8.438,-0.895 L 111,122.428 v 28.273 c 0,3.313 2.686,6 6,6 3.314,0 6,-2.687 6,-6 v -28.273 l 10.752,13.304 c 1.186,1.467 2.92,2.229 4.67,2.229 1.324,0 2.657,-0.436 3.768,-1.333 2.577,-2.083 2.978,-5.86 0.895,-8.438 L 123,103.336 V 92.081 l 10.752,13.305 c 1.186,1.467 2.92,2.229 4.67,2.229 1.324,0 2.657,-0.436 3.768,-1.333 2.577,-2.083 2.978,-5.86 0.895,-8.438 L 123,72.99 V 61.734 l 10.752,13.304 c 1.186,1.467 2.92,2.229 4.67,2.229 1.324,0 2.657,-0.437 3.768,-1.333 2.577,-2.083 2.978,-5.861 0.895,-8.438 L 121.667,40.993 c -1.139,-1.41 -2.854,-2.229 -4.667,-2.229 -1.813,0 -3.527,0.819 -4.667,2.229 L 90.915,67.496 c -2.083,2.577 -1.682,6.355 0.895,8.438 2.577,2.082 6.354,1.682 8.438,-0.896 L 111,61.734 V 72.99 L 90.915,97.843 c -2.083,2.578 -1.682,6.355 0.895,8.438 2.577,2.083 6.354,1.682 8.438,-0.895 L 111,92.081 v 11.255 z"
   id="path6"
   style="fill:#e2e2e2;fill-opacity:1" />
	<path
   d="m 344.764,260.612 c 1.186,1.467 2.92,2.229 4.67,2.229 1.324,0 2.657,-0.436 3.768,-1.333 2.577,-2.083 2.978,-5.86 0.895,-8.438 L 323,214.591 v -26.857 l 21.763,26.929 c 1.186,1.467 2.92,2.229 4.67,2.229 1.324,0 2.657,-0.436 3.768,-1.333 2.577,-2.083 2.978,-5.86 0.895,-8.438 l -32.43,-40.128 c -1.139,-1.409 -2.854,-2.229 -4.667,-2.229 -1.813,0 -3.527,0.819 -4.667,2.229 l -32.43,40.128 c -2.083,2.578 -1.682,6.355 0.895,8.438 2.577,2.083 6.354,1.682 8.438,-0.895 L 311,187.735 v 26.857 l -31.096,38.478 c -2.083,2.578 -1.682,6.355 0.895,8.438 2.577,2.083 6.354,1.682 8.438,-0.895 L 311,233.683 v 26.857 l -31.096,38.478 c -2.083,2.578 -1.682,6.355 0.895,8.438 2.577,2.083 6.354,1.682 8.438,-0.895 L 311,279.631 v 51.57 c 0,3.313 2.687,6 6,6 3.313,0 6,-2.687 6,-6 v -51.57 l 21.763,26.929 c 1.186,1.467 2.92,2.229 4.67,2.229 1.324,0 2.657,-0.436 3.768,-1.333 2.577,-2.083 2.978,-5.86 0.895,-8.438 L 323,260.54 v -26.857 z"
   id="path8"
   style="fill:#e2e2e2;fill-opacity:1" />
</g>
<g
   id="g12"
   style="fill:#e2e2e2;fill-opacity:1"
   transform="matrix(0.85451294,0,0,0.85451294,29.089308,29.089261)">
</g>
<g
   id="g14"
   style="fill:#e2e2e2;fill-opacity:1"
   transform="matrix(0.85451294,0,0,0.85451294,29.089308,29.089261)">
</g>
<g
   id="g16"
   style="fill:#e2e2e2;fill-opacity:1"
   transform="matrix(0.85451294,0,0,0.85451294,29.089308,29.089261)">
</g>
<g
   id="g18"
   style="fill:#e2e2e2;fill-opacity:1"
   transform="matrix(0.85451294,0,0,0.85451294,29.089308,29.089261)">
</g>
<g
   id="g20"
   style="fill:#e2e2e2;fill-opacity:1"
   transform="matrix(0.85451294,0,0,0.85451294,29.089308,29.089261)">
</g>
<g
   id="g22"
   style="fill:#e2e2e2;fill-opacity:1"
   transform="matrix(0.85451294,0,0,0.85451294,29.089308,29.089261)">
</g>
<g
   id="g24"
   style="fill:#e2e2e2;fill-opacity:1"
   transform="matrix(0.85451294,0,0,0.85451294,29.089308,29.089261)">
</g>
<g
   id="g26"
   style="fill:#e2e2e2;fill-opacity:1"
   transform="matrix(0.85451294,0,0,0.85451294,29.089308,29.089261)">
</g>
<g
   id="g28"
   style="fill:#e2e2e2;fill-opacity:1"
   transform="matrix(0.85451294,0,0,0.85451294,29.089308,29.089261)">
</g>
<g
   id="g30"
   style="fill:#e2e2e2;fill-opacity:1"
   transform="matrix(0.85451294,0,0,0.85451294,29.089308,29.089261)">
</g>
<g
   id="g32"
   style="fill:#e2e2e2;fill-opacity:1"
   transform="matrix(0.85451294,0,0,0.85451294,29.089308,29.089261)">
</g>
<g
   id="g34"
   style="fill:#e2e2e2;fill-opacity:1"
   transform="matrix(0.85451294,0,0,0.85451294,29.089308,29.089261)">
</g>
<g
   id="g36"
   style="fill:#e2e2e2;fill-opacity:1"
   transform="matrix(0.85451294,0,0,0.85451294,29.089308,29.089261)">
</g>
<g
   id="g38"
   style="fill:#e2e2e2;fill-opacity:1"
   transform="matrix(0.85451294,0,0,0.85451294,29.089308,29.089261)">
</g>
<g
   id="g40"
   style="fill:#e2e2e2;fill-opacity:1"
   transform="matrix(0.85451294,0,0,0.85451294,29.089308,29.089261)">
</g>
</svg>
