<?xml version="1.0" encoding="UTF-8" standalone="no"?>
<!-- Generator: Adobe Illustrator 19.0.0, SVG Export Plug-In . SVG Version: 6.00 Build 0)  -->

<svg
   version="1.1"
   id="Layer_1"
   x="0px"
   y="0px"
   viewBox="0 0 512 512"
   style="enable-background:new 0 0 512 512;"
   xml:space="preserve"
   sodipodi:docname="snack.svg"
   inkscape:version="1.2.1 (9c6d41e410, 2022-07-14, custom)"
   xmlns:inkscape="http://www.inkscape.org/namespaces/inkscape"
   xmlns:sodipodi="http://sodipodi.sourceforge.net/DTD/sodipodi-0.dtd"
   xmlns="http://www.w3.org/2000/svg"
   xmlns:svg="http://www.w3.org/2000/svg"><defs
   id="defs47" /><sodipodi:namedview
   id="namedview45"
   pagecolor="#ffffff"
   bordercolor="#000000"
   borderopacity="0.25"
   inkscape:showpageshadow="2"
   inkscape:pageopacity="0.0"
   inkscape:pagecheckerboard="0"
   inkscape:deskcolor="#d1d1d1"
   showgrid="false"
   inkscape:zoom="1.6425781"
   inkscape:cx="250.52081"
   inkscape:cy="255.6956"
   inkscape:window-width="1920"
   inkscape:window-height="1021"
   inkscape:window-x="0"
   inkscape:window-y="30"
   inkscape:window-maximized="1"
   inkscape:current-layer="Layer_1" />
<g
   id="g6"
   style="fill:#e2e2e2;fill-opacity:1"
   transform="matrix(0.86249102,0,0,0.86249102,35.202438,35.2023)">
	<g
   id="g4"
   style="fill:#e2e2e2;fill-opacity:1">
		<path
   d="m 495.304,278.261 c -8.722,0 -75.204,0 -83.478,0 V 150.215 c 6.3,-4.74 11.91,-10.35 16.65,-16.65 h 33.437 C 489.531,133.565 512,111.096 512,83.478 512,55.86 489.531,33.391 461.913,33.391 H 428.476 C 413.231,13.129 388.991,0 361.739,0 H 150.261 C 123.009,0 98.769,13.129 83.524,33.391 H 50.087 C 22.469,33.391 0,55.86 0,83.478 c 0,27.618 22.469,50.087 50.087,50.087 h 33.437 c 4.74,6.3 10.35,11.91 16.65,16.65 V 278.261 H 50.087 c -9.22,0 -16.696,7.475 -16.696,16.696 v 133.565 c 0,9.22 7.475,16.696 16.696,16.696 h 51.767 c 7.755,38.057 41.485,66.782 81.798,66.782 40.313,0 74.042,-28.725 81.799,-66.783 h 79.593 v 50.087 c 0,9.22 7.475,16.696 16.696,16.696 9.221,0 16.696,-7.475 16.696,-16.696 v -50.087 h 50.087 c 9.22,0 16.696,-7.475 16.696,-16.696 v -116.87 h 50.087 c 9.22,0 16.696,-7.475 16.696,-16.696 0,-9.221 -7.477,-16.694 -16.698,-16.694 z M 443.538,66.783 h 18.375 c 9.206,0 16.696,7.49 16.696,16.696 0,9.206 -7.49,16.696 -16.696,16.696 h -18.375 c 2.238,-10.982 2.243,-22.389 0,-33.392 z M 68.462,100.174 H 50.087 c -9.206,0 -16.696,-7.49 -16.696,-16.696 0,-9.206 7.49,-16.696 16.696,-16.696 h 18.375 c -2.238,10.982 -2.243,22.388 0,33.392 z m 81.799,-66.783 h 211.478 c 27.902,0 50.087,22.804 50.087,50.087 0,27.286 -22.195,50.087 -50.087,50.087 H 150.261 c -27.902,0 -50.087,-22.804 -50.087,-50.087 0,-27.286 22.195,-50.087 50.087,-50.087 z m 178.087,178.087 c -9.22,0 -16.696,7.475 -16.696,16.696 v 50.087 h -33.391 v -50.087 c 0,-9.22 -7.475,-16.696 -16.696,-16.696 -9.22,0 -16.696,7.475 -16.696,16.696 v 50.087 H 133.565 V 165.277 c 5.396,1.1 10.979,1.68 16.696,1.68 h 211.478 c 5.717,0 11.3,-0.58 16.696,-1.68 v 112.984 h -33.391 v -50.087 c -10e-4,-9.221 -7.476,-16.696 -16.696,-16.696 z M 183.652,478.609 c -27.618,0 -50.087,-22.469 -50.087,-50.087 0,-27.618 22.469,-50.087 50.087,-50.087 27.618,0 50.087,22.469 50.087,50.087 0,27.618 -22.469,50.087 -50.087,50.087 z M 411.826,411.826 H 265.451 c -7.756,-38.057 -41.485,-66.783 -81.799,-66.783 -40.313,0 -74.042,28.725 -81.799,66.783 H 66.783 V 311.652 h 345.044 v 100.174 z"
   id="path2"
   style="fill:#e2e2e2;fill-opacity:1" />
	</g>
</g>
<g
   id="g12"
   style="fill:#e2e2e2;fill-opacity:1"
   transform="matrix(0.86249102,0,0,0.86249102,35.202438,35.2023)">
	<g
   id="g10"
   style="fill:#e2e2e2;fill-opacity:1">
		<circle
   cx="183.65199"
   cy="428.522"
   r="16.695999"
   id="circle8"
   style="fill:#e2e2e2;fill-opacity:1" />
	</g>
</g>
<g
   id="g14"
   style="fill:#e2e2e2;fill-opacity:1"
   transform="matrix(0.86249102,0,0,0.86249102,35.202438,35.2023)">
</g>
<g
   id="g16"
   style="fill:#e2e2e2;fill-opacity:1"
   transform="matrix(0.86249102,0,0,0.86249102,35.202438,35.2023)">
</g>
<g
   id="g18"
   style="fill:#e2e2e2;fill-opacity:1"
   transform="matrix(0.86249102,0,0,0.86249102,35.202438,35.2023)">
</g>
<g
   id="g20"
   style="fill:#e2e2e2;fill-opacity:1"
   transform="matrix(0.86249102,0,0,0.86249102,35.202438,35.2023)">
</g>
<g
   id="g22"
   style="fill:#e2e2e2;fill-opacity:1"
   transform="matrix(0.86249102,0,0,0.86249102,35.202438,35.2023)">
</g>
<g
   id="g24"
   style="fill:#e2e2e2;fill-opacity:1"
   transform="matrix(0.86249102,0,0,0.86249102,35.202438,35.2023)">
</g>
<g
   id="g26"
   style="fill:#e2e2e2;fill-opacity:1"
   transform="matrix(0.86249102,0,0,0.86249102,35.202438,35.2023)">
</g>
<g
   id="g28"
   style="fill:#e2e2e2;fill-opacity:1"
   transform="matrix(0.86249102,0,0,0.86249102,35.202438,35.2023)">
</g>
<g
   id="g30"
   style="fill:#e2e2e2;fill-opacity:1"
   transform="matrix(0.86249102,0,0,0.86249102,35.202438,35.2023)">
</g>
<g
   id="g32"
   style="fill:#e2e2e2;fill-opacity:1"
   transform="matrix(0.86249102,0,0,0.86249102,35.202438,35.2023)">
</g>
<g
   id="g34"
   style="fill:#e2e2e2;fill-opacity:1"
   transform="matrix(0.86249102,0,0,0.86249102,35.202438,35.2023)">
</g>
<g
   id="g36"
   style="fill:#e2e2e2;fill-opacity:1"
   transform="matrix(0.86249102,0,0,0.86249102,35.202438,35.2023)">
</g>
<g
   id="g38"
   style="fill:#e2e2e2;fill-opacity:1"
   transform="matrix(0.86249102,0,0,0.86249102,35.202438,35.2023)">
</g>
<g
   id="g40"
   style="fill:#e2e2e2;fill-opacity:1"
   transform="matrix(0.86249102,0,0,0.86249102,35.202438,35.2023)">
</g>
<g
   id="g42"
   style="fill:#e2e2e2;fill-opacity:1"
   transform="matrix(0.86249102,0,0,0.86249102,35.202438,35.2023)">
</g>
</svg>
