<?xml version="1.0" encoding="UTF-8" standalone="no"?>
<!-- Generator: Adobe Illustrator 17.1.0, SVG Export Plug-In . SVG Version: 6.00 Build 0)  -->

<svg
   version="1.1"
   id="Capa_1"
   x="0px"
   y="0px"
   viewBox="0 0 511 511"
   style="enable-background:new 0 0 511 511;"
   xml:space="preserve"
   sodipodi:docname="store.svg"
   inkscape:version="1.2.1 (9c6d41e410, 2022-07-14, custom)"
   xmlns:inkscape="http://www.inkscape.org/namespaces/inkscape"
   xmlns:sodipodi="http://sodipodi.sourceforge.net/DTD/sodipodi-0.dtd"
   xmlns="http://www.w3.org/2000/svg"
   xmlns:svg="http://www.w3.org/2000/svg"><defs
   id="defs43" /><sodipodi:namedview
   id="namedview41"
   pagecolor="#ffffff"
   bordercolor="#000000"
   borderopacity="0.25"
   inkscape:showpageshadow="2"
   inkscape:pageopacity="0.0"
   inkscape:pagecheckerboard="0"
   inkscape:deskcolor="#d1d1d1"
   showgrid="false"
   inkscape:zoom="1.1178796"
   inkscape:cx="123.00073"
   inkscape:cy="250.47421"
   inkscape:window-width="1920"
   inkscape:window-height="1021"
   inkscape:window-x="0"
   inkscape:window-y="30"
   inkscape:window-maximized="1"
   inkscape:current-layer="Capa_1" />
<g
   id="g8"
   style="fill:#e2e2e2;fill-opacity:1"
   transform="matrix(0.83230037,0,0,0.83230037,42.847255,42.847255)">
	<path
   d="M 503.5,440 H 479 V 207.433 c 13.842,-3.487 24,-16.502 24,-31.933 V 71.5 C 503,62.953 496.047,56 487.5,56 H 23.5 C 14.953,56 8,62.953 8,71.5 v 104 c 0,15.432 10.158,28.446 24,31.933 V 440 H 7.5 c -4.142,0 -7.5,3.358 -7.5,7.5 0,4.142 3.358,7.5 7.5,7.5 h 496 c 4.142,0 7.5,-3.358 7.5,-7.5 0,-4.142 -3.358,-7.5 -7.5,-7.5 z M 488,71.5 v 104 c 0,9.383 -6.999,17.384 -15.602,17.834 -4.595,0.235 -8.939,-1.36 -12.254,-4.505 -3.317,-3.148 -5.145,-7.4 -5.145,-11.971 V 71 h 32.5 c 0.277,0 0.501,0.224 0.501,0.5 z M 71,71 h 33 v 105.858 c 0,9.098 -7.402,16.5 -16.5,16.5 -9.098,0 -16.5,-7.402 -16.5,-16.5 z m 48,0 h 33 v 105.858 c 0,9.098 -7.402,16.5 -16.5,16.5 -9.098,0 -16.5,-7.402 -16.5,-16.5 z m 48,0 h 33 v 105.858 c 0,9.098 -7.402,16.5 -16.5,16.5 -9.098,0 -16.5,-7.402 -16.5,-16.5 z m 48,0 h 33 v 105.858 c 0,9.098 -7.402,16.5 -16.5,16.5 -9.098,0 -16.5,-7.402 -16.5,-16.5 z m 48,0 h 33 v 105.858 c 0,9.098 -7.402,16.5 -16.5,16.5 -9.098,0 -16.5,-7.402 -16.5,-16.5 z m 48,0 h 33 v 105.858 c 0,9.098 -7.402,16.5 -16.5,16.5 -9.098,0 -16.5,-7.402 -16.5,-16.5 z m 48,0 h 33 v 105.858 c 0,9.098 -7.402,16.5 -16.5,16.5 -9.098,0 -16.5,-7.402 -16.5,-16.5 z m 48,0 h 33 v 105.858 c 0,9.098 -7.402,16.5 -16.5,16.5 -9.098,0 -16.5,-7.402 -16.5,-16.5 z M 23,175.5 V 71.5 C 23,71.224 23.224,71 23.5,71 H 56 v 105.858 c 0,4.571 -1.827,8.823 -5.145,11.971 -3.314,3.146 -7.663,4.743 -12.254,4.505 C 29.999,192.884 23,184.883 23,175.5 Z m 24,31.962 c 5.266,-1.279 10.128,-3.907 14.181,-7.753 0.822,-0.78 1.599,-1.603 2.326,-2.462 5.782,6.793 14.393,11.11 23.993,11.11 9.604,0 18.218,-4.32 24,-11.119 5.782,6.799 14.396,11.119 24,11.119 9.604,0 18.218,-4.32 24,-11.119 5.782,6.799 14.396,11.119 24,11.119 9.604,0 18.218,-4.32 24,-11.119 5.782,6.799 14.396,11.119 24,11.119 9.604,0 18.218,-4.32 24,-11.119 5.782,6.799 14.396,11.119 24,11.119 9.604,0 18.218,-4.32 24,-11.119 5.782,6.799 14.396,11.119 24,11.119 9.604,0 18.218,-4.32 24,-11.119 5.782,6.799 14.396,11.119 24,11.119 9.604,0 18.218,-4.32 24,-11.119 5.782,6.799 14.396,11.119 24,11.119 9.6,0 18.21,-4.317 23.993,-11.11 0.728,0.859 1.504,1.682 2.326,2.462 4.054,3.847 8.914,6.482 14.181,7.761 V 440 H 431 V 263.5 c 0,-8.547 -6.953,-15.5 -15.5,-15.5 h -96 c -8.547,0 -15.5,6.953 -15.5,15.5 V 440 H 47 Z M 416,440 H 319 V 263.5 c 0,-0.276 0.224,-0.5 0.5,-0.5 h 96 c 0.276,0 0.5,0.224 0.5,0.5 z"
   id="path2"
   style="fill:#e2e2e2;fill-opacity:1" />
	<path
   d="m 343.5,336 c -4.142,0 -7.5,3.358 -7.5,7.5 v 16 c 0,4.142 3.358,7.5 7.5,7.5 4.142,0 7.5,-3.358 7.5,-7.5 v -16 c 0,-4.142 -3.358,-7.5 -7.5,-7.5 z"
   id="path4"
   style="fill:#e2e2e2;fill-opacity:1" />
	<path
   d="m 262.5,248 h -174 c -4.687,0 -8.5,3.813 -8.5,8.5 v 142 c 0,4.687 3.813,8.5 8.5,8.5 h 174 c 4.687,0 8.5,-3.813 8.5,-8.5 v -142 c 0,-4.687 -3.813,-8.5 -8.5,-8.5 z M 256,392 H 95 V 263 h 161 z"
   id="path6"
   style="fill:#e2e2e2;fill-opacity:1" />
</g>
<g
   id="g10"
   style="fill:#e2e2e2;fill-opacity:1"
   transform="matrix(0.83230037,0,0,0.83230037,42.847255,42.847255)">
</g>
<g
   id="g12"
   style="fill:#e2e2e2;fill-opacity:1"
   transform="matrix(0.83230037,0,0,0.83230037,42.847255,42.847255)">
</g>
<g
   id="g14"
   style="fill:#e2e2e2;fill-opacity:1"
   transform="matrix(0.83230037,0,0,0.83230037,42.847255,42.847255)">
</g>
<g
   id="g16"
   style="fill:#e2e2e2;fill-opacity:1"
   transform="matrix(0.83230037,0,0,0.83230037,42.847255,42.847255)">
</g>
<g
   id="g18"
   style="fill:#e2e2e2;fill-opacity:1"
   transform="matrix(0.83230037,0,0,0.83230037,42.847255,42.847255)">
</g>
<g
   id="g20"
   style="fill:#e2e2e2;fill-opacity:1"
   transform="matrix(0.83230037,0,0,0.83230037,42.847255,42.847255)">
</g>
<g
   id="g22"
   style="fill:#e2e2e2;fill-opacity:1"
   transform="matrix(0.83230037,0,0,0.83230037,42.847255,42.847255)">
</g>
<g
   id="g24"
   style="fill:#e2e2e2;fill-opacity:1"
   transform="matrix(0.83230037,0,0,0.83230037,42.847255,42.847255)">
</g>
<g
   id="g26"
   style="fill:#e2e2e2;fill-opacity:1"
   transform="matrix(0.83230037,0,0,0.83230037,42.847255,42.847255)">
</g>
<g
   id="g28"
   style="fill:#e2e2e2;fill-opacity:1"
   transform="matrix(0.83230037,0,0,0.83230037,42.847255,42.847255)">
</g>
<g
   id="g30"
   style="fill:#e2e2e2;fill-opacity:1"
   transform="matrix(0.83230037,0,0,0.83230037,42.847255,42.847255)">
</g>
<g
   id="g32"
   style="fill:#e2e2e2;fill-opacity:1"
   transform="matrix(0.83230037,0,0,0.83230037,42.847255,42.847255)">
</g>
<g
   id="g34"
   style="fill:#e2e2e2;fill-opacity:1"
   transform="matrix(0.83230037,0,0,0.83230037,42.847255,42.847255)">
</g>
<g
   id="g36"
   style="fill:#e2e2e2;fill-opacity:1"
   transform="matrix(0.83230037,0,0,0.83230037,42.847255,42.847255)">
</g>
<g
   id="g38"
   style="fill:#e2e2e2;fill-opacity:1"
   transform="matrix(0.83230037,0,0,0.83230037,42.847255,42.847255)">
</g>
</svg>
