<?xml version="1.0" encoding="UTF-8" standalone="no"?>
<!-- Generator: Adobe Illustrator 19.0.0, SVG Export Plug-In . SVG Version: 6.00 Build 0)  -->

<svg
   version="1.1"
   id="Layer_1"
   x="0px"
   y="0px"
   viewBox="0 0 511.999 511.999"
   style="enable-background:new 0 0 511.999 511.999;"
   xml:space="preserve"
   sodipodi:docname="super.svg"
   inkscape:version="1.2.1 (9c6d41e410, 2022-07-14, custom)"
   xmlns:inkscape="http://www.inkscape.org/namespaces/inkscape"
   xmlns:sodipodi="http://sodipodi.sourceforge.net/DTD/sodipodi-0.dtd"
   xmlns="http://www.w3.org/2000/svg"
   xmlns:svg="http://www.w3.org/2000/svg"><defs
   id="defs65" /><sodipodi:namedview
   id="namedview63"
   pagecolor="#ffffff"
   bordercolor="#000000"
   borderopacity="0.25"
   inkscape:showpageshadow="2"
   inkscape:pageopacity="0.0"
   inkscape:pagecheckerboard="0"
   inkscape:deskcolor="#d1d1d1"
   showgrid="false"
   inkscape:zoom="1.6425814"
   inkscape:cx="250.52032"
   inkscape:cy="256.3039"
   inkscape:window-width="1920"
   inkscape:window-height="1021"
   inkscape:window-x="0"
   inkscape:window-y="30"
   inkscape:window-maximized="1"
   inkscape:current-layer="Layer_1" />
<g
   id="g6"
   style="fill:#e2e2e2;fill-opacity:1"
   transform="matrix(0.80679357,0,0,0.80679357,49.460725,49.460845)">
	<g
   id="g4"
   style="fill:#e2e2e2;fill-opacity:1">
		<path
   d="m 214.685,402.828 c -24.829,0 -45.029,20.2 -45.029,45.029 0,24.829 20.2,45.029 45.029,45.029 24.829,0 45.029,-20.2 45.029,-45.029 -10e-4,-24.829 -20.201,-45.029 -45.029,-45.029 z m 0,64.914 c -10.966,0 -19.887,-8.922 -19.887,-19.887 0,-10.966 8.922,-19.887 19.887,-19.887 10.965,0 19.887,8.922 19.887,19.887 0,10.967 -8.922,19.887 -19.887,19.887 z"
   id="path2"
   style="fill:#e2e2e2;fill-opacity:1" />
	</g>
</g>
<g
   id="g12"
   style="fill:#e2e2e2;fill-opacity:1"
   transform="matrix(0.80679357,0,0,0.80679357,49.460725,49.460845)">
	<g
   id="g10"
   style="fill:#e2e2e2;fill-opacity:1">
		<path
   d="m 372.63,402.828 c -24.829,0 -45.029,20.2 -45.029,45.029 0,24.829 20.2,45.029 45.029,45.029 24.829,0 45.029,-20.2 45.029,-45.029 -10e-4,-24.829 -20.201,-45.029 -45.029,-45.029 z m 0,64.914 c -10.966,0 -19.887,-8.922 -19.887,-19.887 0,-10.966 8.922,-19.887 19.887,-19.887 10.966,0 19.887,8.922 19.887,19.887 0,10.967 -8.922,19.887 -19.887,19.887 z"
   id="path8"
   style="fill:#e2e2e2;fill-opacity:1" />
	</g>
</g>
<g
   id="g18"
   style="fill:#e2e2e2;fill-opacity:1"
   transform="matrix(0.80679357,0,0,0.80679357,49.460725,49.460845)">
	<g
   id="g16"
   style="fill:#e2e2e2;fill-opacity:1">
		<path
   d="M 383.716,165.755 H 203.567 c -6.943,0 -12.571,5.628 -12.571,12.571 0,6.943 5.629,12.571 12.571,12.571 h 180.149 c 6.943,0 12.571,-5.628 12.571,-12.571 0,-6.944 -5.628,-12.571 -12.571,-12.571 z"
   id="path14"
   style="fill:#e2e2e2;fill-opacity:1" />
	</g>
</g>
<g
   id="g24"
   style="fill:#e2e2e2;fill-opacity:1"
   transform="matrix(0.80679357,0,0,0.80679357,49.460725,49.460845)">
	<g
   id="g22"
   style="fill:#e2e2e2;fill-opacity:1">
		<path
   d="M 373.911,231.035 H 213.373 c -6.943,0 -12.571,5.628 -12.571,12.571 0,6.943 5.628,12.571 12.571,12.571 H 373.91 c 6.943,0 12.571,-5.628 12.571,-12.571 0,-6.942 -5.628,-12.571 -12.57,-12.571 z"
   id="path20"
   style="fill:#e2e2e2;fill-opacity:1" />
	</g>
</g>
<g
   id="g30"
   style="fill:#e2e2e2;fill-opacity:1"
   transform="matrix(0.80679357,0,0,0.80679357,49.460725,49.460845)">
	<g
   id="g28"
   style="fill:#e2e2e2;fill-opacity:1">
		<path
   d="m 506.341,109.744 c -4.794,-5.884 -11.898,-9.258 -19.489,-9.258 H 95.278 L 87.37,62.097 C 85.719,54.089 80.257,47.365 72.756,44.108 L 17.579,20.158 C 11.209,17.391 3.806,20.314 1.043,26.682 -1.723,33.052 1.2,40.456 7.567,43.219 l 55.178,23.951 60.826,295.261 c 2.396,11.628 12.752,20.068 24.625,20.068 h 301.166 c 6.943,0 12.571,-5.628 12.571,-12.571 0,-6.943 -5.628,-12.571 -12.571,-12.571 H 148.197 l -7.399,-35.916 H 451.69 c 11.872,0 22.229,-8.44 24.624,-20.068 l 35.163,-170.675 c 1.531,-7.432 -0.341,-15.071 -5.136,-20.954 z M 451.69,296.301 H 135.619 l -35.161,-170.674 386.393,0.001 z"
   id="path26"
   style="fill:#e2e2e2;fill-opacity:1" />
	</g>
</g>
<g
   id="g32"
   style="fill:#e2e2e2;fill-opacity:1"
   transform="matrix(0.80679357,0,0,0.80679357,49.460725,49.460845)">
</g>
<g
   id="g34"
   style="fill:#e2e2e2;fill-opacity:1"
   transform="matrix(0.80679357,0,0,0.80679357,49.460725,49.460845)">
</g>
<g
   id="g36"
   style="fill:#e2e2e2;fill-opacity:1"
   transform="matrix(0.80679357,0,0,0.80679357,49.460725,49.460845)">
</g>
<g
   id="g38"
   style="fill:#e2e2e2;fill-opacity:1"
   transform="matrix(0.80679357,0,0,0.80679357,49.460725,49.460845)">
</g>
<g
   id="g40"
   style="fill:#e2e2e2;fill-opacity:1"
   transform="matrix(0.80679357,0,0,0.80679357,49.460725,49.460845)">
</g>
<g
   id="g42"
   style="fill:#e2e2e2;fill-opacity:1"
   transform="matrix(0.80679357,0,0,0.80679357,49.460725,49.460845)">
</g>
<g
   id="g44"
   style="fill:#e2e2e2;fill-opacity:1"
   transform="matrix(0.80679357,0,0,0.80679357,49.460725,49.460845)">
</g>
<g
   id="g46"
   style="fill:#e2e2e2;fill-opacity:1"
   transform="matrix(0.80679357,0,0,0.80679357,49.460725,49.460845)">
</g>
<g
   id="g48"
   style="fill:#e2e2e2;fill-opacity:1"
   transform="matrix(0.80679357,0,0,0.80679357,49.460725,49.460845)">
</g>
<g
   id="g50"
   style="fill:#e2e2e2;fill-opacity:1"
   transform="matrix(0.80679357,0,0,0.80679357,49.460725,49.460845)">
</g>
<g
   id="g52"
   style="fill:#e2e2e2;fill-opacity:1"
   transform="matrix(0.80679357,0,0,0.80679357,49.460725,49.460845)">
</g>
<g
   id="g54"
   style="fill:#e2e2e2;fill-opacity:1"
   transform="matrix(0.80679357,0,0,0.80679357,49.460725,49.460845)">
</g>
<g
   id="g56"
   style="fill:#e2e2e2;fill-opacity:1"
   transform="matrix(0.80679357,0,0,0.80679357,49.460725,49.460845)">
</g>
<g
   id="g58"
   style="fill:#e2e2e2;fill-opacity:1"
   transform="matrix(0.80679357,0,0,0.80679357,49.460725,49.460845)">
</g>
<g
   id="g60"
   style="fill:#e2e2e2;fill-opacity:1"
   transform="matrix(0.80679357,0,0,0.80679357,49.460725,49.460845)">
</g>
</svg>
