<?xml version="1.0" encoding="UTF-8" standalone="no"?>
<!-- Generator: Adobe Illustrator 18.0.0, SVG Export Plug-In . SVG Version: 6.00 Build 0)  -->

<svg
   version="1.1"
   id="Capa_1"
   x="0px"
   y="0px"
   viewBox="0 0 496.705 496.705"
   style="enable-background:new 0 0 496.705 496.705;"
   xml:space="preserve"
   sodipodi:docname="toilet.svg"
   inkscape:version="1.2.1 (9c6d41e410, 2022-07-14, custom)"
   xmlns:inkscape="http://www.inkscape.org/namespaces/inkscape"
   xmlns:sodipodi="http://sodipodi.sourceforge.net/DTD/sodipodi-0.dtd"
   xmlns="http://www.w3.org/2000/svg"
   xmlns:svg="http://www.w3.org/2000/svg"><defs
   id="defs41">



	
	
	
	
	












</defs><sodipodi:namedview
   id="namedview39"
   pagecolor="#ffffff"
   bordercolor="#000000"
   borderopacity="0.25"
   inkscape:showpageshadow="2"
   inkscape:pageopacity="0.0"
   inkscape:pagecheckerboard="0"
   inkscape:deskcolor="#d1d1d1"
   showgrid="false"
   inkscape:zoom="1.318494"
   inkscape:cx="242.32192"
   inkscape:cy="261.66217"
   inkscape:window-width="1920"
   inkscape:window-height="1021"
   inkscape:window-x="0"
   inkscape:window-y="30"
   inkscape:window-maximized="1"
   inkscape:current-layer="Capa_1" />
<g
   id="g894"
   transform="translate(0,22)"><g
     id="g793"
     transform="matrix(1.1016039,0,0,1.1016039,-25.06937,-43.518016)"><path
       id="XMLID_331_"
       d="m 365.96901,141.55314 c 18.87179,0 34.16413,-15.27624 34.16413,-34.13617 0,-18.872647 -15.29319,-34.148886 -34.16413,-34.148886 -18.86163,0 -34.13956,15.276239 -34.13956,34.148886 0,18.85993 15.27793,34.13617 34.13956,34.13617 z"
       style="fill:#000000;fill-opacity:0;stroke:#e2e2e2;stroke-width:9.747;stroke-dasharray:none;stroke-opacity:1" /><path
       id="XMLID_330_"
       d="M 457.48154,263.54951 408.77671,156.86412 c -2.63035,-5.80814 -8.59103,-8.31732 -14.63305,-8.31732 -21.03269,0 -33.23199,-0.008 -56.33998,-0.008 -6.04203,0 -12.00101,2.50917 -14.64069,8.32494 l -48.69296,106.68539 c -3.35997,7.34025 -0.12372,16.00331 7.20806,19.35227 1.96938,0.89233 4.03197,1.32366 6.05304,1.32366 5.54969,0 10.85616,-3.1744 13.29924,-8.54697 l 23.5461,-51.59618 v 55.5807 c 0,0.0966 -0.05,0.18134 -0.05,0.2788 v 125.96817 c 0,9.6825 7.84531,17.52696 17.52187,17.52696 9.67995,0 17.52187,-7.84446 17.52187,-17.52696 V 301.47783 h 12.79503 v 104.43213 c 0,9.6825 7.84277,17.52696 17.52102,17.52696 9.67657,0 17.52188,-7.84446 17.52188,-17.52696 V 279.94179 c 0,-0.0771 -0.0373,-0.1322 -0.0373,-0.20931 v -55.65019 l 23.54865,51.59618 c 2.43969,5.37173 7.74955,8.54697 13.29076,8.54697 2.02361,0 4.09213,-0.43133 6.0649,-1.32366 7.33009,-3.34896 10.56295,-12.01202 7.20637,-19.35227 z"
       style="fill:#000000;fill-opacity:0;stroke:#e2e2e2;stroke-width:9.747;stroke-dasharray:none;stroke-opacity:1" /></g><g
     id="g851"
     transform="matrix(1.1016039,0,0,1.1016039,-25.539942,-43.518016)"><path
       id="XMLID_329_"
       d="m 130.73339,141.55314 c 18.86332,0 34.1421,-15.27624 34.1421,-34.13617 0,-18.872647 -15.27878,-34.148886 -34.1421,-34.148886 -18.8718,0 -34.157358,15.276239 -34.157358,34.148886 0,18.85993 15.285558,34.13617 34.157358,34.13617 z"
       style="fill:#000000;fill-opacity:0;stroke:#e2e2e2;stroke-width:9.747;stroke-dasharray:none;stroke-opacity:1" /><path
       id="XMLID_328_"
       d="m 173.53855,156.86497 c -2.4041,-5.2819 -7.5877,-8.32495 -13.03315,-8.42918 l -59.58386,-0.005 c -5.446293,0.11016 -10.598538,3.15236 -12.996706,8.43511 L 39.223399,263.54951 c -3.357434,7.34025 -0.123721,16.00331 7.206365,19.35227 1.971073,0.89233 4.039598,1.32366 6.062363,1.32366 5.542902,0 10.851071,-3.1744 13.292456,-8.54697 l 15.154213,-33.20063 -13.195851,62.12439 c -0.446585,2.0931 0.0805,4.27009 1.421952,5.93186 1.35077,1.66431 3.37184,2.62697 5.505615,2.62697 h 14.62543 v 92.74805 c 0,9.6825 7.843617,17.52696 17.522718,17.52696 9.67741,0 17.52188,-7.84446 17.52188,-17.52696 v -92.7472 h 12.79333 v 92.74805 c 0,9.6825 7.84531,17.52696 17.52272,17.52696 9.67741,0 17.52187,-7.84446 17.52187,-17.52696 v -92.74805 h 14.57459 c 2.13292,0 4.15654,-0.96266 5.49883,-2.62697 1.34738,-1.66177 1.87701,-3.83961 1.42873,-5.93186 l -13.22551,-62.27777 15.21862,33.35316 c 2.44308,5.37173 7.7504,8.54697 13.29923,8.54697 2.02531,0 4.08367,-0.43133 6.05559,-1.32366 7.33263,-3.34896 10.56549,-12.01202 7.20721,-19.35227 z"
       style="fill:#000000;fill-opacity:0;stroke:#e2e2e2;stroke-width:9.747;stroke-dasharray:none;stroke-opacity:1" /></g><path
     id="XMLID_327_"
     d="m 249.2303,38.309663 c -4.26488,0 -7.7147,6.687414 -7.7147,14.930567 v 354.80964 c 0,8.24424 3.44982,14.92949 7.7147,14.92949 4.2632,0 7.71471,-6.68525 7.71471,-14.92949 V 53.24023 c 0,-8.242067 -3.45151,-14.930567 -7.71471,-14.930567 z"
     style="fill:#e2e2e2;fill-opacity:1;stroke:none;stroke-width:0.77822;stroke-opacity:1" /></g>















</svg>
