<?xml version="1.0" encoding="UTF-8" standalone="no"?>
<!-- Generator: Adobe Illustrator 19.0.0, SVG Export Plug-In . SVG Version: 6.00 Build 0)  -->

<svg
   version="1.1"
   id="Capa_1"
   x="0px"
   y="0px"
   viewBox="0 0 59 59"
   style="enable-background:new 0 0 59 59;"
   xml:space="preserve"
   sodipodi:docname="trash.svg"
   inkscape:version="1.2.1 (9c6d41e410, 2022-07-14, custom)"
   xmlns:inkscape="http://www.inkscape.org/namespaces/inkscape"
   xmlns:sodipodi="http://sodipodi.sourceforge.net/DTD/sodipodi-0.dtd"
   xmlns="http://www.w3.org/2000/svg"
   xmlns:svg="http://www.w3.org/2000/svg"><defs
   id="defs47" /><sodipodi:namedview
   id="namedview45"
   pagecolor="#ffffff"
   bordercolor="#000000"
   borderopacity="0.25"
   inkscape:showpageshadow="2"
   inkscape:pageopacity="0.0"
   inkscape:pagecheckerboard="0"
   inkscape:deskcolor="#d1d1d1"
   showgrid="false"
   inkscape:zoom="7.7991649"
   inkscape:cx="-5.5775202"
   inkscape:cy="31.41362"
   inkscape:window-width="1920"
   inkscape:window-height="1021"
   inkscape:window-x="0"
   inkscape:window-y="30"
   inkscape:window-maximized="1"
   inkscape:current-layer="Capa_1" />
<g
   id="g12"
   style="fill:#e2e2e2;fill-opacity:1"
   transform="matrix(0.79332785,0,0,0.79332785,6.0968285,6.0968285)">
	<path
   d="M 52.5,6 H 38.456 C 38.346,4.75 37.961,2.642 36.643,1.289 35.809,0.434 34.751,0 33.499,0 H 23.5 C 22.248,0 21.19,0.434 20.356,1.289 19.038,2.642 18.653,4.75 18.543,6 H 6.5 c -0.552,0 -1,0.447 -1,1 0,0.553 0.448,1 1,1 h 46 c 0.552,0 1,-0.447 1,-1 0,-0.553 -0.448,-1 -1,-1 z M 21.792,2.681 C 22.24,2.223 22.799,2 23.5,2 h 9.999 c 0.701,0 1.26,0.223 1.708,0.681 0.805,0.823 1.128,2.271 1.24,3.319 H 20.553 c 0.112,-1.048 0.435,-2.496 1.239,-3.319 z"
   id="path2"
   style="fill:#e2e2e2;fill-opacity:1" />
	<path
   d="M 10.456,54.021 C 10.493,55.743 11.565,59 15.364,59 h 28.272 c 3.799,0 4.871,-3.257 4.907,-4.958 L 50.376,10 H 8.624 Z M 48.291,12 46.544,53.979 C 46.538,54.288 46.4,57 43.636,57 H 15.364 C 12.63,57 12.466,54.283 12.455,53.958 L 10.709,12 Z"
   id="path4"
   style="fill:#e2e2e2;fill-opacity:1" />
	<path
   d="m 17.5,54 h 24 c 0.552,0 1,-0.447 1,-1 0,-0.553 -0.448,-1 -1,-1 h -24 c -0.552,0 -1,0.447 -1,1 0,0.553 0.448,1 1,1 z"
   id="path6"
   style="fill:#e2e2e2;fill-opacity:1" />
	<path
   d="m 17.5,49 h 24 c 0.552,0 1,-0.447 1,-1 0,-0.553 -0.448,-1 -1,-1 h -24 c -0.552,0 -1,0.447 -1,1 0,0.553 0.448,1 1,1 z"
   id="path8"
   style="fill:#e2e2e2;fill-opacity:1" />
	<path
   d="m 17.5,44 h 24 c 0.552,0 1,-0.447 1,-1 0,-0.553 -0.448,-1 -1,-1 h -24 c -0.552,0 -1,0.447 -1,1 0,0.553 0.448,1 1,1 z"
   id="path10"
   style="fill:#e2e2e2;fill-opacity:1" />
</g>
<g
   id="g14"
   style="fill:#e2e2e2;fill-opacity:1"
   transform="matrix(0.79332785,0,0,0.79332785,6.0968285,6.0968285)">
</g>
<g
   id="g16"
   style="fill:#e2e2e2;fill-opacity:1"
   transform="matrix(0.79332785,0,0,0.79332785,6.0968285,6.0968285)">
</g>
<g
   id="g18"
   style="fill:#e2e2e2;fill-opacity:1"
   transform="matrix(0.79332785,0,0,0.79332785,6.0968285,6.0968285)">
</g>
<g
   id="g20"
   style="fill:#e2e2e2;fill-opacity:1"
   transform="matrix(0.79332785,0,0,0.79332785,6.0968285,6.0968285)">
</g>
<g
   id="g22"
   style="fill:#e2e2e2;fill-opacity:1"
   transform="matrix(0.79332785,0,0,0.79332785,6.0968285,6.0968285)">
</g>
<g
   id="g24"
   style="fill:#e2e2e2;fill-opacity:1"
   transform="matrix(0.79332785,0,0,0.79332785,6.0968285,6.0968285)">
</g>
<g
   id="g26"
   style="fill:#e2e2e2;fill-opacity:1"
   transform="matrix(0.79332785,0,0,0.79332785,6.0968285,6.0968285)">
</g>
<g
   id="g28"
   style="fill:#e2e2e2;fill-opacity:1"
   transform="matrix(0.79332785,0,0,0.79332785,6.0968285,6.0968285)">
</g>
<g
   id="g30"
   style="fill:#e2e2e2;fill-opacity:1"
   transform="matrix(0.79332785,0,0,0.79332785,6.0968285,6.0968285)">
</g>
<g
   id="g32"
   style="fill:#e2e2e2;fill-opacity:1"
   transform="matrix(0.79332785,0,0,0.79332785,6.0968285,6.0968285)">
</g>
<g
   id="g34"
   style="fill:#e2e2e2;fill-opacity:1"
   transform="matrix(0.79332785,0,0,0.79332785,6.0968285,6.0968285)">
</g>
<g
   id="g36"
   style="fill:#e2e2e2;fill-opacity:1"
   transform="matrix(0.79332785,0,0,0.79332785,6.0968285,6.0968285)">
</g>
<g
   id="g38"
   style="fill:#e2e2e2;fill-opacity:1"
   transform="matrix(0.79332785,0,0,0.79332785,6.0968285,6.0968285)">
</g>
<g
   id="g40"
   style="fill:#e2e2e2;fill-opacity:1"
   transform="matrix(0.79332785,0,0,0.79332785,6.0968285,6.0968285)">
</g>
<g
   id="g42"
   style="fill:#e2e2e2;fill-opacity:1"
   transform="matrix(0.79332785,0,0,0.79332785,6.0968285,6.0968285)">
</g>
</svg>
